<svg width="250" height="250" viewBox="0 0 250 250" fill="none" xmlns="http://www.w3.org/2000/svg">
<g clip-path="url(#clip0_1643_33311)">
<mask id="mask0_1643_33311" style="mask-type:luminance" maskUnits="userSpaceOnUse" x="0" y="0" width="250" height="250">
<path d="M250 0H0V250H250V0Z" fill="white"/>
</mask>
<g mask="url(#mask0_1643_33311)">
<path d="M39.8945 161.609H195.931" stroke="#110809" stroke-width="1.09448" stroke-miterlimit="10"/>
<path d="M194.024 199.69C194.011 200.038 193.931 200.361 193.693 200.661C193.369 201.071 192.882 201.358 192.42 201.576C191.144 202.177 189.709 202.398 188.427 202.992C187.616 203.368 186.433 204.456 187.228 205.384C187.779 206.026 189.168 205.968 189.92 205.915C192.578 205.724 195.225 205.393 197.848 204.925C198.09 204.882 198.344 204.831 198.53 204.671C198.816 204.424 198.852 204.003 198.866 203.626C198.938 201.736 198.964 199.845 198.944 197.954C198.924 196.127 198.483 195.369 196.667 194.783C196.057 194.586 195.355 194.433 194.806 194.764C194.371 195.026 194.148 195.535 194.037 196.032C193.861 196.818 193.904 197.635 193.948 198.439C193.971 198.888 194.039 199.305 194.024 199.69Z" fill="#37C4EE"/>
<path d="M222.798 161.294C222.673 160.158 221.434 159.686 220.445 159.215C218.113 158.105 215.408 157.766 212.881 158.32C209.943 158.964 207.417 160.699 204.579 161.625C200.767 162.87 197.031 164.147 193.364 165.867C192.242 166.393 191.193 167.07 190.286 167.914C189.293 168.839 188.48 169.803 188.242 171.191C187.944 172.935 188.291 174.737 188.638 176.448C189.024 178.356 189.467 180.266 189.783 182.202L192.363 197.988C192.418 198.33 192.748 198.555 193.087 198.483L200.535 196.887C200.867 196.816 201.076 196.486 200.997 196.156C200.7 194.917 200.457 193.654 200.609 192.396C200.699 191.649 200.927 190.92 200.965 190.169C201.048 188.539 200.236 186.876 200.715 185.315C200.847 184.885 201.073 184.484 201.168 184.044C201.27 183.576 201.218 183.089 201.158 182.614C201.033 181.606 200.878 180.601 200.694 179.602C200.555 178.852 200.086 177.768 200.194 177.014C200.413 175.48 202.989 176.017 204.12 175.988C205.575 175.951 207.03 175.913 208.481 175.789C211.403 175.54 214.3 174.914 216.88 173.472C218.307 172.675 219.074 170.871 219.786 169.477C220.653 167.781 221.333 165.991 221.901 164.174C222.172 163.302 222.901 162.237 222.798 161.294Z" fill="#6966CF"/>
<path d="M98.2617 163.395H156.201" stroke="#110809" stroke-width="0.547241" stroke-miterlimit="10"/>
<path d="M51.9844 163.395H69.281" stroke="#110809" stroke-width="0.547241" stroke-miterlimit="10"/>
<path d="M51.2478 53.5051L71.5461 84.2414C72.0128 84.9485 71.818 85.8996 71.1115 86.3664L70.978 86.4545C70.271 86.9213 69.3199 86.7265 68.8531 86.02L48.5548 55.2836C48.088 54.5766 48.2828 53.6255 48.9893 53.1587L49.1228 53.0706C49.8293 52.6038 50.781 52.798 51.2478 53.5051Z" fill="white" stroke="#6966CF" stroke-width="0.547241" stroke-miterlimit="10"/>
<path d="M87.1525 108.36C94.7925 102.435 96.183 91.4384 90.258 83.7983C84.3331 76.1583 73.3368 74.7677 65.6968 80.6927C58.0567 86.6177 56.6662 97.614 62.5912 105.254C68.5161 112.894 79.5124 114.285 87.1525 108.36Z" fill="#6966CF"/>
<path d="M89.8435 97.0886C91.2554 89.6789 86.3931 82.527 78.9835 81.1151C71.5733 79.7027 64.4219 84.565 63.0095 91.9752C61.5976 99.3848 66.4599 106.537 73.8695 107.949C81.2797 109.361 88.4311 104.499 89.8435 97.0886Z" fill="white" stroke="#6966CF" stroke-width="0.547241" stroke-miterlimit="10"/>
<path d="M86.9485 95.6719C86.3159 101.481 81.0941 105.678 75.2852 105.045" stroke="#6966CF" stroke-width="1.09448" stroke-miterlimit="10"/>
<path opacity="0.18" d="M118.819 121.791C120.771 121.791 122.436 120.248 122.449 118.295C122.449 118.282 122.449 118.268 122.449 118.255V102.593C122.449 99.3646 119.923 96.5862 116.695 96.5359C113.422 96.485 110.754 99.1221 110.754 102.383V118.255C110.754 118.268 110.754 118.282 110.754 118.295C110.767 120.248 112.431 121.791 114.384 121.791H118.819Z" fill="#FFC200"/>
<path d="M119.899 119.304C120.43 118.536 120.749 117.58 120.749 116.539V104.127C120.749 101.602 118.891 99.5547 116.599 99.5547C114.307 99.5547 112.449 101.602 112.449 104.127V116.539C112.449 117.58 112.768 118.536 113.299 119.304H119.899Z" fill="#38E9B1"/>
<path d="M116.8 119.218H116.403C115.443 119.218 114.665 118.439 114.665 117.48C114.665 114.298 114.689 111.129 114.501 107.952C114.47 107.433 114.444 106.889 114.665 106.419C114.743 106.253 114.883 106.083 115.067 106.089C115.214 106.094 115.334 106.214 115.403 106.343C115.514 106.551 115.534 106.805 115.458 107.028C115.44 107.08 115.413 107.135 115.362 107.155C115.224 107.212 115.149 106.994 115.161 106.845C115.173 106.692 115.187 106.535 115.258 106.399C115.59 105.76 116.384 106.2 116.487 106.737C116.535 106.984 116.426 107.437 116.159 107.103C115.994 106.896 116.196 106.434 116.344 106.278C116.582 106.029 117.008 105.97 117.286 106.175C117.563 106.38 117.622 106.836 117.382 107.084C117.333 107.135 117.251 107.177 117.194 107.134C117.174 107.118 117.162 107.094 117.152 107.07C117.015 106.736 117.187 106.309 117.515 106.158C117.873 105.994 118.302 106.166 118.432 106.538C118.496 106.72 118.48 106.929 118.388 107.098C118.347 107.175 118.275 107.251 118.189 107.24C118.097 107.229 118.047 107.125 118.035 107.033C118.013 106.865 118.067 106.689 118.178 106.561C118.226 106.506 118.296 106.456 118.367 106.471C118.421 106.483 118.462 106.528 118.482 106.579C118.502 106.63 118.504 106.686 118.506 106.74C118.569 109.07 118.568 111.413 118.554 113.751C118.546 114.993 118.537 116.236 118.537 117.479C118.538 118.439 117.76 119.218 116.8 119.218Z" stroke="#6966CF" stroke-width="0.547241" stroke-miterlimit="10"/>
<path d="M117.902 119.656H115.293V124.211H117.902V119.656Z" fill="#38E9B1"/>
<path d="M119.685 120.325H113.508C113.227 120.325 113 120.098 113 119.817V119.727C113 119.446 113.228 119.219 113.508 119.219H119.685C119.966 119.219 120.193 119.446 120.193 119.727V119.817C120.193 120.098 119.966 120.325 119.685 120.325Z" fill="#6966CF"/>
<path d="M119.685 121.435H113.508C113.227 121.435 113 121.208 113 120.927V120.836C113 120.555 113.228 120.328 113.508 120.328H119.685C119.966 120.328 120.193 120.555 120.193 120.836V120.927C120.193 121.208 119.966 121.435 119.685 121.435Z" fill="#6966CF"/>
<path d="M72.2072 150.426C72.2072 153.973 71.2577 156.686 69.361 158.566C67.4632 160.447 64.9185 161.386 61.7264 161.386H49.8086V124.355H61.1414C64.6531 124.355 67.2864 125.26 69.0419 127.069C70.7975 128.878 71.6758 131.344 71.6758 134.464C71.6758 136.026 71.3475 137.462 70.6913 138.774C70.0346 140.086 68.8559 141.133 67.1534 141.913V142.179C68.0399 142.464 68.8028 142.88 69.4414 143.43C70.0801 143.98 70.6027 144.626 71.0109 145.372C71.4181 146.116 71.7201 146.924 71.9155 147.792C72.1092 148.661 72.2072 149.539 72.2072 150.426ZM65.7164 134.678C65.7164 133.187 65.3174 132.017 64.519 131.165C63.7211 130.314 62.4351 129.889 60.6615 129.889H55.8731V139.572H60.7146C62.4521 139.572 63.7206 139.12 64.5184 138.215C65.3174 137.311 65.7164 136.132 65.7164 134.678ZM66.2488 150.079C66.2488 148.512 65.8581 147.246 65.0783 146.283C64.2979 145.321 63.0031 144.839 61.194 144.839H55.8737V155.64H61.2476C62.2053 155.64 63.0031 155.498 63.6418 155.212C64.2804 154.927 64.7943 154.527 65.1844 154.009C65.5746 153.493 65.8493 152.895 66.0091 152.218C66.1689 151.541 66.2488 150.828 66.2488 150.079Z" fill="#6966CF"/>
<path d="M94.021 161.386L88.4879 145.956H83.7526V161.386H77.6875V124.355H89.6053C91.1299 124.355 92.5489 124.578 93.8618 125.02C95.1735 125.464 96.3003 126.13 97.2404 127.016C98.18 127.903 98.9166 129.011 99.4486 130.341C99.9805 131.671 100.246 133.223 100.246 134.997C100.246 137.337 99.7495 139.359 98.7568 141.062C97.7636 142.765 96.291 144.059 94.3406 144.946L100.672 161.386H94.021V161.386ZM94.287 134.997C94.287 133.259 93.8432 131.973 92.9572 131.139C92.0701 130.306 90.7934 129.889 89.1265 129.889H83.7526V140.477H89.0729C90.6692 140.477 91.9366 140.016 92.8767 139.093C93.8163 138.171 94.287 136.805 94.287 134.997Z" fill="#38E9B1"/>
<path d="M121.53 153.405H111.262C111.191 153.724 111.049 154.256 110.837 155.001C110.624 155.746 110.402 156.544 110.172 157.395C109.941 158.247 109.728 159.045 109.533 159.789C109.338 160.534 109.187 161.067 109.081 161.386H102.75L113.444 124.355H119.296L130.044 161.386H123.606L121.53 153.405ZM114.507 140.53L112.592 147.979H120.147L118.285 140.583C118.213 140.264 118.099 139.732 117.939 138.987C117.779 138.242 117.602 137.462 117.407 136.645C117.211 135.83 117.025 135.059 116.849 134.332C116.671 133.605 116.564 133.081 116.529 132.762H116.263L114.507 140.53Z" fill="#6966CF"/>
<path d="M152.548 161.386L143.822 145.478L139.938 137.87L139.778 137.923V161.386H133.66V124.355H139.246L147.44 139.466L151.803 147.765L152.016 147.713V124.355H158.081V161.386H152.548V161.386Z" fill="#6966CF"/>
<path d="M175.848 124.355C178.331 124.355 180.459 124.817 182.233 125.739C184.006 126.662 185.3 128.186 186.117 130.314C186.613 131.627 186.906 133.25 186.995 135.183C187.083 137.116 187.128 139.306 187.128 141.753C187.128 144.769 187.11 147.349 187.075 149.495C187.039 151.641 186.737 153.477 186.17 155.002C185.709 156.244 185.106 157.272 184.361 158.087C183.616 158.904 182.765 159.551 181.807 160.03C180.85 160.508 179.803 160.854 178.668 161.067C177.532 161.28 176.362 161.386 175.157 161.386H164.516V124.356L175.848 124.355ZM181.009 138.136C181.009 135.618 180.565 133.631 179.679 132.177C178.792 130.723 177.213 129.995 174.944 129.995H170.634V155.746H174.997C177.266 155.746 178.836 155.153 179.705 153.964C180.574 152.776 181.009 151.118 181.009 148.989V138.136Z" fill="#6966CF"/>
<path d="M173.906 165.941C175.264 165.754 176.543 165.251 177.889 165.119C180.236 164.888 182.99 163.9 184.911 162.533C185.8 161.9 186.428 161.04 187.247 160.349C187.86 159.831 188.626 159.472 189.277 158.971C190.901 157.722 192.395 156.284 193.656 154.667C194.931 153.029 195.693 150.998 195.811 148.926C195.857 148.106 195.795 147.246 195.385 146.533C194.25 144.564 191.665 145.703 190.12 146.508C188.348 147.429 186.822 148.828 185.769 150.526C185.701 150.636 185.635 150.747 185.57 150.859C185.034 151.797 184.605 152.874 183.836 153.657C183.208 154.296 182.222 154.859 181.787 155.63C181.177 156.711 180.716 157.55 179.613 158.209C178.28 159.007 176.693 159.2 175.357 160.007C174.12 160.753 172.926 161.522 171.673 162.258C170.523 162.934 169.586 163.969 168.348 164.466C167.525 164.797 166.609 164.871 165.811 165.261C164.728 165.78 164.272 167.603 164.009 168.663C163.97 168.819 163.931 168.98 163.958 169.138C164.14 170.187 165.498 169.641 165.978 169.131C166.343 168.742 166.278 168.273 166.611 167.88C166.976 167.447 167.696 167.295 168.228 167.254C169.028 167.192 169.872 167.286 170.596 166.94C170.958 166.767 171.264 166.493 171.625 166.319C172.174 166.055 172.804 166.04 173.412 165.995C173.578 165.982 173.743 165.964 173.906 165.941Z" fill="#ED926E"/>
<path d="M148.964 119.874C148.058 121.529 149.472 122.722 150.651 123.833C150.973 124.137 151.32 124.426 151.727 124.6C152.432 124.901 153.233 124.83 153.995 124.745C159.465 124.139 165.041 123.401 170.422 122.245C171.688 121.973 172.94 121.64 174.201 121.355C175.842 120.984 177.553 120.268 179.119 119.644C180.711 119.009 182.2 118.114 183.505 117.002C183.527 116.983 183.55 116.963 183.572 116.943C183.797 116.806 183.993 116.643 184.152 116.365C184.829 115.594 185.294 114.634 184.906 113.735C184.457 112.701 183.148 112.406 182.024 112.316C178.668 112.05 175.306 112.412 171.989 112.911C169.752 113.247 167.537 113.723 165.29 114C163.006 114.282 160.828 114.029 158.556 114.081C154.627 114.172 150.855 116.419 148.964 119.874Z" fill="#6966CF"/>
<path d="M158.706 111.698C157.667 111.288 156.145 111.462 155.283 110.73C154.307 109.901 153.673 108.44 153.143 107.308C152.802 106.58 151.534 105.726 151.365 105.07C151.288 104.77 151.528 104.495 151.664 104.217C151.926 103.688 151.831 103.03 152.12 102.515C152.406 102.005 152.994 101.758 153.414 101.352C153.744 101.033 153.966 100.621 154.174 100.211C154.91 98.7612 155.982 97.1272 156.231 95.5172C156.368 94.6241 156.379 93.6878 156.064 92.8412C155.668 91.7801 154.556 90.6561 153.384 91.1453C152.218 91.6318 151.32 92.5736 150.374 93.378C149.208 94.3691 147.916 95.3492 147.31 96.8054C146.988 97.5781 146.89 98.4247 146.635 99.222C146.364 100.07 145.921 100.851 145.595 101.679C145.275 102.49 145.07 103.347 144.987 104.215C144.948 104.619 144.937 105.037 145.067 105.422C145.216 105.863 145.535 106.222 145.852 106.563C147.375 108.197 148.946 109.763 150.785 111.042C151.303 111.402 151.837 111.745 152.414 112C153.557 112.504 153.997 113.433 155.141 113.947C156.093 114.374 157.111 114.683 158.153 114.735C158.926 114.772 160.184 114.592 160.258 113.66C160.328 112.78 159.435 111.985 158.706 111.698Z" fill="#ED926E"/>
<path d="M180.259 106.702C179.691 107.536 178.857 108.229 178.08 108.923C177.31 109.61 176.491 110.258 175.559 110.703C174.792 111.069 173.963 111.291 173.193 111.652C172.276 112.081 171.461 112.699 170.574 113.188C170.008 113.5 168.166 114.439 167.623 113.748C167.12 113.109 168.246 112.069 168.71 111.778C170.022 110.953 171.045 109.617 171.792 108.264C172.055 107.789 172.285 107.295 172.569 106.832C173.313 105.619 174.427 104.638 175.724 104.054C174.834 103.071 174.164 101.89 173.776 100.622C172.223 99.8329 171.064 98.3083 170.718 96.6003C170.456 95.3017 170.556 93.0515 172.161 92.6815C173.626 92.3439 175.669 92.8616 176.784 93.8193C177.993 94.8579 178.658 96.405 179.007 97.9608C179.143 98.5682 179.238 99.1861 179.414 99.7831C179.88 101.369 180.913 102.815 180.955 104.468C180.976 105.339 180.696 106.062 180.259 106.702Z" fill="#ED926E"/>
<path d="M175.528 92.2946C174.799 91.673 174.037 91.0923 173.215 90.602C171.853 89.7904 170.304 89.2344 168.719 89.2421C167.856 89.2465 166.877 89.0916 166.035 89.2514C165.107 89.4271 164.247 89.8348 163.286 89.8654C161.674 89.9163 160.097 89.4101 158.538 89.142C156.953 88.8689 155.16 89.5141 153.8 90.2753C152.314 91.1077 149.276 93.0991 148.156 94.3873C149.575 96.7032 152.556 98.0773 153.743 100.543C153.994 100.412 154.232 100.255 154.451 100.076C154.42 102.46 154.431 104.844 154.483 107.228C154.534 109.553 154.416 112.047 154.778 114.342C155.136 114.008 155.772 114.147 156.223 114.142C156.933 114.134 157.643 114.132 158.353 114.13C159.684 114.126 161.016 114.118 162.348 114.118C164.248 114.102 166.154 114.095 168.038 113.831C169.024 113.692 169.998 113.553 170.979 113.569C171.497 111.778 171.315 109.622 171.366 107.843C171.41 106.277 171.375 104.71 171.308 103.146C171.274 102.344 171.246 101.539 171.188 100.737C171.158 100.334 170.863 99.4821 171.166 99.1882C171.523 99.4635 171.825 99.8482 172.137 100.178C173.697 97.9449 175.294 95.7379 176.929 93.5582C176.471 93.1275 176.006 92.7023 175.528 92.2946Z" fill="#6966CF"/>
<path d="M161.028 125.295C160.676 125.647 153.259 127.275 153.259 127.275L152.91 123.505L159.81 121.035L161.028 125.295Z" fill="#ED926E"/>
<path d="M179.792 120.789C180.658 120.294 181.525 119.796 182.457 119.445C183.446 119.073 184.541 118.845 185.302 118.112C186.108 117.338 186.363 116.167 186.578 115.07C186.818 113.852 186.814 112.481 186.479 111.279C186.001 109.566 184.616 108.128 182.867 107.731C181.813 107.493 180.678 107.632 179.714 108.118C179.003 108.477 178.393 109.01 177.691 109.385C177.105 109.698 176.465 109.894 175.845 110.135C173.964 110.868 172.233 111.964 170.52 113C168.797 114.042 167.255 115.35 165.59 116.476C164.932 116.92 158.022 120.274 158.023 120.276C158.919 122.271 159.702 124.323 160.522 126.357C164.99 125.752 169.296 124.347 173.641 123.179C174.503 122.948 175.304 122.601 176.167 122.405C177.141 122.183 178.053 121.753 178.926 121.277C179.216 121.118 179.504 120.954 179.792 120.789Z" fill="#6966CF"/>
<path d="M153.013 127.668C151.645 127.939 150.273 127.646 148.798 127.487C147.648 127.363 146.469 127.575 145.326 127.399C143.8 127.164 142.615 126.085 142.502 124.559C142.439 123.701 142.407 122.741 142.973 122.093C143.437 121.562 144.203 121.386 144.905 121.45C145.607 121.514 146.27 121.783 146.937 122.012C148.077 122.404 149.25 122.685 150.428 122.936C151.381 123.139 152.202 123.613 153.148 123.144C153.199 123.119 153.256 123.092 153.309 123.11C153.367 123.131 153.394 123.195 153.414 123.252C153.751 124.199 154.055 125.159 154.323 126.128C154.463 126.631 154.695 126.923 154.282 127.235C153.957 127.481 153.406 127.59 153.013 127.668Z" fill="#38E9B1"/>
<path d="M167.785 125.295C168.138 125.647 175.554 127.275 175.554 127.275L175.903 123.505L169.003 121.035L167.785 125.295Z" fill="#ED926E"/>
<path d="M148.773 121.231C147.345 120.692 145.958 120.058 144.648 119.269C144.208 119.004 143.769 118.714 143.455 118.307C143.009 117.731 142.861 116.986 142.725 116.27C142.218 113.604 141.5 111.572 143.433 109.307C145.006 107.464 147.531 106.748 149.671 108.08C151.061 108.946 151.993 110.514 153.537 111.059C154.369 111.353 155.319 111.294 156.122 111.667C156.862 112.009 157.592 112.575 158.298 113.002C160.02 114.044 161.563 115.352 163.228 116.478C163.886 116.922 170.795 120.276 170.794 120.278C169.898 122.274 169.116 124.325 168.296 126.359C163.828 125.755 159.522 124.349 155.176 123.182C153.025 122.603 150.854 122.017 148.773 121.231Z" fill="#6966CF"/>
<path d="M175.807 127.669C177.175 127.94 178.548 127.647 180.022 127.488C181.172 127.364 182.351 127.576 183.494 127.4C184.939 127.177 186.586 125.744 186.652 124.211C186.672 123.733 186.547 123.258 186.365 122.814C186.27 122.581 186.158 122.352 186.003 122.153C185.651 121.707 185.093 121.449 184.528 121.397C183.662 121.316 182.794 121.597 181.974 121.836C181.128 122.084 180.349 122.217 179.531 122.57C178.48 123.024 177.305 123.186 176.171 123.033C175.875 122.993 175.57 122.934 175.284 123.017C174.642 123.204 174.707 124.171 174.658 124.701C174.583 125.499 174.545 126.318 174.223 127.064C174.753 127.377 175.28 127.565 175.807 127.669Z" fill="#38E9B1"/>
<path d="M166.212 89.2366C166.001 89.2383 165.788 89.2191 165.597 89.1305C165.247 88.9668 165.175 88.6084 165.136 88.2592C165.086 87.8149 165.081 87.3661 165.121 86.9207C165.132 86.7937 165.147 86.6662 165.149 86.5387C165.156 85.7441 165.223 84.8423 165.442 84.0778C166.251 84.0564 166.286 83.4671 166.339 82.7819C166.356 82.5723 166.357 82.3403 166.221 82.1794C166.085 82.0191 165.766 82.0234 165.711 82.2259C165.743 81.6694 165.762 81.1123 165.768 80.5546C165.773 80.0638 165.867 79.6894 165.387 79.429C164.614 79.0103 163.678 78.9797 162.821 79.1728C162.143 79.3255 161.095 79.6172 160.574 80.1026C159.998 80.6378 160.097 81.4067 159.889 82.0896C159.88 82.1197 159.869 82.1515 159.843 82.1695C159.812 82.1909 159.771 82.1854 159.734 82.1827C159.441 82.1635 159.185 82.4185 159.11 82.7026C159.036 82.9866 159.103 83.2876 159.19 83.5672C159.247 83.7467 159.317 83.9317 159.46 84.0537C159.603 84.1757 159.84 84.2075 159.973 84.075C160.232 84.654 160.448 85.3096 160.607 85.9269C160.638 86.0473 160.697 86.1562 160.721 86.2771C160.757 86.4561 160.748 86.6575 160.751 86.8392C160.761 87.4378 160.677 87.9845 160.565 88.5712C160.533 88.7452 160.496 88.9269 160.384 89.0642C160.181 89.3149 159.811 89.3329 159.488 89.3296C159.676 89.6673 159.737 90.0345 159.963 90.3607C160.334 90.8959 160.906 91.3572 161.567 91.4442C162.533 91.5711 163.538 91.6116 164.456 91.2877C164.9 91.1306 165.315 90.8816 165.649 90.5478C166.03 90.1669 166.219 89.7477 166.339 89.2333C166.297 89.2355 166.254 89.2366 166.212 89.2366Z" fill="#ED926E"/>
<path d="M171.743 116.121H153.346C152.844 116.121 152.438 115.714 152.438 115.212V104.346C152.438 103.845 152.844 103.438 153.346 103.438H171.743C172.244 103.438 172.651 103.844 172.651 104.346V115.212C172.652 115.714 172.244 116.121 171.743 116.121Z" fill="white" stroke="#6966CF" stroke-width="0.547241" stroke-miterlimit="10"/>
<path d="M163.734 109.384C163.734 110.041 163.201 110.574 162.545 110.574C161.888 110.574 161.355 110.041 161.355 109.384C161.355 108.728 161.888 108.195 162.545 108.195C163.201 108.195 163.734 108.728 163.734 109.384Z" fill="#6966CF"/>
<path d="M165.994 78.8154C165.917 78.7011 165.828 78.5867 165.807 78.4504C165.794 78.3612 165.812 78.2709 165.812 78.1812C165.81 78.0165 165.745 77.86 165.678 77.7095C165.602 77.542 165.522 77.3762 165.438 77.2131C165.353 77.0484 165.26 76.882 165.123 76.7567C164.925 76.5761 164.651 76.4968 164.383 76.4924C164.032 76.4864 163.679 76.6029 163.4 76.8175C163.237 76.9428 163.1 77.0998 162.928 77.2131C162.65 77.397 162.31 77.4506 161.986 77.53C161.493 77.6509 161.016 77.8403 160.575 78.0914C160.392 78.1949 160.214 78.3109 160.073 78.4658C159.79 78.7744 159.692 79.1941 159.652 79.5996C159.556 80.5825 159.578 81.6223 159.726 82.6177C159.871 83.5879 160.057 84.6868 160.646 85.4923C161.157 86.1912 162.013 86.5699 162.871 86.5507C165.467 86.4927 165.917 83.0544 166.3 81.1221C166.455 80.3461 166.45 79.4929 165.994 78.8154ZM163.428 85.0507C162.979 85.2477 162.554 85.2904 162.109 85.0688C161.816 84.9232 162.06 84.4176 162.354 84.5533C162.65 84.6895 162.861 84.6846 163.161 84.5407C163.497 84.3793 163.765 84.903 163.428 85.0507ZM165.326 82.6855C165.252 83.1036 165.135 83.5141 165.033 83.9267C164.972 84.0794 164.909 84.2293 164.839 84.3743C164.28 83.7932 163.211 83.7839 162.463 83.8528C162.06 83.89 161.003 83.9902 160.7 84.4055C160.104 83.2552 159.943 81.706 160.339 80.7587C160.429 80.5442 160.598 80.3713 160.79 80.2394C161.409 79.8125 162.216 79.806 162.969 79.8147C163.454 79.8207 163.938 79.8262 164.424 79.8322C165.014 79.8393 165.408 80.084 165.523 80.5973C165.476 81.295 165.448 81.9927 165.326 82.6855Z" fill="#6966CF"/>
<path d="M179.192 105.411C179.109 105.626 178.975 105.862 178.824 106.035C178.724 106.15 178.857 106.361 178.999 106.261C179.288 106.06 179.46 105.849 179.587 105.519C179.682 105.274 179.286 105.168 179.192 105.411Z" fill="#6966CF"/>
<path d="M146.323 104.924C146.175 104.807 146.022 104.746 146.02 104.526C146.018 104.315 145.694 104.314 145.691 104.526C145.689 104.817 145.889 105.189 146.222 105.17C146.332 105.164 146.429 105.008 146.323 104.924Z" fill="#6966CF"/>
<path d="M170.658 119.876C170.656 119.869 170.654 119.863 170.652 119.856C170.581 119.639 169.999 119.423 169.804 119.314C169.466 119.126 169.124 118.947 168.78 118.773C168.109 118.432 167.429 118.108 166.763 117.759C165.353 117.02 163.953 116.253 162.521 115.557C162.419 115.507 162.33 115.653 162.431 115.712C163.87 116.56 165.359 117.328 166.833 118.112C167.517 118.474 168.188 118.861 168.871 119.224C169.206 119.403 169.544 119.575 169.888 119.737C170.224 119.896 170.343 120.019 170.31 120.419C170.283 120.748 170.215 121.074 170.107 121.387C170.09 121.438 170.071 121.491 170.077 121.544C170.091 121.654 170.219 121.697 170.285 121.602C170.59 121.164 170.819 120.401 170.658 119.876Z" fill="white"/>
<path d="M107.78 103.251C106.114 103.201 104.46 103.269 102.795 103.133C102.629 103.12 102.632 103.374 102.795 103.391C104.448 103.561 106.156 103.687 107.808 103.458C107.929 103.441 107.894 103.254 107.78 103.251Z" fill="#6966CF"/>
<path d="M109.818 97.0029C108.996 96.286 108.078 95.6786 107.196 95.0389C107.045 94.9294 106.903 95.179 107.051 95.2879C107.918 95.9276 108.767 96.6116 109.689 97.1709C109.791 97.2328 109.912 97.0839 109.818 97.0029Z" fill="#6966CF"/>
<path d="M114.835 88.8409C114.767 88.6269 114.431 88.7172 114.497 88.9339C114.852 90.0929 115.144 91.304 115.635 92.4143C115.697 92.5555 115.895 92.4488 115.869 92.3153C115.644 91.136 115.197 89.9846 114.835 88.8409Z" fill="#6966CF"/>
<path d="M122.343 89.9198C122.007 91.0542 121.427 92.0497 120.988 93.1376C120.92 93.3067 121.166 93.4238 121.282 93.3083C122.128 92.4579 122.537 91.1856 122.749 90.032C122.796 89.7688 122.42 89.656 122.343 89.9198Z" fill="#6966CF"/>
<path d="M127.838 96.5858C126.912 96.9919 125.833 97.456 125.144 98.2215C125.027 98.3518 125.173 98.5214 125.324 98.4541C126.267 98.0349 127.102 97.3783 128.045 96.9394C128.284 96.8272 128.075 96.4813 127.838 96.5858Z" fill="#6966CF"/>
<path d="M130.001 103.79C128.786 104.11 127.572 104.113 126.345 104.307C126.19 104.332 126.195 104.586 126.345 104.615C127.569 104.854 128.939 104.554 130.124 104.233C130.409 104.156 130.288 103.714 130.001 103.79Z" fill="#6966CF"/>
<path d="M123.007 79.85C133.183 79.85 141.432 71.6009 141.432 61.425C141.432 51.249 133.183 43 123.007 43C112.831 43 104.582 51.249 104.582 61.425C104.582 71.6009 112.831 79.85 123.007 79.85Z" fill="#6966CF"/>
<path d="M127.796 74.5976C135.075 71.9571 138.835 63.9165 136.195 56.6377C133.555 49.3588 125.514 45.5983 118.235 48.2386C110.957 50.879 107.196 58.9196 109.836 66.1985C112.476 73.4774 120.517 77.238 127.796 74.5976Z" fill="white" stroke="#6966CF" stroke-width="0.547241" stroke-miterlimit="10"/>
<path d="M126.353 69.5706C130.857 67.7264 133.012 62.5801 131.167 58.0763C129.323 53.5725 124.177 51.4169 119.673 53.2611C115.17 55.1053 113.014 60.2516 114.859 64.7554C116.703 69.2592 121.85 71.4153 126.353 69.5706Z" fill="#6966CF"/>
<path d="M127.75 62.1999C128.177 59.5797 126.398 57.1105 123.779 56.6842C121.158 56.2579 118.689 58.0359 118.262 60.6561C117.836 63.2763 119.615 65.7454 122.235 66.1717C124.854 66.598 127.324 64.8201 127.75 62.1999Z" fill="#37C4EE"/>
<path d="M151.098 56.7539L122.5 61.5981" stroke="#6966CF" stroke-width="1.09448" stroke-miterlimit="10"/>
<path d="M124.492 58.8867L122.586 61.5841L125.283 63.4901" stroke="#6966CF" stroke-width="1.09448" stroke-miterlimit="10"/>
<path d="M146.101 55.2461L144.195 57.9429L146.893 59.8495" stroke="#6966CF" stroke-width="1.09448" stroke-miterlimit="10"/>
<path d="M148.406 54.8477L146.5 57.545L149.197 59.4511" stroke="#6966CF" stroke-width="1.09448" stroke-miterlimit="10"/>
<path d="M150.711 54.4492L148.805 57.1466L151.502 59.0526" stroke="#6966CF" stroke-width="1.09448" stroke-miterlimit="10"/>
<path d="M81.4016 51.6747C80.5277 50.6754 79.2241 50.0696 77.7953 50.1381C75.8351 50.2316 73.9378 51.5576 73.7791 53.3755C71.8599 53.9233 70.4136 55.703 70.5126 57.7825C70.5739 59.0674 71.1813 60.1969 72.0991 60.9587C71.867 61.6181 71.8889 62.3935 72.3125 63.1662C72.539 63.5799 72.8975 63.9154 73.3243 64.1168C74.1063 64.4851 74.8446 64.4665 75.4673 64.2235L75.5171 67.8134C75.5204 68.029 75.7979 68.1133 75.9205 67.9365L77.798 65.2261C79.5481 65.9424 81.1181 64.8682 81.2353 63.2784C81.7004 63.5099 82.2274 63.6319 82.7829 63.6057C84.3879 63.5291 85.6526 62.2655 85.7757 60.7047C86.6529 61.2268 87.7972 61.3379 88.9339 60.7688C89.5637 60.4536 90.0584 59.9069 90.3074 59.2485C91.1868 56.9228 89.4811 54.8077 87.3408 54.8405" fill="white"/>
<path d="M81.4016 51.6747C80.5277 50.6754 79.2241 50.0696 77.7953 50.1381C75.8351 50.2316 73.9378 51.5576 73.7791 53.3755C71.8599 53.9233 70.4136 55.703 70.5126 57.7825C70.5739 59.0674 71.1813 60.1969 72.0991 60.9587C71.867 61.6181 71.8889 62.3935 72.3125 63.1662C72.539 63.5799 72.8975 63.9154 73.3243 64.1168C74.1063 64.4851 74.8446 64.4665 75.4673 64.2235L75.5171 67.8134C75.5204 68.029 75.7979 68.1133 75.9205 67.9365L77.798 65.2261C79.5481 65.9424 81.1181 64.8682 81.2353 63.2784C81.7004 63.5099 82.2274 63.6319 82.7829 63.6057C84.3879 63.5291 85.6526 62.2655 85.7757 60.7047C86.6529 61.2268 87.7972 61.3379 88.9339 60.7688C89.5637 60.4536 90.0584 59.9069 90.3074 59.2485C91.1868 56.9228 89.4811 54.8077 87.3408 54.8405" stroke="#6966CF" stroke-width="0.547241" stroke-miterlimit="10"/>
<path d="M74.4173 59.2305C73.3825 59.2797 72.5189 59.9309 72.1484 60.8295L74.4173 59.2305Z" fill="white"/>
<path d="M74.4173 59.2305C73.3825 59.2797 72.5189 59.9309 72.1484 60.8295" stroke="#6966CF" stroke-width="0.547241" stroke-miterlimit="10"/>
<path d="M85.7524 60.4394C85.6692 58.6981 84.1905 57.3541 82.4492 57.4373L85.7524 60.4394Z" fill="white"/>
<path d="M85.7524 60.4394C85.6692 58.6981 84.1905 57.3541 82.4492 57.4373" stroke="#6966CF" stroke-width="0.547241" stroke-miterlimit="10"/>
<path d="M88.711 55.0986C87.6384 54.6701 86.6047 54.7949 85.8008 55.2633L88.711 55.0986Z" fill="white"/>
<path d="M88.711 55.0986C87.6384 54.6701 86.6047 54.7949 85.8008 55.2633" stroke="#6966CF" stroke-width="0.547241" stroke-miterlimit="10"/>
<path d="M87.3389 54.6289C87.2388 52.5314 85.457 50.9121 83.3594 51.0122C81.2618 51.1124 79.6425 52.8942 79.7427 54.9918" fill="white"/>
<path d="M87.3389 54.6289C87.2388 52.5314 85.457 50.9121 83.3594 51.0122C81.2618 51.1124 79.6425 52.8942 79.7427 54.9918" stroke="#6966CF" stroke-width="0.547241" stroke-miterlimit="10"/>
<path d="M84.0274 52.4219C82.6286 52.4886 81.5495 53.6767 81.6162 55.0749L84.0274 52.4219Z" fill="white"/>
<path d="M84.0274 52.4219C82.6286 52.4886 81.5495 53.6767 81.6162 55.0749" stroke="#6966CF" stroke-width="0.547241" stroke-miterlimit="10"/>
<path d="M81.8086 62.0606C83.0421 62.1777 84.1371 61.2725 84.2537 60.0391L81.8086 62.0606Z" fill="white"/>
<path d="M81.8086 62.0606C83.0421 62.1777 84.1371 61.2725 84.2537 60.0391" stroke="#6966CF" stroke-width="0.547241" stroke-miterlimit="10"/>
<path d="M88.8711 58.7724C89.2361 57.719 88.6784 56.5687 87.625 56.2031L88.8711 58.7724Z" fill="white"/>
<path d="M88.8711 58.7724C89.2361 57.719 88.6784 56.5687 87.625 56.2031" stroke="#6966CF" stroke-width="0.547241" stroke-miterlimit="10"/>
<path d="M73.4453 61.7344C73.7063 62.5394 74.5704 62.9804 75.3754 62.7194L73.4453 61.7344Z" fill="white"/>
<path d="M73.4453 61.7344C73.7063 62.5394 74.5704 62.9804 75.3754 62.7194" stroke="#6966CF" stroke-width="0.547241" stroke-miterlimit="10"/>
<path d="M77.1348 53.9946C76.2045 53.3543 75.0339 53.1206 73.8398 53.3636L77.1348 53.9946Z" fill="white"/>
<path d="M77.1348 53.9946C76.2045 53.3543 75.0339 53.1206 73.8398 53.3636" stroke="#6966CF" stroke-width="0.547241" stroke-miterlimit="10"/>
<path d="M73.1216 55.3047C72.4972 55.7671 72.0879 56.5042 72.0742 57.341L73.1216 55.3047Z" fill="white"/>
<path d="M73.1216 55.3047C72.4972 55.7671 72.0879 56.5042 72.0742 57.341" stroke="#6966CF" stroke-width="0.547241" stroke-miterlimit="10"/>
<path d="M178.263 65.4765H181.607C181.994 65.4765 182.309 65.1624 182.309 64.7744V53.6982C182.309 53.3108 181.995 52.9961 181.607 52.9961H165.538C165.151 52.9961 164.836 53.3102 164.836 53.6982V55.7919" fill="#6966CF"/>
<path d="M177.863 56.1172H163.667C163.279 56.1172 162.965 56.4313 162.965 56.8193V66.6478C162.965 67.0352 163.279 67.3499 163.667 67.3499H164.656C164.756 67.3499 164.837 67.4309 164.837 67.5305V71.3431C164.837 71.4941 165.012 71.5784 165.13 71.4843L170.253 67.3898C170.285 67.3641 170.325 67.3504 170.366 67.3504H177.863C178.251 67.3504 178.566 67.0363 178.566 66.6483V56.8198C178.566 56.4318 178.251 56.1172 177.863 56.1172Z" fill="white" stroke="#6966CF" stroke-width="0.547241" stroke-miterlimit="10"/>
<path d="M164.426 59.4297H175.9" stroke="#6966CF" stroke-width="0.547241" stroke-miterlimit="10"/>
<path d="M164.426 61.1523H175.9" stroke="#6966CF" stroke-width="0.547241" stroke-miterlimit="10"/>
<path d="M164.426 63.1641H175.9" stroke="#6966CF" stroke-width="0.547241" stroke-miterlimit="10"/>
<path d="M205.492 60.4733C205.146 60.4733 204.818 60.5488 204.522 60.6823C204.194 58.8923 202.629 57.5352 200.745 57.5352C198.86 57.5352 197.296 58.8929 196.969 60.6823C196.672 60.5494 196.345 60.4733 195.999 60.4733C194.688 60.4733 193.625 61.6521 193.625 62.9627C193.625 64.2733 194.688 65.4521 195.999 65.4521C196.855 65.4521 204.636 65.4521 205.492 65.4521C206.803 65.4521 207.866 64.2733 207.866 62.9627C207.866 61.6521 206.803 60.4733 205.492 60.4733Z" fill="#A7D8EB"/>
<path d="M202.715 56.6447C202.115 56.376 201.449 56.2266 200.748 56.2266C200.205 56.2266 199.682 56.3163 199.195 56.4821" fill="white"/>
<path d="M202.715 56.6447C202.115 56.376 201.449 56.2266 200.748 56.2266C200.205 56.2266 199.682 56.3163 199.195 56.4821" stroke="#6966CF" stroke-width="0.547241" stroke-miterlimit="10"/>
<path d="M203.858 55.5023C202.952 54.9485 201.887 54.6289 200.747 54.6289C199.726 54.6289 198.766 54.885 197.926 55.3365" fill="white"/>
<path d="M203.858 55.5023C202.952 54.9485 201.887 54.6289 200.747 54.6289C199.726 54.6289 198.766 54.885 197.926 55.3365" stroke="#6966CF" stroke-width="0.547241" stroke-miterlimit="10"/>
<path d="M204.886 54.2359C203.73 53.3784 202.3 52.8711 200.75 52.8711C199.363 52.8711 198.072 53.2771 196.988 53.9771" fill="white"/>
<path d="M204.886 54.2359C203.73 53.3784 202.3 52.8711 200.75 52.8711C199.363 52.8711 198.072 53.2771 196.988 53.9771" stroke="#6966CF" stroke-width="0.547241" stroke-miterlimit="10"/>
<path d="M32.6527 59.4858L32.1438 59.7266C31.9971 59.7961 31.8149 59.7452 31.7175 59.6155C31.2381 58.9747 30.7385 58.5593 30.1666 58.2074C30.0309 58.1237 29.9718 57.953 30.0232 57.8019L30.2706 57.0708C30.3313 56.8924 30.2378 56.6976 30.0605 56.6336L28.5747 56.0951C28.3968 56.0305 28.2004 56.1208 28.1336 56.2976L27.8573 57.0276C27.8025 57.1726 27.6575 57.2667 27.5038 57.2498C26.8279 57.1759 26.0437 57.2503 25.3788 57.3931C25.2239 57.4265 25.004 57.3751 24.9366 57.2322L24.6127 56.5487C24.5311 56.3764 24.3949 56.123 24.2225 56.2045L22.7887 56.8837C22.6163 56.9657 22.5501 57.3143 22.6322 57.4867L22.9562 58.1702C23.0257 58.3174 23.0054 58.4789 22.8785 58.5812C22.3679 58.9927 21.9383 59.482 21.5815 60.0336C21.4928 60.1709 21.3298 60.2295 21.1765 60.1726L20.493 59.917C20.3119 59.8503 20.1127 59.9433 20.0487 60.1255L19.5315 61.5921C19.4691 61.7683 19.5589 61.9621 19.7329 62.0294L20.4815 62.3194C20.6288 62.3763 20.7207 62.5263 20.6999 62.6828C20.6101 63.3493 20.6211 64.0033 20.8137 64.7809C20.8531 64.9385 20.7771 65.112 20.6304 65.1815L19.9901 65.4846C19.8177 65.5667 19.6886 65.7741 19.7707 65.9465L20.4498 67.3803C20.5313 67.5527 20.7557 67.5467 20.9286 67.4651L21.5651 67.1636C21.7068 67.0963 21.8918 67.1608 21.9908 67.2823C22.3947 67.777 22.9173 68.2646 23.4864 68.6346C23.6205 68.7221 23.6763 68.9005 23.6194 69.0505L23.3901 69.6617C23.3212 69.8434 23.4164 70.0481 23.5997 70.1127L25.0423 70.6189C25.2256 70.6829 25.4259 70.5844 25.4855 70.3994L25.6825 69.7925C25.734 69.6338 25.8921 69.5392 26.0579 69.5583C26.7299 69.6371 27.3948 69.6136 28.045 69.479C28.2042 69.4461 28.341 69.5326 28.4105 69.6793L28.7214 70.3349C28.8029 70.5072 29.0295 70.4968 29.2018 70.4147L30.6351 69.7356C30.8074 69.6541 30.7834 69.5693 30.7013 69.3963L30.391 68.7413C30.3231 68.599 30.4227 68.3965 30.5459 68.2975C31.0822 67.8662 31.6283 67.3026 32.0065 66.7138C32.0913 66.5819 32.2746 66.5217 32.4224 66.5731L33.0856 66.7975C33.2646 66.8599 33.4643 66.7646 33.5289 66.5862L34.0559 65.1246C34.1226 64.9396 34.0225 64.736 33.8348 64.6769L33.252 64.4936C33.0966 64.4449 32.9937 64.2939 33.0117 64.1324C33.0856 63.4588 33.0347 62.732 32.9078 62.1076C32.8766 61.9539 32.9439 61.7705 33.0856 61.7032L33.5907 61.4641C33.7631 61.382 33.7341 61.2961 33.6526 61.1231L32.9734 59.6894C32.8919 59.5192 32.8257 59.4042 32.6527 59.4858ZM28.1823 66.4111C26.5204 67.1986 24.5339 66.4899 23.7464 64.8274C22.9589 63.1649 23.6676 61.179 25.3301 60.3915C26.9926 59.604 28.9786 60.3127 29.766 61.9752C30.5535 63.6377 29.8443 65.6237 28.1823 66.4111Z" fill="#A7D8EB"/>
<path d="M29.1719 167.488H190.517" stroke="#110809" stroke-width="1.09448" stroke-miterlimit="10"/>
<path d="M209.075 115.594C209.851 114.646 210.209 113.458 210.084 112.249C209.981 111.256 209.453 110.259 208.469 109.208L205.959 83.5273L199.449 84.201L201.954 109.826C201.188 110.726 200.84 111.911 200.973 113.189C201.092 114.34 201.633 115.347 202.428 116.074C203.36 116.927 204.642 117.394 205.998 117.253C207.208 117.129 208.301 116.539 209.075 115.594ZM204.629 114.16C204.324 113.97 204.092 113.582 204.027 113.234C203.961 112.875 204.049 112.566 204.206 112.257C204.17 112.327 204.135 112.398 204.099 112.468C204.101 112.461 204.103 112.455 204.105 112.449C204.305 111.822 204.944 111.462 205.574 111.48C206.166 111.497 206.835 112.048 206.888 112.655C206.889 112.663 206.89 112.67 206.891 112.678C206.913 112.936 206.894 113.166 206.825 113.39C206.828 113.39 206.831 113.39 206.834 113.39C206.828 113.41 206.815 113.431 206.807 113.452C206.77 113.555 206.725 113.657 206.662 113.759C206.647 113.783 206.626 113.801 206.609 113.823C206.201 114.492 205.229 114.533 204.629 114.16Z" fill="white" stroke="#226579" stroke-width="0.547241" stroke-miterlimit="10"/>
<path d="M201.422 84.1289L203.927 109.753" stroke="#226579" stroke-width="0.547241" stroke-miterlimit="10"/>
<path d="M203.973 83.8359L206.478 109.461" stroke="#226579" stroke-width="0.547241" stroke-miterlimit="10"/>
<path d="M208.097 80.7955C207.786 77.7824 205.363 75.4687 202.339 75.2952L201.346 75.2383L203.966 80.1596L200.041 82.2484L197.378 77.2445L196.86 78.0243C196.071 79.2096 195.717 80.6428 195.865 82.0607C196.021 83.5717 196.712 84.9425 197.824 85.9593C197.915 86.0425 198.008 86.1229 198.104 86.2006C199.379 87.2365 200.98 87.7137 202.614 87.5446C205.985 87.1955 208.445 84.1676 208.097 80.7955Z" fill="white" stroke="#226579" stroke-width="0.547241" stroke-miterlimit="10"/>
<path d="M217.498 110.291L215.145 89.6062L216.416 89.56L218.769 110.244L217.498 110.291Z" fill="#226579" stroke="#226579" stroke-width="0.547241"/>
<path d="M210.92 74.5908C210.96 74.5349 211.001 74.4797 211.045 74.4255C211.638 73.6769 212.481 73.2073 213.416 73.1034C215.365 72.8867 217.145 74.3461 217.384 76.3556L219.855 96.9937L213.075 97.8961L210.266 77.2055C210.154 76.2664 210.385 75.346 210.92 74.5908Z" fill="white" stroke="#226579" stroke-width="0.547241" stroke-miterlimit="10"/>
<path d="M213.711 107.726L216.647 104.035L218.3 104.089L221.563 106.783L220.597 115.377L216.088 115.85L213.711 107.726Z" fill="white" stroke="#226579" stroke-width="0.547241" stroke-miterlimit="10"/>
<path d="M214.693 92.3742L212.25 73.4062" stroke="#226579" stroke-width="0.547241" stroke-miterlimit="10"/>
<path d="M217.053 92.1047L214.609 73.1367" stroke="#226579" stroke-width="0.547241" stroke-miterlimit="10"/>
<path d="M219.654 95.3242L212.711 95.9798" stroke="#226579" stroke-width="0.547241" stroke-miterlimit="10"/>
<path d="M219.715 113.036L220.088 108.285" stroke="#226579" stroke-width="0.547241" stroke-miterlimit="10"/>
<path d="M214.701 168.293C215.221 170.537 212.918 171.689 212.918 175.143L214.701 168.293Z" fill="#6966CF"/>
<path d="M189.647 176.716H29.6983C29.4072 176.716 29.1719 176.48 29.1719 176.189V168.015C29.1719 167.724 29.4077 167.488 29.6983 167.488H189.647C189.937 167.488 190.173 167.724 190.173 168.015V176.189C190.174 176.48 189.938 176.716 189.647 176.716Z" fill="#A7D8EB"/>
<path d="M189.355 178.86V166.82" stroke="#38E9B1" stroke-width="1.64172" stroke-miterlimit="10"/>
<path d="M41.7183 194.427H38.8136C31.5621 194.427 25.6836 188.548 25.6836 181.297V169.866C25.6836 168.171 27.0577 166.797 28.7525 166.797H41.7183C48.9698 166.797 54.8482 172.675 54.8482 179.927V181.297C54.8482 188.548 48.9703 194.427 41.7183 194.427Z" fill="#6966CF"/>
<path d="M40.2748 188.016H39.5181C35.5107 188.016 32.2617 184.767 32.2617 180.759V180.003C32.2617 175.995 35.5107 172.746 39.5181 172.746H40.2748C44.2822 172.746 47.5312 175.995 47.5312 180.003V180.759C47.5312 184.767 44.2822 188.016 40.2748 188.016Z" fill="#37C4EE"/>
<path d="M61.2031 171.976V167.52" stroke="#110809" stroke-width="1.09448" stroke-miterlimit="10"/>
<path d="M65.2305 170.603V167.52" stroke="#110809" stroke-width="0.547241" stroke-miterlimit="10"/>
<path d="M69.2617 170.603V167.52" stroke="#110809" stroke-width="0.547241" stroke-miterlimit="10"/>
<path d="M73.293 170.603V167.52" stroke="#110809" stroke-width="0.547241" stroke-miterlimit="10"/>
<path d="M77.3203 170.603V167.52" stroke="#110809" stroke-width="0.547241" stroke-miterlimit="10"/>
<path d="M81.3516 171.976V167.52" stroke="#110809" stroke-width="1.09448" stroke-miterlimit="10"/>
<path d="M85.3828 170.603V167.52" stroke="#110809" stroke-width="0.547241" stroke-miterlimit="10"/>
<path d="M89.4102 170.603V167.52" stroke="#110809" stroke-width="0.547241" stroke-miterlimit="10"/>
<path d="M93.4414 170.603V167.52" stroke="#110809" stroke-width="0.547241" stroke-miterlimit="10"/>
<path d="M97.4727 170.603V167.52" stroke="#110809" stroke-width="0.547241" stroke-miterlimit="10"/>
<path d="M101.5 171.976V167.52" stroke="#110809" stroke-width="1.09448" stroke-miterlimit="10"/>
<path d="M105.531 170.603V167.52" stroke="#110809" stroke-width="0.547241" stroke-miterlimit="10"/>
<path d="M109.566 170.603V167.52" stroke="#110809" stroke-width="0.547241" stroke-miterlimit="10"/>
<path d="M113.598 170.603V167.52" stroke="#110809" stroke-width="0.547241" stroke-miterlimit="10"/>
<path d="M117.629 170.603V167.52" stroke="#110809" stroke-width="0.547241" stroke-miterlimit="10"/>
<path d="M121.656 171.976V167.52" stroke="#110809" stroke-width="1.09448" stroke-miterlimit="10"/>
<path d="M125.688 170.603V167.52" stroke="#110809" stroke-width="0.547241" stroke-miterlimit="10"/>
<path d="M129.719 170.603V167.52" stroke="#110809" stroke-width="0.547241" stroke-miterlimit="10"/>
<path d="M133.746 170.603V167.52" stroke="#110809" stroke-width="0.547241" stroke-miterlimit="10"/>
<path d="M137.781 170.603V167.52" stroke="#110809" stroke-width="0.547241" stroke-miterlimit="10"/>
<path d="M141.809 171.976V167.52" stroke="#110809" stroke-width="1.09448" stroke-miterlimit="10"/>
<path d="M145.836 170.603V167.52" stroke="#110809" stroke-width="0.547241" stroke-miterlimit="10"/>
<path d="M149.871 170.603V167.52" stroke="#110809" stroke-width="0.547241" stroke-miterlimit="10"/>
<path d="M153.898 170.603V167.52" stroke="#110809" stroke-width="0.547241" stroke-miterlimit="10"/>
<path d="M157.93 170.603V167.52" stroke="#110809" stroke-width="0.547241" stroke-miterlimit="10"/>
<path d="M161.965 171.976V167.52" stroke="#110809" stroke-width="1.09448" stroke-miterlimit="10"/>
<path d="M165.992 170.603V167.52" stroke="#110809" stroke-width="0.547241" stroke-miterlimit="10"/>
<path d="M170.023 170.603V167.52" stroke="#110809" stroke-width="0.547241" stroke-miterlimit="10"/>
<path d="M174.055 170.603V167.52" stroke="#110809" stroke-width="0.547241" stroke-miterlimit="10"/>
<path d="M178.082 170.603V167.52" stroke="#110809" stroke-width="0.547241" stroke-miterlimit="10"/>
<path d="M39.8975 186.147C42.9543 186.147 45.4316 183.669 45.4316 180.612C45.4316 177.555 42.9543 175.078 39.8975 175.078C36.8411 175.078 34.3633 177.555 34.3633 180.612C34.3633 183.669 36.8411 186.147 39.8975 186.147Z" fill="#6966CF"/>
<path d="M8.78125 190.637C10.1554 190.51 11.5519 190.634 12.8823 191C13.4957 188.72 14.0578 186.424 14.5683 184.118C14.9049 182.598 14.6942 181.203 12.9518 180.905C11.8945 180.724 10.9434 181.082 10.3617 181.963C8.95308 184.096 8.86662 188.203 8.78125 190.637Z" fill="#ED926E"/>
<path d="M19.5519 193.087C19.0019 194.428 17.3667 194.163 16.1869 194.163C14.4291 194.162 12.6714 194.099 10.918 193.973C9.72231 193.888 7.89179 193.547 8.23819 191.978C8.38923 191.294 8.54082 190.609 8.69185 189.925C8.72797 189.761 8.792 189.567 8.95563 189.527C9.01309 189.512 9.07328 189.521 9.13184 189.53C9.7546 189.629 10.4545 189.906 11.0893 189.756C11.6869 189.616 12.3146 189.354 12.8963 189.141C13.038 189.089 13.1918 189.035 13.3368 189.078C13.6854 189.183 13.7889 189.587 14.0597 189.804C14.3722 190.055 14.769 190.189 15.1449 190.312C16.2356 190.669 17.2956 190.939 18.4295 191.107C19.258 191.23 19.872 191.995 19.6339 192.849C19.6093 192.933 19.582 193.012 19.5519 193.087Z" fill="#38E9B1"/>
<path d="M35.9023 163.945C37.2765 163.818 38.673 163.942 40.0035 164.309C40.6169 162.028 41.179 159.733 41.6895 157.426C42.0261 155.907 41.8154 154.511 40.073 154.214C39.0156 154.033 38.0645 154.39 37.4828 155.271C36.0742 157.406 35.9877 161.512 35.9023 163.945Z" fill="#ED926E"/>
<path d="M46.5347 166.159C46.5019 166.57 46.2693 166.969 45.8528 167.195C45.1152 167.596 44.1181 167.476 43.312 167.475C41.5543 167.475 39.7965 167.412 38.0432 167.286C36.8474 167.2 35.0164 166.86 35.3633 165.291C35.5143 164.607 35.6659 163.922 35.817 163.238C35.8531 163.073 35.9171 162.879 36.0807 162.839C36.1382 162.825 36.1984 162.833 36.257 162.843C37.3241 163.013 38.2276 163.532 39.269 163.01C39.6247 162.832 39.959 162.57 40.3563 162.544C40.8193 162.514 41.0907 163.166 41.4415 163.434C41.9236 163.802 42.5103 164.029 43.0821 164.214C43.7777 164.439 44.4869 164.62 45.2054 164.755C45.4347 164.798 45.6695 164.838 45.8731 164.951C46.3585 165.222 46.5714 165.699 46.5347 166.159Z" fill="#38E9B1"/>
<path d="M24.8842 142.743C25.6843 143.025 26.4739 143.399 26.9987 143.514C30.6904 144.319 34.6645 143.886 38.0508 142.188C39.565 141.429 40.9913 140.406 41.9342 138.998C42.7485 137.782 43.8337 135.809 43.0911 134.336C42.3403 132.847 39.7593 132.389 38.3332 131.932C36.4288 131.322 34.4954 130.801 32.5417 130.372C28.1239 129.403 23.8422 130.767 19.4534 129.763C16.455 129.077 13.5705 128.102 10.842 126.668C10.8874 126.692 8.70444 132.568 8.57037 133.101C7.88249 135.838 7.69642 138.764 8.69459 141.451C8.95289 142.146 9.2878 142.822 9.40382 143.554C9.52859 144.34 9.39397 145.141 9.28452 145.93C8.7225 149.962 8.81006 154.085 9.54282 158.091C9.79291 159.457 9.93628 160.944 10.2964 162.28C10.6012 163.411 11.485 164.424 11.1829 165.692C11.1134 165.983 10.9832 166.257 10.8693 166.535C10.4808 167.481 10.2772 168.503 10.2723 169.526C10.269 170.184 10.3478 170.841 10.31 171.497C10.2805 172.016 10.1793 172.528 10.078 173.037C9.19641 177.485 8.08551 181.728 8.01054 186.293C8.00835 186.436 16.3505 187.826 16.9251 187.275C17.683 186.548 17.8275 184.22 18.0743 183.226C18.4169 181.844 18.7502 180.459 19.0741 179.072C19.7374 176.232 20.3607 173.383 20.944 170.526C21.8645 166.017 23.1341 161.324 22.8178 156.688C22.6219 153.812 22.4763 150.934 22.4041 148.052C22.3723 146.777 21.4004 143.775 22.3658 142.769C22.9152 142.194 23.9079 142.4 24.8842 142.743Z" fill="#6966CF"/>
<path d="M45.1911 146.863C45.1583 146.651 45.1331 146.439 45.1184 146.226C45.0746 145.594 45.1704 144.961 45.2338 144.33C45.4932 141.747 45.2092 139.111 44.4053 136.643C43.9018 135.096 43.1423 133.81 41.6872 133.014C40.2594 132.233 38.3973 132.433 37.0417 133.273C35.6386 134.142 34.2344 135.938 33.9378 137.6C33.6001 139.493 33.7862 141.472 33.8179 143.386C33.8283 144 33.8218 144.613 33.7988 145.226C33.7326 146.998 34.5633 148.353 34.7647 150.047C35.0038 152.054 34.9622 154.282 34.8938 156.305C34.8834 156.617 34.8238 157.196 34.7532 157.908C34.7264 158.175 34.9403 158.408 35.209 158.399C36.993 158.337 42.9557 158.379 44.7309 158.476C44.9679 158.489 45.172 158.312 45.195 158.075L45.7012 152.974C45.821 151.768 45.9841 150.472 45.7236 149.272C45.5534 148.482 45.317 147.676 45.1911 146.863Z" fill="#6966CF"/>
<path d="M13.4084 114.265C13.6546 113.383 13.9605 112.518 14.2911 111.664C15.0632 109.671 15.9935 107.698 17.4251 106.111C20.2757 102.951 25.341 102.116 27.9721 106.053C29.3665 108.139 28.822 111.158 28.4903 113.482C27.8238 118.156 27.1578 122.83 26.4913 127.503C26.2215 129.395 25.712 130.999 23.702 131.341C22.0827 131.617 20.4612 131.893 18.831 132.096C16.9884 132.326 12.7292 133.444 11.557 131.515C10.1736 129.239 10.9206 127.044 11.3775 124.606C11.8301 122.192 12.1475 119.702 12.7429 117.32C12.9208 116.372 13.0986 115.423 13.3465 114.492C13.3668 114.416 13.3876 114.34 13.4084 114.265Z" fill="#6966CF"/>
<path d="M25.0428 131.104C25.3503 131.282 25.6606 131.454 25.9682 131.622C28.0373 132.749 30.1693 133.757 32.3353 134.683C34.0487 135.416 35.6751 136.505 37.5385 136.826C39.1928 137.112 41.2847 136.934 42.4946 135.619C42.817 135.268 43.0687 134.798 42.9789 134.331C42.8897 133.864 42.3283 133.491 41.9167 133.731C41.8029 133.797 41.7148 133.899 41.6152 133.986C41.1949 134.35 40.5963 134.422 40.0414 134.391C39.4867 134.36 38.9329 134.244 38.3796 134.297C38.1793 134.316 37.9746 134.357 37.7787 134.311C37.573 134.262 37.4022 134.124 37.2391 133.99C35.9652 132.942 34.5215 131.936 33.4889 130.637C33.0478 130.082 32.7288 129.441 32.3337 128.852C31.6978 127.904 30.861 127.09 29.8952 126.48C28.0028 125.286 27.3308 123.606 26.4065 121.632C26.1214 121.023 25.8341 120.409 25.6721 119.756C25.4636 118.917 25.4685 118.04 25.3361 117.185C25.1473 115.964 24.6811 114.802 24.1497 113.686C23.6681 112.673 23.1154 111.668 22.2929 110.906C21.4709 110.143 20.3327 109.65 19.2272 109.836C17.8553 110.068 16.821 111.3 16.4232 112.634C16.0253 113.968 16.1474 115.395 16.3088 116.777C16.4642 118.107 16.6629 119.465 17.2895 120.648C17.8903 121.784 18.767 122.753 19.4035 123.872C20.0093 124.935 20.3343 126.087 20.8629 127.192C21.7013 128.944 23.3387 130.119 25.0428 131.104Z" fill="#ED926E"/>
<path d="M37.9063 84.8111C38.0683 84.515 38.2133 84.214 38.3359 83.9141C38.6221 83.2115 38.801 82.4141 39.8315 82.6352C40.5692 82.7934 40.9188 83.6646 40.9243 84.4192C40.9314 85.3539 40.5954 86.1688 40.2835 87.023C39.9683 87.8866 39.9426 88.9236 39.7609 89.8353C39.542 90.933 39.2602 92.0576 38.5772 92.9447C38.071 93.6025 37.3634 94.1016 36.9426 94.8174C36.6832 95.259 36.5469 95.7608 36.4134 96.2555C35.9548 97.9558 35.7682 99.8088 35.1334 101.501C34.4674 103.275 33.5836 104.996 32.4612 106.526C31.688 107.579 30.8179 108.709 29.5888 109.236C29.0683 109.459 28.503 109.56 27.9383 109.611C27.1984 109.678 26.3808 109.635 25.8243 109.144C24.8551 108.289 24.8026 106.566 25.0532 105.412C25.4045 103.798 26.1083 102.261 27.1015 100.942C27.7861 100.031 28.5151 99.1482 29.2292 98.271C30.0835 97.2214 30.7637 96.0514 31.6688 95.0302C32.0535 94.5957 32.4601 94.1661 32.7069 93.6413C32.9193 93.1899 33.0024 92.6908 33.1223 92.2065C33.4857 90.7322 34.2058 89.3477 35.2035 88.2034C35.6697 87.6682 36.1951 87.1861 36.6509 86.6416C37.1089 86.0943 37.5489 85.4645 37.9063 84.8111Z" fill="#ED926E"/>
<path d="M29.46 103.46C29.4086 103.403 29.3566 103.346 29.3051 103.289C28.5083 102.409 27.7083 101.292 26.8245 100.555C25.9993 101.927 25.2556 103.357 24.4752 104.756C24.2016 105.247 23.9263 105.742 23.7556 106.277C23.0453 108.502 24.1118 111.351 25.3202 113.232C25.7295 113.878 26.6242 115.05 27.531 114.709C28.4039 114.38 28.9511 112.538 29.3522 111.773C29.8404 110.843 30.3307 109.909 30.9349 109.05C31.2993 108.531 31.7672 108.097 32.1393 107.591C32.4709 107.141 32.542 107.011 32.2077 106.494C31.5006 105.4 30.3362 104.428 29.46 103.46Z" fill="#6966CF"/>
<path d="M20.7566 101.598C21.0226 100.743 21.23 99.8648 21.3197 98.906C21.4188 97.8427 21.4177 96.7471 21.8068 95.7528C22.4082 94.215 24.5572 93.2174 26.1321 93.5961C28.3474 94.1291 27.6808 97.8504 27.4756 99.508C27.3755 100.317 26.7648 100.891 26.3335 101.561C25.6161 102.677 25.517 104.518 25.4087 105.826C25.3961 105.976 25.3824 106.137 25.2894 106.255C25.1816 106.393 24.9966 106.439 24.8259 106.477C23.9322 106.673 23.0287 106.871 22.1143 106.855C20.9093 106.835 19.0164 106.416 19.5784 104.858C19.9855 103.732 20.4184 102.684 20.7566 101.598Z" fill="#ED926E"/>
<path d="M26.8377 90.9867C26.8148 90.9856 26.7912 90.9845 26.7677 90.9845C25.9665 90.9747 25.2234 91.4792 24.7708 92.1397C24.6964 92.2486 24.6236 92.3658 24.5081 92.4298C24.4003 92.4894 24.2712 92.4927 24.1481 92.5009C23.2084 92.5633 22.2989 93.0011 21.6641 93.6966C21.043 94.3769 20.7628 95.2158 20.6993 96.1204C20.6621 96.6479 20.6687 97.0633 20.7995 97.5635C20.8936 97.9235 20.8635 98.155 20.9117 98.479C21.0479 99.3907 21.8332 99.3272 22.3055 98.5594C22.5714 98.1277 22.734 97.6423 22.9189 97.1705C23.1537 96.5713 23.447 95.9622 23.9609 95.5748C24.4534 95.2032 25.086 95.0823 25.6956 94.9843C26.3053 94.8864 26.9368 94.7939 27.4583 94.4639C28.8204 93.602 28.6825 91.0923 26.8377 90.9867Z" fill="#6966CF"/>
<path d="M23.6454 96.9304C23.404 96.4521 22.8371 96.2737 22.3594 96.5216C21.817 96.8029 21.5144 97.574 21.6299 98.1606C21.7317 98.6794 22.2619 99.0531 22.7364 98.7571C22.9531 98.6991 23.16 98.5754 23.3105 98.4167C23.6787 98.0282 23.902 97.4382 23.6454 96.9304Z" fill="#ED926E"/>
<path d="M26.6071 98.7485C26.3899 98.8033 26.2394 98.9532 26.0008 98.8492C25.7786 98.7524 25.5821 99.0594 25.8054 99.183C26.1026 99.3483 26.6493 99.3888 26.8101 99.0129C26.8698 98.8733 26.7718 98.7075 26.6071 98.7485Z" fill="#6966CF"/>
<path d="M22.7646 97.5408C22.7071 97.2743 22.3301 97.3947 22.3656 97.6508C22.3952 97.8637 22.3914 98.0465 22.5375 98.2106C22.6272 98.3119 22.7701 98.244 22.8122 98.1384C22.8883 97.943 22.8073 97.7395 22.7646 97.5408Z" fill="#6966CF"/>
<path d="M23.4686 127.912C23.2875 127.832 23.0823 127.856 22.9132 127.746C22.7233 127.623 22.645 127.442 22.6363 127.223C22.6253 126.962 22.2685 126.916 22.1853 127.162C22.0693 127.508 22.2127 127.892 22.4633 128.143C22.697 128.377 23.1627 128.617 23.4686 128.383C23.6098 128.274 23.6788 128.003 23.4686 127.912Z" fill="#6966CF"/>
<path d="M22.0427 141.895C21.4058 141.222 20.5499 140.807 19.6387 140.639C18.9475 140.512 18.2515 140.612 17.5586 140.685C17.4952 140.825 17.4284 140.963 17.3633 141.102C17.8821 141.045 18.3998 140.962 18.9235 140.985C20.0842 141.034 20.9182 141.533 21.8435 142.152C22.0028 142.259 22.1675 142.027 22.0427 141.895Z" fill="white"/>
<path d="M15.0232 112.911C14.8935 115.278 15.4391 117.624 15.9809 119.932C17.0229 118.934 18.4555 118.478 19.834 118.054C21.287 117.606 22.7404 117.158 24.1934 116.71C24.6071 116.583 25.0821 116.395 25.1943 115.977C25.2331 115.833 25.2205 115.68 25.2047 115.532C24.8681 112.359 23.008 109.411 20.3687 107.64C18.7828 106.575 17.8957 106.306 16.6852 107.935C15.6274 109.359 15.119 111.155 15.0232 112.911Z" fill="#6966CF"/>
<path d="M22.1156 109.232C22.0285 109.167 21.9361 109.303 22.0039 109.377C22.8171 110.264 23.528 111.176 24.044 112.269C24.6159 113.481 24.8961 114.779 25.3837 116.018C25.4242 116.121 25.5676 116.082 25.5484 115.972C25.1407 113.6 24.1146 110.722 22.1156 109.232Z" fill="white"/>
<path d="M26.6503 100.528C26.5452 100.543 26.3892 100.582 26.2918 100.567C26.2087 100.553 26.1403 100.671 26.2295 100.714C26.4221 100.81 26.5759 100.836 26.7444 100.69C26.8259 100.619 26.7346 100.516 26.6503 100.528Z" fill="#6966CF"/>
<path d="M40.8947 134.123H39.19C38.6964 134.123 38.2969 133.723 38.2969 133.229V75.2368C38.2969 74.7432 38.6969 74.3438 39.19 74.3438H40.8947C41.3884 74.3438 41.7878 74.7438 41.7878 75.2368V133.23C41.7884 133.723 41.3884 134.123 40.8947 134.123Z" fill="white" stroke="#6966CF" stroke-width="0.547241" stroke-miterlimit="10"/>
<path d="M40.9604 126.547H38.1562" stroke="#110809" stroke-width="1.09448" stroke-miterlimit="10"/>
<path d="M40.0968 124.012H38.1562" stroke="#110809" stroke-width="0.547241" stroke-miterlimit="10"/>
<path d="M40.0968 121.477H38.1562" stroke="#110809" stroke-width="0.547241" stroke-miterlimit="10"/>
<path d="M40.0968 118.938H38.1562" stroke="#110809" stroke-width="0.547241" stroke-miterlimit="10"/>
<path d="M40.0968 116.406H38.1562" stroke="#110809" stroke-width="0.547241" stroke-miterlimit="10"/>
<path d="M40.9604 113.879H38.1562" stroke="#110809" stroke-width="1.09448" stroke-miterlimit="10"/>
<path d="M40.0968 111.344H38.1562" stroke="#110809" stroke-width="0.547241" stroke-miterlimit="10"/>
<path d="M40.0968 108.809H38.1562" stroke="#110809" stroke-width="0.547241" stroke-miterlimit="10"/>
<path d="M40.0968 106.273H38.1562" stroke="#110809" stroke-width="0.547241" stroke-miterlimit="10"/>
<path d="M40.0968 103.734H38.1562" stroke="#110809" stroke-width="0.547241" stroke-miterlimit="10"/>
<path d="M40.9604 101.211H38.1562" stroke="#110809" stroke-width="1.09448" stroke-miterlimit="10"/>
<path d="M40.0968 98.6758H38.1562" stroke="#110809" stroke-width="0.547241" stroke-miterlimit="10"/>
<path d="M40.0968 96.1406H38.1562" stroke="#110809" stroke-width="0.547241" stroke-miterlimit="10"/>
<path d="M40.0968 93.6016H38.1562" stroke="#110809" stroke-width="0.547241" stroke-miterlimit="10"/>
<path d="M40.0968 91.0703H38.1562" stroke="#110809" stroke-width="0.547241" stroke-miterlimit="10"/>
<path d="M40.9604 88.5508H38.1562" stroke="#110809" stroke-width="1.09448" stroke-miterlimit="10"/>
<path d="M40.0968 86.0078H38.1562" stroke="#110809" stroke-width="0.547241" stroke-miterlimit="10"/>
<path d="M40.0968 83.4805H38.1562" stroke="#110809" stroke-width="0.547241" stroke-miterlimit="10"/>
<path d="M40.0968 80.9375H38.1562" stroke="#110809" stroke-width="0.547241" stroke-miterlimit="10"/>
<path d="M40.0968 78.4023H38.1562" stroke="#110809" stroke-width="0.547241" stroke-miterlimit="10"/>
<path d="M40.9376 81.7458C41.0333 82.2738 41.1619 82.7959 41.3223 83.3081C41.3568 83.4187 41.3951 83.532 41.4711 83.6195C41.5992 83.7667 41.8175 83.8116 42.008 83.7684C42.1984 83.7251 42.3631 83.6069 42.5038 83.4712C43.0521 82.9426 43.2765 82.1474 43.2726 81.3857C43.2694 80.7169 42.9514 79.2996 41.9872 79.6646C41.1871 79.9678 40.7997 80.9845 40.9376 81.7458Z" fill="#ED926E"/>
<path d="M36.7194 93.2272C36.5717 93.2994 36.4299 93.3837 36.2718 93.4302C35.9806 93.5156 36.1032 93.967 36.3971 93.8855C36.645 93.8165 36.842 93.7082 36.9777 93.4855C37.0828 93.3147 36.8808 93.1484 36.7194 93.2272Z" fill="#6966CF"/>
<path d="M234.985 197.539C235.017 197.56 235.049 197.581 235.081 197.603C235.217 197.695 235.35 197.795 235.446 197.928C235.559 198.085 235.614 198.276 235.661 198.464C235.924 199.508 236.026 200.642 235.752 201.694C235.443 202.883 234.903 203.748 235.539 204.998C236.385 206.66 237.768 205.556 238.442 204.439C239.157 203.253 239.231 201.911 239.818 200.621C240.489 199.146 241.039 197.616 241.46 196.051C241.545 195.736 241.622 195.388 241.481 195.093C241.371 194.864 241.149 194.712 240.934 194.577C239.324 193.561 237.522 192.969 235.739 192.338C235.06 192.098 234.579 191.778 233.933 192.179C233.148 192.665 232.131 194.537 232.445 195.454C232.634 196.003 233.088 196.42 233.577 196.732C234.032 197.024 234.53 197.247 234.985 197.539Z" fill="#37C4EE"/>
<path d="M234.215 190.605C231.342 188.987 226.86 187.211 226.16 186.953C225.023 186.531 223.656 186.458 222.436 186.131C222.668 185.35 223.236 184.673 223.666 183.96C224.453 182.653 224.43 181.454 224.657 180.022C224.843 178.846 225.597 177.959 226.263 176.975C227.746 174.781 228.475 172.173 228.525 169.528C228.576 166.817 227.914 164.066 226.619 161.681C224.418 157.625 218.94 152.275 213.923 155.437C209.589 158.17 213.648 164.532 213.545 168.292C213.486 170.465 212.258 172.428 211.821 174.558C211.364 176.788 211.84 178.959 211.614 181.165C211.503 182.248 211.176 183.285 210.84 184.319C210.022 185.999 209.696 188.39 209.65 189.669C209.631 190.191 209.656 190.722 209.809 191.222C210.1 192.172 210.827 192.925 211.601 193.547C213.526 195.097 216.854 195.812 219.194 196.731C223.429 198.393 227.914 199.583 232.241 200.989C234.145 198.526 235.634 195.743 236.626 192.792C236.802 192.271 235.733 191.46 234.215 190.605Z" fill="#6966CF"/>
<path d="M196.127 141.117C194.901 141.394 193.655 142.356 192.758 143.026C191.329 144.094 190.138 145.421 188.826 146.617C188.759 146.686 188.689 146.753 188.623 146.823C188.542 146.906 188.461 146.993 188.383 147.082C188.46 147.267 188.538 147.45 188.615 147.635C190.33 150.34 192.205 152.938 194.047 155.558C196.47 152.831 198.029 149.336 198.382 145.701C198.43 145.207 198.394 144.505 198.265 143.773C198.192 143.599 198.112 143.429 198.016 143.266C197.534 142.44 196.777 141.823 196.127 141.117Z" fill="#6966CF"/>
<path d="M210.458 165.566C211.764 164.771 213.045 163.929 214.344 163.151C217.403 161.319 220.271 159.194 223.291 157.301C220.253 152.711 216.695 148.438 213.732 143.77C213.013 142.646 212.303 141.512 211.449 140.487C210.291 139.099 208.84 137.907 207.134 137.312C205.428 136.717 203.228 137.117 201.473 137.398C199.486 137.716 197.53 138.515 196.107 139.974C195.611 140.484 195.189 141.06 194.771 141.635C192.698 144.483 192.083 146.976 193.88 150.151C194.846 151.859 196.059 153.414 197.266 154.961C198.003 155.906 205.195 164.163 206.661 167.518C207.927 166.868 209.193 166.219 210.458 165.566Z" fill="#6966CF"/>
<path d="M223.264 157.32C222.586 157.781 221.847 158.144 221.111 158.505C217.115 160.457 213.092 162.353 209.043 164.192" fill="#6966CF"/>
<path d="M208.89 144.406C211.973 144.423 214.751 147.709 214.613 150.68C214.546 152.131 214.085 153.532 213.848 154.964C213.426 157.518 213.441 159.967 212.427 162.395C211.519 164.568 209.903 166.453 207.856 167.628C206.697 168.294 205.413 168.744 204.318 169.513C203.667 169.97 203.091 170.534 202.408 170.944C200.863 171.871 198.789 172.257 197.084 172.839C196.251 173.124 195.408 173.413 194.672 173.895C193.913 174.392 193.288 175.08 192.497 175.525C191.404 176.141 190.034 176.405 188.788 176.368C188.214 176.352 187.616 176.286 187.127 175.968C186.696 175.688 186.031 175.347 185.921 174.781C185.817 174.244 186.291 173.636 186.736 173.396C187.507 172.979 188.424 173.24 189.23 172.964C190.132 172.656 190.251 171.931 190.151 171.09C190.256 171.02 190.381 171.011 190.503 171.057C191.621 171.483 192.797 170.538 193.633 169.92C194.39 169.359 195.065 168.695 195.72 168.02C197.02 166.677 198.194 165.208 199.625 163.996C200.469 163.283 201.615 162.937 202.121 161.955C202.798 160.642 202.489 158.997 203.22 157.678C203.524 157.129 203.98 156.659 204.176 156.063C204.38 155.441 204.274 154.767 204.206 154.117C204.039 152.524 204.113 150.906 204.423 149.335C204.706 147.902 205.22 146.452 206.268 145.435C207.009 144.714 207.941 144.401 208.89 144.406Z" fill="#ED926E"/>
<path d="M203.772 152.761C204.353 152.939 205.076 152.794 205.79 152.766C208.94 152.643 212.072 152.065 215.057 151.05C215.429 150.924 213.974 145.356 213.794 144.816C213.06 142.627 211.851 141.408 210.456 139.693C209.105 138.032 206.932 136.784 204.861 137.328C202.905 137.842 201.623 139.83 201.316 141.828C201.009 143.827 201.482 145.854 201.952 147.82C202.251 149.071 202.339 151.016 202.983 152.121C203.188 152.474 203.459 152.664 203.772 152.761Z" fill="#6966CF"/>
<path d="M190.084 138.658C190.193 138.831 190.199 138.783 190.249 138.651C190.123 137.551 189.028 136.121 189.648 135.589C189.694 135.549 189.529 134.883 189.408 134.973C189.206 135.124 188.822 135.485 188.804 135.706C188.743 136.43 189.639 137.952 190.084 138.658Z" fill="#6966CF"/>
<path d="M198.771 140.354C198.287 139.368 197.562 138.436 197.018 137.564C196.203 136.259 195.678 133.677 193.895 133.324C193.217 133.19 192.254 133.658 191.613 133.924C191 134.249 189.57 134.304 189.258 134.92C189.033 135.366 189.316 136.658 189.797 137.81C189.783 137.815 189.767 137.817 189.753 137.824C189.449 137.967 189.355 138.405 189.542 138.802C189.73 139.199 190.127 139.405 190.431 139.261C190.471 139.243 190.507 139.219 190.547 139.203C190.688 139.398 191.141 140.028 191.307 140.202C192.097 141.041 192.985 141.458 193.908 141.288C193.988 141.273 194.743 142.809 194.833 142.964C195.102 143.43 195.321 143.884 195.883 144.021C196.439 144.157 197.021 144.23 197.584 144.126C198.147 144.022 198.692 143.722 198.996 143.237C199.276 142.791 199.33 142.23 199.238 141.711C199.156 141.248 198.988 140.796 198.771 140.354Z" fill="#ED926E"/>
<path d="M187.027 133.209C187.037 133.192 187.047 133.174 187.058 133.156C187.394 132.582 187.933 132.136 188.546 131.875C188.838 131.751 189.162 131.666 189.47 131.738C189.779 131.81 190.059 132.076 190.058 132.392C191.685 130.926 193.823 131.275 195.011 133.102C195.259 133.484 197.024 136.182 195.972 136.424C195.868 136.447 195.761 136.403 195.668 136.352C195.175 136.081 194.82 135.623 194.455 135.196C193.996 134.658 193.324 133.96 192.544 134.202C191.504 134.525 190.811 135.308 189.856 135.772C189.088 136.145 188.075 135.891 187.412 135.409C186.627 134.84 186.568 134.031 187.027 133.209Z" fill="#6966CF"/>
<path d="M195.751 135.233C195.525 135.083 195.238 135.095 195.019 135.232C194.758 135.274 194.599 135.674 194.619 135.918C194.648 136.273 194.859 136.677 195.21 136.803C196.146 137.139 196.428 135.684 195.751 135.233Z" fill="#ED926E"/>
<path d="M193.292 139.226C193.088 139.307 192.899 139.42 192.768 139.599C192.696 139.696 192.815 139.828 192.92 139.797C193.083 139.749 193.241 139.674 193.399 139.612C193.636 139.518 193.532 139.131 193.292 139.226Z" fill="#6966CF"/>
<path d="M194.518 140.703C194.307 140.81 194.15 141.013 193.947 141.141C193.81 141.228 193.896 141.478 194.063 141.417C194.342 141.314 194.635 141.171 194.753 140.883C194.81 140.743 194.628 140.648 194.518 140.703Z" fill="#6966CF"/>
<path d="M195.722 136.17C195.675 136.105 195.632 136.05 195.578 135.99C195.423 135.818 195.116 136.047 195.253 136.241C195.3 136.307 195.342 136.362 195.396 136.422C195.443 136.476 195.53 136.495 195.598 136.476C195.66 136.458 195.692 136.436 195.723 136.38C195.755 136.319 195.765 136.23 195.722 136.17Z" fill="#6966CF"/>
<path d="M190.285 138.561C190.321 138.294 189.946 138.239 189.918 138.511C189.898 138.706 189.946 138.874 190.14 138.937C190.228 138.966 190.301 138.89 190.308 138.809C190.315 138.733 190.276 138.626 190.285 138.561Z" fill="#6966CF"/>
<path d="M209.497 164.083C209.293 164.361 208.949 164.556 208.793 164.86C208.69 165.061 208.858 165.238 209.062 165.21C209.47 165.154 209.784 164.692 209.993 164.375C210.201 164.06 209.711 163.79 209.497 164.083Z" fill="#6966CF"/>
<path d="M184.572 161.362C184.379 161.534 184.216 161.685 183.943 161.692C183.686 161.699 183.686 162.085 183.943 162.093C184.342 162.105 184.736 161.928 184.884 161.544C184.956 161.357 184.699 161.25 184.572 161.362Z" fill="#6966CF"/>
<path d="M213.376 167.147C213.323 167.059 213.158 167.063 213.138 167.179C213.032 167.776 213.18 168.107 213.297 168.704C213.513 169.803 213.252 170.734 212.835 171.739C212.346 172.918 211.697 174.079 211.776 175.391C211.787 175.574 212.067 175.634 212.112 175.437C212.728 172.696 215.075 169.967 213.376 167.147Z" fill="white"/>
<path d="M204.36 145.439C204.382 145.334 204.224 145.25 204.175 145.361C203.189 147.58 203.585 150.513 204.214 152.788C204.235 152.866 204.367 152.854 204.36 152.768C204.14 150.151 203.802 148.057 204.36 145.439Z" fill="white"/>
<path d="M196.052 153.062C195.399 152.172 194.921 151.255 194.55 150.214C194.499 150.074 194.29 150.128 194.324 150.277C194.576 151.358 195.128 152.379 195.876 153.199C195.96 153.291 196.128 153.166 196.052 153.062Z" fill="white"/>
<path d="M213.888 146.953C213.832 146.84 213.639 146.919 213.682 147.04C214.135 148.317 214.533 149.583 214.723 150.929C214.737 151.026 214.904 151.004 214.896 150.905C214.775 149.538 214.491 148.194 213.888 146.953Z" fill="white"/>
<path d="M168.496 168.014C168.336 168.465 168.175 168.916 168.016 169.367C167.96 169.524 167.892 169.695 167.743 169.769C167.519 169.879 167.244 169.686 167.167 169.449C167.09 169.212 167.147 168.955 167.191 168.71C167.285 168.19 167.314 167.658 167.449 167.147C167.584 166.637 167.844 166.133 168.286 165.844C168.908 165.44 169.63 165.574 169.481 166.257C169.375 166.738 168.691 167.461 168.496 168.014Z" fill="#ED926E"/>
<path d="M8.15234 194.445H164.189" stroke="#110809" stroke-width="1.09448" stroke-miterlimit="10"/>
<path d="M72.4648 196.93H127.736" stroke="#110809" stroke-width="0.547241" stroke-miterlimit="10"/>
<path d="M160.836 206.023H242.106" stroke="#110809" stroke-width="1.09448" stroke-miterlimit="10"/>
<path d="M126.906 206.023H153.452" stroke="#110809" stroke-width="1.09448" stroke-miterlimit="10"/>
</g>
</g>
<defs>
<clipPath id="clip0_1643_33311">
<rect width="250" height="250" fill="white"/>
</clipPath>
</defs>
</svg>
