<svg width="239" height="274" viewBox="0 0 239 274" fill="none" xmlns="http://www.w3.org/2000/svg">
<g clip-path="url(#clip0_202_65)">
<rect x="-5" y="30.6666" width="41.6667" height="41.6667" rx="4.5977" stroke="#F0F0F0" stroke-width="0.431035"/>
<rect x="36.6667" y="30.6666" width="41.6667" height="41.6667" rx="4.5977" stroke="#F0F0F0" stroke-width="0.431035"/>
<rect x="78.3333" y="30.6666" width="41.6667" height="41.6667" rx="4.5977" stroke="#F0F0F0" stroke-width="0.431035"/>
<rect x="120" y="30.6666" width="41.6667" height="41.6667" rx="4.5977" stroke="#F0F0F0" stroke-width="0.431035"/>
<rect x="161.667" y="30.6666" width="41.6667" height="41.6667" rx="4.5977" stroke="#F0F0F0" stroke-width="0.431035"/>
<rect x="203.333" y="30.6666" width="41.6667" height="41.6667" rx="4.5977" stroke="#F0F0F0" stroke-width="0.431035"/>
<rect x="-5" y="72.3333" width="41.6667" height="41.6667" rx="4.5977" stroke="#F0F0F0" stroke-width="0.431035"/>
<rect x="36.6667" y="72.3333" width="41.6667" height="41.6667" rx="4.5977" stroke="#F0F0F0" stroke-width="0.431035"/>
<rect x="78.3333" y="72.3333" width="41.6667" height="41.6667" rx="4.5977" stroke="#F0F0F0" stroke-width="0.431035"/>
<rect x="120" y="72.3333" width="41.6667" height="41.6667" rx="4.5977" stroke="#F0F0F0" stroke-width="0.431035"/>
<rect x="161.667" y="72.3333" width="41.6667" height="41.6667" rx="4.5977" stroke="#F0F0F0" stroke-width="0.431035"/>
<rect x="203.333" y="72.3333" width="41.6667" height="41.6667" rx="4.5977" stroke="#F0F0F0" stroke-width="0.431035"/>
<rect x="-5" y="114" width="41.6667" height="41.6667" rx="4.5977" stroke="#F0F0F0" stroke-width="0.431035"/>
<rect x="36.6667" y="114" width="41.6667" height="41.6667" rx="4.5977" stroke="#F0F0F0" stroke-width="0.431035"/>
<rect x="78.3333" y="114" width="41.6667" height="41.6667" rx="4.5977" stroke="#F0F0F0" stroke-width="0.431035"/>
<rect x="120" y="114" width="41.6667" height="41.6667" rx="4.5977" stroke="#F0F0F0" stroke-width="0.431035"/>
<rect x="161.667" y="114" width="41.6667" height="41.6667" rx="4.5977" stroke="#F0F0F0" stroke-width="0.431035"/>
<rect x="203.333" y="114" width="41.6667" height="41.6667" rx="4.5977" stroke="#F0F0F0" stroke-width="0.431035"/>
<rect x="-5" y="156" width="41.6667" height="41.6667" rx="4.5977" stroke="#F0F0F0" stroke-width="0.431035"/>
<rect x="36.6667" y="156" width="41.6667" height="41.6667" rx="4.5977" stroke="#F0F0F0" stroke-width="0.431035"/>
<rect x="78.3333" y="156" width="41.6667" height="41.6667" rx="4.5977" stroke="#F0F0F0" stroke-width="0.431035"/>
<rect x="120" y="156" width="41.6667" height="41.6667" rx="4.5977" stroke="#F0F0F0" stroke-width="0.431035"/>
<rect x="161.667" y="156" width="41.6667" height="41.6667" rx="4.5977" stroke="#F0F0F0" stroke-width="0.431035"/>
<rect x="203.333" y="156" width="41.6667" height="41.6667" rx="4.5977" stroke="#F0F0F0" stroke-width="0.431035"/>
<rect x="-5" y="198" width="41.6667" height="41.6667" rx="4.5977" stroke="#F0F0F0" stroke-width="0.431035"/>
<rect x="36.6667" y="198" width="41.6667" height="41.6667" rx="4.5977" stroke="#F0F0F0" stroke-width="0.431035"/>
<rect x="78.3333" y="198" width="41.6667" height="41.6667" rx="4.5977" stroke="#F0F0F0" stroke-width="0.431035"/>
<rect x="120" y="198" width="41.6667" height="41.6667" rx="4.5977" stroke="#F0F0F0" stroke-width="0.431035"/>
<rect x="161.667" y="198" width="41.6667" height="41.6667" rx="4.5977" stroke="#F0F0F0" stroke-width="0.431035"/>
<rect x="203.333" y="198" width="41.6667" height="41.6667" rx="4.5977" stroke="#F0F0F0" stroke-width="0.431035"/>
<rect x="-5" y="239" width="41.6667" height="41.6667" rx="4.5977" stroke="#F0F0F0" stroke-width="0.431035"/>
<rect x="36.6667" y="239" width="41.6667" height="41.6667" rx="4.5977" stroke="#F0F0F0" stroke-width="0.431035"/>
<rect x="78.3333" y="239" width="41.6667" height="41.6667" rx="4.5977" stroke="#F0F0F0" stroke-width="0.431035"/>
<rect x="120" y="239" width="41.6667" height="41.6667" rx="4.5977" stroke="#F0F0F0" stroke-width="0.431035"/>
<rect x="161.667" y="239" width="41.6667" height="41.6667" rx="4.5977" stroke="#F0F0F0" stroke-width="0.431035"/>
<rect x="203.333" y="239" width="41.6667" height="41.6667" rx="4.5977" stroke="#F0F0F0" stroke-width="0.431035"/>
<rect x="-5" y="-11" width="41.6667" height="41.6667" rx="4.5977" stroke="#F0F0F0" stroke-width="0.431035"/>
<rect x="36.6667" y="-11" width="41.6667" height="41.6667" rx="4.5977" stroke="#F0F0F0" stroke-width="0.431035"/>
<rect x="78.3333" y="-11" width="41.6667" height="41.6667" rx="4.5977" stroke="#F0F0F0" stroke-width="0.431035"/>
<rect x="120" y="-11" width="41.6667" height="41.6667" rx="4.5977" stroke="#F0F0F0" stroke-width="0.431035"/>
<rect x="161.667" y="-11" width="41.6667" height="41.6667" rx="4.5977" stroke="#F0F0F0" stroke-width="0.431035"/>
<rect x="203.333" y="-11" width="41.6667" height="41.6667" rx="4.5977" stroke="#F0F0F0" stroke-width="0.431035"/>
<path d="M161.667 -49V-15.3793C161.667 -12.8401 163.725 -10.7816 166.264 -10.7816H198.736C201.275 -10.7816 203.333 -8.72315 203.333 -6.18391V26.2874C203.333 28.8266 205.392 30.8851 207.931 30.8851H240.402C242.942 30.8851 245 32.9435 245 35.4828V67.954C245 70.4933 247.058 72.5517 249.598 72.5517H282.069C284.608 72.5517 286.667 74.6102 286.667 77.1494V109.621C286.667 112.16 288.725 114.218 291.264 114.218H324.885M120 -49V-15.3793C120 -12.8401 122.058 -10.7816 124.598 -10.7816H157.069C159.608 -10.7816 161.667 -8.72315 161.667 -6.18391V26.2874C161.667 28.8266 163.725 30.8851 166.264 30.8851H198.736C201.275 30.8851 203.333 32.9435 203.333 35.4828V67.954C203.333 70.4933 201.275 72.5517 198.736 72.5517H166.264C163.725 72.5517 161.667 70.4933 161.667 67.954V34.908L161.626 34.6365C161.318 32.554 159.55 30.9991 157.446 30.9586L153.621 30.8851H124.598C122.058 30.8851 120 32.9435 120 35.4828V67.954C120 70.4933 122.058 72.5517 124.598 72.5517H157.356L158.448 72.6245C160.259 72.7452 161.667 74.2497 161.667 76.0651V79.592M161.667 76V109.621C161.667 112.16 163.725 114.218 166.264 114.218H198.736C201.275 114.218 203.333 116.277 203.333 118.816V151.287C203.333 153.827 205.392 155.885 207.931 155.885H240.402C242.942 155.885 245 157.944 245 160.483V192.954C245 195.493 247.058 197.552 249.598 197.552H282.069C284.608 197.552 286.667 199.61 286.667 202.149V234.621C286.667 237.16 288.725 239.218 291.264 239.218H324.885" stroke="url(#paint0_linear_202_65)" stroke-opacity="0.8" stroke-width="0.431035"/>
<path d="M-5.33333 76V109.621C-5.33333 112.16 -3.27487 114.218 -0.735628 114.218H31.7356C34.2749 114.218 36.3333 116.277 36.3333 118.816V151.287C36.3333 153.827 38.3918 155.885 40.931 155.885H73.4023C75.9415 155.885 78 157.944 78 160.483V192.954C78 195.493 80.0585 197.552 82.5977 197.552H115.069C117.608 197.552 119.667 199.61 119.667 202.149V234.621C119.667 237.16 121.725 239.218 124.264 239.218H157.885M-47 76V109.621C-47 112.16 -44.9415 114.218 -42.4023 114.218H-9.93103C-7.39179 114.218 -5.33333 116.277 -5.33333 118.816V151.287C-5.33333 153.827 -3.27487 155.885 -0.735628 155.885H31.7356C34.2749 155.885 36.3333 157.944 36.3333 160.483V192.954C36.3333 195.493 34.2749 197.552 31.7356 197.552H-0.735628C-3.27487 197.552 -5.33333 195.493 -5.33333 192.954V159.908L-5.37356 159.636C-5.68207 157.554 -7.4497 155.999 -9.55449 155.959L-13.3793 155.885H-42.4023C-44.9415 155.885 -47 157.944 -47 160.483V192.954C-47 195.493 -44.9415 197.552 -42.4023 197.552H-9.64367L-8.55223 197.624C-6.74086 197.745 -5.33333 199.25 -5.33333 201.065V204.592M-5.33333 201V234.621C-5.33333 237.16 -3.27487 239.218 -0.735628 239.218H31.7356C34.2749 239.218 36.3333 241.277 36.3333 243.816V276.287C36.3333 278.827 38.3918 280.885 40.931 280.885H73.4023C75.9415 280.885 78 282.944 78 285.483V317.954C78 320.493 80.0585 322.552 82.5977 322.552H115.069C117.608 322.552 119.667 324.61 119.667 327.149V359.621C119.667 362.16 121.725 364.218 124.264 364.218H157.885" stroke="url(#paint1_linear_202_65)" stroke-opacity="0.8" stroke-width="0.431035"/>
</g>
<defs>
<linearGradient id="paint0_linear_202_65" x1="120" y1="-49" x2="320.287" y2="198.845" gradientUnits="userSpaceOnUse">
<stop offset="0.0819437" stop-color="#F7F7F7"/>
<stop offset="0.208333" stop-color="#12C2E9"/>
<stop offset="0.526042" stop-color="#C471ED"/>
<stop offset="0.9375" stop-color="#F64F59"/>
</linearGradient>
<linearGradient id="paint1_linear_202_65" x1="-47" y1="76" x2="153.287" y2="323.845" gradientUnits="userSpaceOnUse">
<stop offset="0.0819437" stop-color="#F7F7F7"/>
<stop offset="0.208333" stop-color="#12C2E9"/>
<stop offset="0.526042" stop-color="#C471ED"/>
<stop offset="0.9375" stop-color="#F64F59"/>
</linearGradient>
<clipPath id="clip0_202_65">
<rect width="239" height="274" fill="white"/>
</clipPath>
</defs>
</svg>
