<svg width="152" height="152" viewBox="0 0 152 152" fill="none" xmlns="http://www.w3.org/2000/svg">
<path d="M44.3333 133H107.667M39.2667 107.667H112.733C119.827 107.667 123.375 107.667 126.084 106.286C128.467 105.072 130.405 103.134 131.619 100.751C133 98.0413 133 94.494 133 87.4V39.2667C133 32.1727 133 28.6257 131.619 25.9161C130.405 23.5327 128.467 21.595 126.084 20.3806C123.375 19 119.827 19 112.733 19H39.2667C32.1727 19 28.6257 19 25.9161 20.3806C23.5327 21.595 21.595 23.5327 20.3806 25.9161C19 28.6257 19 32.1726 19 39.2667V87.4C19 94.494 19 98.0413 20.3806 100.751C21.595 103.134 23.5327 105.072 25.9161 106.286C28.6257 107.667 32.1726 107.667 39.2667 107.667Z" stroke="black" stroke-width="4.90323" stroke-linecap="round" stroke-linejoin="round"/>
</svg>
