<svg width="500" height="500" viewBox="0 0 500 500" fill="none" xmlns="http://www.w3.org/2000/svg">
<path opacity="0.15" d="M241.515 161.248C258.596 155.203 277.463 152.604 294.874 157.622C307.968 161.397 329.839 194.311 323.598 233.454C320.912 250.299 332.918 267.75 349.002 277.821C356.623 282.593 366.411 281.834 375.028 283.012C394.138 285.626 413.197 299.289 415.413 318.45C417.553 336.958 402.874 358.744 391.689 372.454C362.885 407.76 311.778 426.887 267.98 407.682C246.743 398.37 228.21 378.659 213.37 361.25C197.814 343 190.804 318.589 189.638 294.98C188.192 265.709 194.801 236.856 202.074 208.711C207.632 187.205 219.732 168.957 241.515 161.248Z" fill="#E69784"/>
<path opacity="0.15" d="M189.341 333.668C187.385 327.466 185.034 321.225 180.841 316.255C175.027 309.364 166.351 305.672 157.92 302.477C150.104 299.515 142.116 296.752 133.803 295.886C112.311 293.648 90.0251 305.597 79.9941 324.735C76.6841 331.049 74.8441 339.33 79.2821 344.909C81.2221 347.348 84.0711 348.855 86.8351 350.294C96.1221 355.129 105.409 359.964 114.696 364.799C124.398 369.85 135.409 376.858 135.828 387.788C136.236 398.44 129.601 407.707 139.556 416.323C146.255 422.122 158.679 424.151 167.2 422.12C186.052 417.627 193.883 391.961 195.238 375.195C196.373 361.137 193.553 347.022 189.341 333.668Z" fill="#E69784"/>
<path opacity="0.15" d="M185.162 177.564C192.121 158.101 185.492 117.981 167.397 106.034C159.001 100.491 150.571 99.9675 141.28 103.231C132.789 106.214 124.327 110.657 117.391 116.429C111.299 121.499 107.083 128.447 103.574 135.455C96.9168 148.75 91.2578 165.774 76.4038 172.044C70.7008 174.451 64.1928 174.849 58.8748 178.017C46.9298 185.134 47.0078 204.222 56.6048 213.395C64.8488 221.275 78.3138 223.815 89.2368 223.648C128.454 223.049 172.266 213.632 185.162 177.564Z" fill="#E69784"/>
<path opacity="0.15" d="M389.536 269.226C409.904 272.748 448.294 259.344 456.965 239.469C460.988 230.247 460.059 221.852 455.252 213.258C450.859 205.404 445.031 197.827 438.156 191.983C432.117 186.85 424.55 183.886 417.045 181.63C402.806 177.349 385.064 174.69 376.343 161.129C372.995 155.923 371.488 149.579 367.455 144.883C358.397 134.333 339.604 137.681 332.211 148.707C325.86 158.179 325.664 171.88 327.7 182.613C335.009 221.149 351.792 262.7 389.536 269.226Z" fill="#E69784"/>
<path d="M154.179 368.841C157.208 368.841 157.567 368.853 158.763 368.907C159.869 368.957 160.47 369.142 160.87 369.298C161.399 369.504 161.777 369.749 162.174 370.146C162.571 370.543 162.817 370.921 163.023 371.45C163.178 371.85 163.363 372.45 163.414 373.557C163.468 374.753 163.48 375.112 163.48 378.141C163.48 381.17 163.468 381.529 163.414 382.725C163.363 383.831 163.179 384.432 163.023 384.831C162.817 385.361 162.572 385.739 162.174 386.136C161.777 386.533 161.399 386.779 160.87 386.985C160.47 387.14 159.869 387.325 158.763 387.376C157.567 387.43 157.208 387.442 154.179 387.442C151.15 387.442 150.791 387.43 149.595 387.376C148.489 387.326 147.888 387.141 147.489 386.985C146.959 386.779 146.581 386.533 146.185 386.136C145.788 385.739 145.542 385.361 145.336 384.831C145.181 384.431 144.996 383.831 144.945 382.725C144.89 381.529 144.879 381.17 144.879 378.141C144.879 375.112 144.891 374.753 144.945 373.557C144.996 372.451 145.181 371.85 145.336 371.45C145.542 370.921 145.788 370.543 146.185 370.146C146.582 369.749 146.96 369.503 147.489 369.298C147.889 369.143 148.49 368.958 149.595 368.907C150.791 368.853 151.15 368.841 154.179 368.841ZM154.179 366.797C151.098 366.797 150.712 366.81 149.502 366.865C148.295 366.92 147.47 367.112 146.748 367.392C146.002 367.682 145.369 368.07 144.739 368.701C144.108 369.332 143.72 369.964 143.431 370.71C143.15 371.432 142.958 372.256 142.904 373.464C142.849 374.674 142.836 375.06 142.836 378.141C142.836 381.222 142.849 381.608 142.904 382.818C142.959 384.025 143.151 384.85 143.431 385.572C143.721 386.318 144.108 386.951 144.739 387.581C145.37 388.212 146.002 388.599 146.748 388.889C147.47 389.169 148.294 389.361 149.502 389.416C150.712 389.471 151.098 389.484 154.179 389.484C157.26 389.484 157.646 389.471 158.856 389.416C160.064 389.361 160.888 389.169 161.61 388.889C162.356 388.599 162.989 388.211 163.62 387.581C164.251 386.95 164.638 386.317 164.928 385.572C165.208 384.85 165.4 384.026 165.455 382.818C165.51 381.608 165.523 381.222 165.523 378.141C165.523 375.06 165.51 374.674 165.455 373.464C165.4 372.256 165.208 371.432 164.928 370.71C164.638 369.964 164.25 369.331 163.62 368.701C162.989 368.07 162.357 367.682 161.61 367.392C160.888 367.112 160.064 366.92 158.856 366.865C157.646 366.811 157.26 366.797 154.179 366.797Z" fill="#E69784"/>
<path d="M154.18 373.016C151.35 373.016 149.055 375.311 149.055 378.141C149.055 380.972 151.35 383.266 154.18 383.266C157.011 383.266 159.305 380.971 159.305 378.141C159.305 375.31 157.01 373.016 154.18 373.016ZM154.18 381.468C152.343 381.468 150.853 379.978 150.853 378.141C150.853 376.304 152.342 374.814 154.18 374.814C156.018 374.814 157.507 376.303 157.507 378.141C157.506 379.978 156.017 381.468 154.18 381.468Z" fill="#E69784"/>
<path d="M160.663 371.787C160.663 372.539 160.053 373.149 159.302 373.149C158.55 373.149 157.941 372.539 157.941 371.787C157.941 371.035 158.55 370.426 159.302 370.426C160.054 370.425 160.663 371.035 160.663 371.787Z" fill="#E69784"/>
<path d="M349.994 200.523C327.308 200.91 327.31 234.658 349.995 235.042C372.683 234.654 372.678 200.906 349.994 200.523ZM349.994 203.524C353.267 203.524 356.277 204.644 358.686 206.505C356.954 208.74 354.561 210.507 351.514 211.797C350.053 209.121 348.383 206.511 346.498 203.977C347.618 203.692 348.786 203.524 349.994 203.524ZM343.562 205.075C345.477 207.581 347.173 210.165 348.649 212.815C345.153 213.844 340.981 214.372 336.158 214.406C337.155 210.328 339.9 206.937 343.562 205.075ZM335.737 217.781C335.737 217.658 335.754 217.537 335.757 217.414C341.291 217.406 346.066 216.77 350.066 215.512C350.401 216.195 350.722 216.881 351.03 217.572C346.17 219.091 342.165 222.205 339.04 226.891C336.98 224.421 335.737 221.244 335.737 217.781ZM349.994 232.04C346.696 232.04 343.663 230.905 341.245 229.016C344.076 224.573 347.693 221.682 352.172 220.347C353.505 223.828 354.487 227.408 355.111 231.076C353.519 231.691 351.799 232.04 349.994 232.04ZM357.908 229.633C357.278 226.25 356.355 222.942 355.147 219.714C357.844 219.333 360.814 219.431 364.062 219.997C363.434 224.003 361.146 227.465 357.908 229.633ZM353.997 216.873C353.646 216.063 353.283 215.256 352.894 214.457C356.215 213.018 358.885 211.065 360.875 208.587C362.815 210.88 364.033 213.792 364.213 216.979C360.508 216.372 357.102 216.339 353.997 216.873Z" fill="#E69784"/>
<path opacity="0.15" d="M194.105 178.688C196.977 178.592 199.51 175.913 199.444 173.04C199.368 169.722 193.991 167.941 191.729 170.182C188.958 172.928 189.368 178.845 194.105 178.688Z" fill="#E69784"/>
<path opacity="0.15" d="M407.455 168.316C414.933 168.067 421.529 161.09 421.358 153.609C421.16 144.968 407.157 140.331 401.267 146.168C394.051 153.316 395.118 168.726 407.455 168.316Z" fill="#E69784"/>
<path opacity="0.15" d="M215.702 438.843C226.103 438.497 235.276 428.793 235.037 418.389C234.762 406.371 215.287 399.923 207.095 408.04C197.061 417.982 198.545 439.413 215.702 438.843Z" fill="#E69784"/>
<path d="M201.996 102.836C209.141 101.558 214.503 93.9427 213.299 86.7847C211.908 78.5167 197.82 76.0107 192.977 82.4327C187.044 90.2987 190.21 104.945 201.996 102.836Z" fill="#6676DE"/>
<path d="M200.504 91.266L198.894 93.027C198.652 93.292 198.671 93.702 198.935 93.944C199.2 94.184 199.609 94.167 199.851 93.902L201.546 92.048L203.555 93.556C203.841 93.77 204.247 93.711 204.463 93.427C204.678 93.14 204.62 92.733 204.334 92.518L202.425 91.086L204.035 89.325C204.277 89.061 204.258 88.65 203.994 88.408C203.854 88.28 203.671 88.225 203.496 88.241C203.341 88.255 203.191 88.325 203.078 88.449L201.383 90.303L199.374 88.795C199.24 88.694 199.079 88.653 198.924 88.668C198.749 88.684 198.58 88.773 198.466 88.924C198.251 89.211 198.309 89.618 198.595 89.833L200.504 91.266Z" fill="white"/>
<path d="M366.441 318.326C380.512 306.41 394.722 294.658 409.067 283.074" stroke="#6676DE" stroke-miterlimit="10"/>
<path d="M428.192 291.922C422.269 327.379 418.524 349.798 412.602 385.256" stroke="#6676DE" stroke-miterlimit="10"/>
<path d="M353.652 397.031C356.068 397.031 376.843 404.424 376.843 404.424" stroke="#6676DE" stroke-miterlimit="10"/>
<path d="M74.1557 311.397L52.5938 251.902" stroke="#6676DE" stroke-miterlimit="10"/>
<path d="M100.403 194.179C112.907 191.416 121.818 177.609 119.185 165.077C116.143 150.6 91.1291 147.188 83.0491 158.854C73.1501 173.144 79.7751 198.736 100.403 194.179Z" fill="#6676DE"/>
<path d="M97.1668 162.007C91.3888 162.418 87.0378 167.435 87.4488 173.213C87.8598 178.991 92.8768 183.342 98.6548 182.932C104.433 182.521 108.784 177.504 108.373 171.726C107.962 165.947 102.945 161.596 97.1668 162.007ZM103.054 176.782C102.867 177.111 102.508 177.241 102.18 177.054C99.6138 175.712 96.5048 175.617 92.9028 176.715C92.5438 176.845 92.2118 176.606 92.0848 176.3C91.9538 175.941 92.1928 175.609 92.4998 175.482C96.4118 174.31 99.8908 174.431 102.73 175.911C103.107 176.043 103.189 176.457 103.054 176.782ZM104.105 173.816C103.869 174.201 103.41 174.391 103.025 174.156C100.077 172.63 95.7508 172.412 92.5298 173.693C92.1188 173.827 91.6328 173.651 91.4988 173.241C91.3648 172.83 91.5398 172.344 91.9508 172.21C95.6878 170.788 100.437 171.028 103.821 172.786C104.146 172.919 104.341 173.431 104.105 173.816ZM104.001 170.879C100.512 169.129 94.8998 169.318 91.7798 170.538C91.2678 170.732 90.7228 170.455 90.5318 169.996C90.3378 169.484 90.6138 168.939 91.0738 168.748C94.7098 167.386 100.845 167.16 104.88 169.186C105.369 169.414 105.571 170.031 105.343 170.52C105.108 170.906 104.491 171.107 104.001 170.879Z" fill="white"/>
<path d="M144.455 136.754C144.455 136.754 135.444 136.815 133.425 136.819C132.293 136.822 132.154 135.013 132.312 134.542C132.386 134.321 132.562 134.152 132.734 133.994C134.332 132.527 138.556 129.488 138.729 129.098C139.047 128.384 134.681 121.525 135.097 117.446C135.559 112.921 139.501 108.986 144.454 109.303H143.866C148.819 108.986 152.761 112.921 153.223 117.446C153.639 121.524 149.274 128.384 149.591 129.098C149.765 129.488 153.988 132.527 155.586 133.994C155.758 134.152 155.935 134.321 156.008 134.542C156.165 135.013 156.027 136.821 154.895 136.819C152.876 136.814 143.865 136.754 143.865 136.754H144.455Z" stroke="#6676DE" stroke-width="0.906" stroke-miterlimit="10"/>
<path d="M409.392 220.637C409.392 220.637 399.447 220.704 397.218 220.709C395.968 220.712 395.815 218.716 395.989 218.196C396.07 217.952 396.266 217.765 396.455 217.591C398.219 215.972 402.881 212.618 403.072 212.187C403.423 211.399 398.604 203.828 399.064 199.327C399.574 194.333 403.925 189.99 409.392 190.34H408.743C414.21 189.99 418.561 194.333 419.071 199.327C419.53 203.829 414.712 211.399 415.063 212.187C415.255 212.618 419.916 215.972 421.68 217.591C421.87 217.765 422.065 217.952 422.146 218.196C422.319 218.716 422.167 220.712 420.917 220.709C418.689 220.704 408.743 220.637 408.743 220.637H409.392Z" stroke="#6676DE" stroke-miterlimit="10"/>
<path d="M359.701 287.97C358.73 288.021 358.599 286.381 358.521 285.921C358.361 284.97 358.2 284.019 358.039 283.068C357.912 282.317 357.892 281.511 357.143 281.098C355.925 280.426 353.873 280.762 353.67 279.807C353.42 278.627 355.853 278.759 356.481 278.776C357.096 278.793 358.286 278.757 358.438 278.068C358.57 277.468 358.433 276.982 358.438 276.376C358.448 275.157 358.497 273.802 358.64 272.767C358.784 271.722 359.285 270.65 359.7 270.645C360.189 270.639 360.746 271.607 360.904 272.926C361.02 273.892 361.114 277.468 361.246 278.068C361.398 278.757 362.304 278.792 362.919 278.776C363.547 278.759 365.98 278.627 365.73 279.807C365.527 280.763 363.476 280.426 362.257 281.098C361.508 281.511 361.488 282.317 361.361 283.068C361.2 284.019 361.04 284.97 360.879 285.921C360.803 286.381 360.672 288.021 359.701 287.97Z" stroke="#6676DE" stroke-miterlimit="10"/>
<path d="M405.518 173.271C404.547 173.322 404.416 171.683 404.338 171.222C404.178 170.271 404.017 169.32 403.856 168.368C403.729 167.617 403.709 166.811 402.96 166.398C401.742 165.726 399.69 166.063 399.487 165.107C399.237 163.927 401.67 164.059 402.298 164.076C402.913 164.093 404.103 164.057 404.255 163.368C404.387 162.768 404.25 162.282 404.255 161.676C404.265 160.457 404.314 159.102 404.457 158.067C404.601 157.022 405.102 155.95 405.517 155.945C406.006 155.939 406.563 156.907 406.721 158.226C406.837 159.192 406.931 162.768 407.063 163.368C407.215 164.057 408.121 164.092 408.736 164.076C409.364 164.059 411.797 163.927 411.547 165.107C411.344 166.063 409.293 165.726 408.074 166.398C407.325 166.811 407.305 167.617 407.178 168.368C407.017 169.319 406.857 170.27 406.696 171.222C406.62 171.683 406.488 173.322 405.518 173.271Z" stroke="#6676DE" stroke-miterlimit="10"/>
<path d="M153.837 175.01C152.866 175.061 152.735 173.421 152.657 172.961C152.497 172.01 152.336 171.059 152.176 170.107C152.049 169.356 152.029 168.55 151.28 168.137C150.062 167.465 148.01 167.802 147.807 166.846C147.557 165.666 149.99 165.798 150.618 165.815C151.233 165.831 152.423 165.796 152.575 165.107C152.707 164.507 152.57 164.021 152.575 163.415C152.585 162.196 152.634 160.841 152.777 159.806C152.921 158.761 153.422 157.689 153.837 157.684C154.326 157.678 154.883 158.646 155.041 159.965C155.157 160.931 155.251 164.507 155.383 165.107C155.534 165.796 156.441 165.831 157.056 165.815C157.684 165.798 160.118 165.666 159.867 166.846C159.664 167.802 157.613 167.465 156.394 168.137C155.645 168.55 155.625 169.356 155.498 170.107C155.338 171.058 155.177 172.009 155.017 172.961C154.939 173.421 154.808 175.061 153.837 175.01Z" stroke="#6676DE" stroke-miterlimit="10"/>
<path d="M80.2823 130.514C79.3113 130.565 79.1803 128.925 79.1023 128.465C78.9423 127.514 78.7813 126.563 78.6213 125.611C78.4943 124.86 78.4743 124.054 77.7253 123.641C76.5073 122.969 74.4553 123.306 74.2523 122.35C74.0023 121.17 76.4353 121.302 77.0633 121.319C77.6783 121.335 78.8683 121.3 79.0203 120.611C79.1523 120.011 79.0153 119.525 79.0203 118.919C79.0303 117.7 79.0793 116.345 79.2223 115.31C79.3663 114.265 79.8673 113.193 80.2823 113.188C80.7713 113.182 81.3283 114.149 81.4863 115.469C81.6023 116.435 81.6963 120.011 81.8283 120.611C81.9793 121.3 82.8863 121.335 83.5013 121.319C84.1293 121.302 86.5633 121.17 86.3123 122.35C86.1093 123.306 84.0583 122.969 82.8393 123.641C82.0903 124.054 82.0703 124.86 81.9433 125.611C81.7833 126.562 81.6223 127.513 81.4623 128.465C81.3843 128.926 81.2523 130.566 80.2823 130.514Z" stroke="#6676DE" stroke-miterlimit="10"/>
<path d="M97.2198 410.506C96.2488 410.557 96.1178 408.917 96.0398 408.457C95.8798 407.506 95.7188 406.555 95.5588 405.604C95.4318 404.853 95.4118 404.047 94.6628 403.634C93.4448 402.962 91.3928 403.299 91.1898 402.342C90.9398 401.162 93.3728 401.294 94.0008 401.311C94.6158 401.328 95.8058 401.292 95.9578 400.603C96.0898 400.003 95.9528 399.517 95.9578 398.911C95.9678 397.692 96.0168 396.337 96.1598 395.302C96.3038 394.257 96.8048 393.185 97.2198 393.18C97.7088 393.174 98.2658 394.142 98.4238 395.461C98.5398 396.427 98.6338 400.003 98.7658 400.603C98.9168 401.292 99.8238 401.327 100.439 401.311C101.067 401.294 103.501 401.162 103.25 402.342C103.047 403.298 100.996 402.961 99.7768 403.634C99.0278 404.047 99.0078 404.852 98.8808 405.604C98.7208 406.555 98.5598 407.506 98.3998 408.457C98.3218 408.917 98.1908 410.557 97.2198 410.506Z" stroke="#6676DE" stroke-miterlimit="10"/>
<path fill-rule="evenodd" clip-rule="evenodd" d="M444.854 263.946C444.658 256.206 438.282 249.992 430.434 249.992C422.68 249.992 416.358 256.064 416.021 263.683C416.014 263.892 416.007 264.102 416.007 264.311C416.007 267.019 416.763 269.546 418.074 271.707L415.473 279.387L423.463 276.847C425.53 277.982 427.907 278.63 430.433 278.63C438.403 278.63 444.86 272.22 444.86 264.311C444.86 264.189 444.86 264.068 444.854 263.946ZM430.434 276.347C427.969 276.347 425.679 275.618 423.761 274.355L419.101 275.841L420.614 271.37C419.162 269.384 418.304 266.946 418.304 264.312C418.304 263.92 418.325 263.529 418.365 263.144C418.96 257.051 424.146 252.276 430.435 252.276C436.804 252.276 442.039 257.173 442.525 263.373C442.552 263.684 442.566 263.994 442.566 264.312C442.564 270.95 437.12 276.347 430.434 276.347Z" fill="#6676DE"/>
<path fill-rule="evenodd" clip-rule="evenodd" d="M437.045 267.201C436.687 267.026 434.951 266.174 434.627 266.06C434.303 265.938 434.066 265.884 433.83 266.236C433.594 266.587 432.912 267.377 432.709 267.607C432.5 267.843 432.297 267.871 431.939 267.695C431.588 267.519 430.446 267.155 429.095 265.952C428.048 265.027 427.332 263.879 427.13 263.527C426.927 263.176 427.11 262.987 427.285 262.811C427.447 262.649 427.636 262.399 427.818 262.197C427.866 262.136 427.906 262.082 427.947 262.028C428.028 261.9 428.089 261.778 428.17 261.609C428.292 261.373 428.231 261.17 428.143 260.995C428.055 260.819 427.346 259.09 427.049 258.388C426.759 257.686 426.462 257.807 426.252 257.807C426.049 257.807 425.813 257.773 425.577 257.773C425.341 257.773 424.956 257.861 424.631 258.212C424.307 258.563 423.395 259.414 423.395 261.143C423.395 261.548 423.47 261.953 423.577 262.338C423.935 263.574 424.705 264.594 424.84 264.77C425.015 265 427.285 268.66 430.878 270.072C434.478 271.47 434.478 271.004 435.127 270.943C435.775 270.889 437.221 270.099 437.511 269.275C437.809 268.458 437.809 267.755 437.721 267.607C437.632 267.464 437.396 267.376 437.045 267.201Z" fill="#6676DE"/>
<path d="M421.052 242.691C415.553 245.4 406.383 254.106 406.383 264.319C406.382 284.117 428.501 296.979 444.906 282.822C451.626 277.022 456.197 265.426 452.807 257.222C447.273 243.826 433.129 236.741 421.052 242.691Z" stroke="#6676DE" stroke-miterlimit="10"/>
<path d="M416.66 250.223C414.556 251.915 413.005 254.284 412.297 256.889" stroke="#6676DE" stroke-miterlimit="10"/>
<path d="M411.403 260.598C411.361 261.598 411.319 262.597 411.277 263.597" stroke="#6676DE" stroke-miterlimit="10"/>
<path d="M449.988 262.504C449.665 270.591 444.849 278.354 437.746 282.234" stroke="#6676DE" stroke-miterlimit="10"/>
<path d="M88.6373 355.151H94.0503V341.594H97.8273L98.2303 337.055H94.0503C94.0503 337.055 94.0503 335.36 94.0503 334.47C94.0503 333.4 94.2653 332.977 95.3003 332.977C96.1333 332.977 98.2303 332.977 98.2303 332.977V328.266C98.2303 328.266 95.1413 328.266 94.4813 328.266C90.4533 328.266 88.6363 330.04 88.6363 333.436C88.6363 336.394 88.6363 337.055 88.6363 337.055H85.8203V341.651H88.6363L88.6373 355.151Z" fill="#6676DE"/>
<path d="M82.9112 319.709C77.2872 322.146 68.2422 331.124 68.2422 341.337C68.2412 361.135 90.3602 373.997 106.765 359.84C113.485 354.04 117.83 342.105 113.686 332.053C109.66 322.289 98.2312 313.071 82.9112 319.709Z" stroke="#6676DE" stroke-miterlimit="10"/>
<path d="M78.5193 327.242C76.4153 328.934 74.8643 331.303 74.1562 333.908" stroke="#6676DE" stroke-miterlimit="10"/>
<path d="M73.2666 337.617C73.2246 338.617 73.1826 339.616 73.1406 340.616" stroke="#6676DE" stroke-miterlimit="10"/>
<path d="M111.851 339.523C111.528 347.61 106.712 355.373 99.6094 359.253" stroke="#6676DE" stroke-miterlimit="10"/>
<path d="M40.2596 222.858C40.6126 223.003 40.9296 222.864 41.0326 222.473C41.1026 222.202 41.2726 221.518 41.3476 221.234C41.4516 220.846 41.4116 220.711 41.1256 220.374C40.5046 219.64 40.1076 218.691 40.1076 217.346C40.1076 213.445 43.0256 209.954 47.7066 209.954C51.8516 209.954 54.1286 212.487 54.1286 215.87C54.1286 220.32 52.1596 224.076 49.2356 224.076C47.6206 224.076 46.4126 222.741 46.7986 221.104C47.2636 219.148 48.1616 217.038 48.1616 215.626C48.1616 214.362 47.4836 213.309 46.0806 213.309C44.4296 213.309 43.1036 215.017 43.1036 217.304C43.1036 218.761 43.5966 219.746 43.5966 219.746C43.5966 219.746 41.9076 226.904 41.6116 228.156C41.0216 230.652 41.5226 233.712 41.5656 234.021C41.5906 234.205 41.8256 234.248 41.9326 234.11C42.0856 233.911 44.0506 231.483 44.7186 229.059C44.9086 228.373 45.8056 224.817 45.8056 224.817C46.3416 225.84 47.9096 226.74 49.5756 226.74C54.5386 226.74 57.9036 222.217 57.9036 216.162C57.9036 211.584 54.0266 207.32 48.1326 207.32C40.7996 207.32 37.1016 212.578 37.1016 216.962C37.0986 219.617 38.1036 221.979 40.2596 222.858Z" fill="#6676DE"/>
<path d="M34.2344 198.453C27.5384 203.364 22.9834 210.082 23.4464 218.948C23.9094 227.814 29.5014 236.279 37.5654 239.991C45.6294 243.704 55.8194 242.387 62.5404 236.586C69.2614 230.785 73.8314 219.188 70.4404 210.984C62.8444 192.606 44.3104 191.062 34.2344 198.453Z" stroke="#6676DE" stroke-miterlimit="10"/>
<path d="M34.2927 203.988C32.1887 205.68 30.6377 208.049 29.9297 210.654" stroke="#6676DE" stroke-miterlimit="10"/>
<path d="M29.0401 214.363C28.9981 215.362 28.9561 216.362 28.9141 217.362" stroke="#6676DE" stroke-miterlimit="10"/>
<path d="M67.6248 216.27C67.3028 224.357 62.4858 232.12 55.3828 236" stroke="#6676DE" stroke-miterlimit="10"/>
<path fill-rule="evenodd" clip-rule="evenodd" d="M419.983 405.098C418.932 405.553 417.788 405.867 416.58 406.023C417.818 405.286 418.759 404.157 419.2 402.776C418.055 403.45 416.769 403.937 415.42 404.203C414.352 403.059 412.8 402.352 411.075 402.352C407.813 402.352 405.145 404.972 405.145 408.187C405.145 408.658 405.224 409.097 405.318 409.521C400.377 409.285 396.001 406.964 393.083 403.419C392.581 404.298 392.268 405.286 392.268 406.352C392.268 408.391 393.335 410.179 394.903 411.215C393.931 411.199 393.021 410.932 392.221 410.493C392.221 410.525 392.221 410.54 392.221 410.571C392.221 411.324 392.362 412.014 392.628 412.673C393.35 414.509 394.997 415.889 396.989 416.281C396.471 416.422 395.969 416.5 395.42 416.5C395.043 416.5 394.667 416.453 394.305 416.375C395.074 418.697 397.254 420.39 399.843 420.453C397.803 422.021 395.262 422.947 392.486 422.947C391.999 422.947 391.545 422.915 391.059 422.868C393.694 424.515 396.815 425.488 400.156 425.488C409.426 425.488 415.151 419.072 416.64 412.406C416.908 411.215 417.032 410.038 417.032 408.877C417.032 408.626 417.032 408.36 417.032 408.124C418.179 407.294 419.199 406.258 419.983 405.098Z" fill="#6676DE"/>
<path d="M390.996 392.878C384.3 397.789 379.745 404.507 380.208 413.373C380.671 422.239 386.263 430.704 394.327 434.417C402.391 438.13 412.581 436.813 419.302 431.012C426.023 425.211 430.593 413.614 427.202 405.41C419.607 387.031 401.073 385.487 390.996 392.878Z" stroke="#6676DE" stroke-miterlimit="10"/>
<path d="M391.058 398.414C388.954 400.105 387.403 402.475 386.695 405.08" stroke="#6676DE" stroke-miterlimit="10"/>
<path d="M385.802 408.789C385.76 409.789 385.718 410.788 385.676 411.788" stroke="#6676DE" stroke-miterlimit="10"/>
<path d="M424.387 410.691C424.065 418.778 419.248 426.541 412.145 430.421" stroke="#6676DE" stroke-miterlimit="10"/>
<path d="M364.655 174.616H374.362V150.308H381.135L381.857 142.169H374.362C374.362 142.169 374.362 139.13 374.362 137.534C374.362 135.615 374.747 134.857 376.603 134.857C378.096 134.857 381.856 134.857 381.856 134.857V126.41C381.856 126.41 376.317 126.41 375.134 126.41C367.911 126.41 364.654 129.592 364.654 135.681C364.654 140.985 364.654 142.17 364.654 142.17H359.605V150.411H364.654L364.655 174.616Z" fill="#6676DE"/>
<path d="M124.055 336.138L154.948 333.91" stroke="#6676DE" stroke-miterlimit="10"/>
<path d="M78.0156 221.867L105.861 227.733" stroke="#6676DE" stroke-miterlimit="10"/>
<path d="M308.728 293.553C331.484 311.813 366.725 331.82 370.205 334.989C373.021 337.549 378.547 341.244 377.972 350.002C377.309 360.101 369.178 376.351 349.486 395.329C324.751 419.169 304.752 441.278 288.981 435.983C275.236 431.368 138.411 310.504 138.411 310.504C126.441 300.579 115.942 291.721 105.443 280.253C102.322 276.845 97.6066 271.723 94.9366 267.945C88.2696 258.509 89.8956 253.073 96.0706 247.351C98.5616 245.043 100.611 248.549 103.278 246.444C125.879 228.65 148.527 210.821 172.766 195.335C175.552 193.553 178.542 191.747 181.854 191.688C185.322 191.64 188.491 193.529 191.373 195.455C196.049 198.576 219.781 219.359 248.994 242.474" fill="#47549B"/>
<path d="M308.731 293.553C331.487 311.813 366.618 331.946 370.208 334.989C382.105 345.072 383.951 358.405 349.489 395.328C328.641 417.665 301.863 440.944 288.984 435.982C275.459 430.756 138.414 310.503 138.414 310.503C126.444 300.578 115.945 291.72 105.446 280.252C102.325 276.844 97.7199 271.642 94.9399 267.944C89.6159 260.862 90.0019 256.104 92.9449 251.144C99.5699 239.98 148.53 210.821 172.769 195.335C175.555 193.553 178.545 191.747 181.857 191.688C185.325 191.64 188.494 193.529 191.376 195.455C196.052 198.576 219.784 219.359 248.997 242.474" stroke="#444C73" stroke-width="0.9794" stroke-miterlimit="10"/>
<path d="M308.729 287.975C331.485 306.235 363.062 328.828 366.542 331.997C369.573 334.753 375.864 341.113 374.597 350.415C373.331 359.717 364.508 371.96 346.913 389.823C325.472 411.591 301.861 435.367 288.982 430.405C275.457 425.179 138.412 304.925 138.412 304.925C126.442 295 115.166 284.25 104.666 272.782C101.545 269.374 98.4484 265.834 96.5824 261.601C94.7054 257.38 94.2024 252.31 96.3074 248.196C97.8504 245.171 100.612 242.97 103.279 240.866C125.88 223.072 148.528 205.243 172.767 189.757C175.553 187.975 178.543 186.17 181.855 186.11C185.323 186.062 188.492 187.951 191.374 189.877C196.05 192.998 220.118 215.786 249.332 238.901" fill="#6676DE"/>
<path opacity="0.2" d="M293.176 430.404C279.652 425.178 142.606 304.925 142.606 304.925C130.636 295 119.359 284.249 108.86 272.782C105.739 269.374 102.642 265.834 100.777 261.601C98.8993 257.38 98.3983 252.31 100.502 248.196C102.045 245.171 104.807 242.97 107.474 240.866C130.075 223.072 152.723 205.243 176.962 189.757C179.193 188.33 181.558 186.904 184.112 186.355C183.373 186.196 182.622 186.099 181.855 186.11C178.542 186.17 175.553 187.975 172.767 189.757C148.528 205.243 125.879 223.072 103.279 240.866C100.612 242.971 97.8503 245.171 96.3073 248.196C94.2033 252.31 94.7043 257.38 96.5823 261.601C98.4483 265.834 101.545 269.374 104.666 272.782C115.165 284.25 126.441 295 138.412 304.925C138.412 304.925 275.457 425.179 288.982 430.404C290.796 431.103 292.85 431.232 295.084 430.904C294.425 430.79 293.784 430.637 293.176 430.404Z" fill="#DFE4F2"/>
<path d="M304.749 291.455L359.111 334.878C361.957 337.152 363.039 340.993 361.776 344.41C361.272 345.774 360.631 347.441 359.816 349.473C355.061 361.339 305.569 420.85 289.211 415.448C276.26 411.179 233.092 375.863 233.092 375.863L147.78 300.161C135.863 287.355 119.54 277.364 109.786 262.522C107.984 260.416 108.042 257.212 109.205 254.706C110.368 252.188 112.437 250.22 114.483 248.332C132.654 231.486 158.406 213.988 178.856 199.901C182.658 197.28 188.029 195.884 194.784 200.965L249.089 244.583" fill="#DFE4F2"/>
<path d="M295.534 277.309C318.29 295.569 363.063 328.828 366.542 331.997C369.888 335.04 376.799 342.086 374.103 353.276C371.914 362.359 362.495 374.001 346.913 389.823C325.474 411.593 301.861 435.367 288.982 430.405C275.457 425.179 138.412 304.925 138.412 304.925C126.442 295 115.166 284.25 104.666 272.782C101.545 269.374 98.4484 265.834 96.5824 261.601C94.7054 257.38 94.2024 252.31 96.3074 248.196C97.8504 245.171 100.612 242.97 103.279 240.866C125.88 223.072 148.528 205.243 172.767 189.757C175.553 187.975 178.543 186.17 181.855 186.11C185.323 186.062 188.492 187.951 191.374 189.877C196.05 192.998 266.913 254.67 296.127 277.785" stroke="#444C73" stroke-width="0.9794" stroke-miterlimit="10"/>
<path d="M292.916 281.642L359.111 334.878C361.957 337.152 363.039 340.993 361.776 344.41C361.272 345.774 360.631 347.441 359.816 349.473C355.061 361.339 305.569 420.85 289.211 415.448C276.26 411.179 233.092 375.863 233.092 375.863L147.78 300.161C135.863 287.355 119.54 277.364 109.786 262.522C107.984 260.416 108.042 257.212 109.205 254.706C110.368 252.188 112.437 250.22 114.483 248.332C132.654 231.486 158.406 213.988 178.856 199.901C182.658 197.28 188.029 195.884 194.784 200.965L249.089 244.583L292.916 281.642Z" stroke="#444C73" stroke-width="0.9448" stroke-miterlimit="10"/>
<path opacity="0.15" d="M316.84 297.847L248.738 244.063L194.966 201.238C188.906 196.718 182.765 196.338 177.203 200.138L174.088 202.265C154.272 215.789 129.61 232.621 112.12 248.698C109.758 250.86 107.701 252.866 106.461 255.531C104.917 258.829 105.21 262.473 107.2 264.848C113.349 274.097 122.051 281.522 130.467 288.702C135.663 293.136 141.036 297.722 145.621 302.607L231.804 378.444C233.59 379.893 275.699 413.98 288.866 418.283C289.683 418.551 290.566 418.679 291.511 418.679C311.336 418.676 357.574 362.127 361.882 351.467C362.634 349.61 363.303 347.894 363.872 346.367C365.369 342.353 364.103 337.856 316.84 297.847ZM361.132 345.346C360.571 346.849 359.911 348.539 359.17 350.372C356.883 356.032 343.178 373.911 328.259 389.367C310.471 407.797 296.089 417.577 289.775 415.505C277.119 411.369 234.08 376.526 233.691 376.212L147.707 300.556C143.022 295.572 137.605 290.949 132.366 286.479C124.082 279.41 115.516 272.101 109.591 263.16L109.48 263.012C108.006 261.305 108.233 258.647 109.113 256.768C110.127 254.59 111.969 252.802 114.098 250.853C131.435 234.917 156 218.151 175.738 204.68L178.855 202.552C183.414 199.436 188.113 199.771 193.182 203.553L246.805 246.26L246.804 246.261L358.908 337.47C361.29 339.359 362.184 342.523 361.132 345.346Z" fill="#4455B0"/>
<path d="M138.838 222.888C138.366 222.888 137.902 222.666 137.609 222.251C137.133 221.573 137.296 220.638 137.974 220.161L149.871 211.796C150.546 211.32 151.482 211.482 151.961 212.16C152.437 212.838 152.274 213.773 151.596 214.25L139.699 222.615C139.438 222.799 139.137 222.888 138.838 222.888Z" fill="#444C73"/>
<path d="M136.022 223.99C135.951 223.736 135.822 223.515 135.636 223.328L135.332 223.093C135.098 222.957 134.846 222.889 134.575 222.888H134.165C133.958 222.88 133.766 222.923 133.587 223.017C133.401 223.077 133.24 223.181 133.104 223.327C132.958 223.463 132.854 223.624 132.794 223.81C132.7 223.989 132.657 224.181 132.665 224.388C132.683 224.521 132.701 224.654 132.718 224.787C132.789 225.041 132.918 225.262 133.104 225.449L133.408 225.683C133.642 225.819 133.894 225.887 134.165 225.888H134.575C134.782 225.896 134.974 225.853 135.153 225.759C135.339 225.699 135.5 225.595 135.636 225.449C135.782 225.313 135.885 225.152 135.946 224.966C136.04 224.787 136.083 224.595 136.075 224.388C136.058 224.256 136.04 224.123 136.022 223.99Z" fill="#444C73"/>
<path opacity="0.15" d="M359.828 350.326C360.639 348.288 361.278 346.618 361.781 345.251C363.039 341.826 361.962 337.975 359.126 335.696L297.471 286.8L249.513 245.188L197.402 199.532C190.672 194.439 185.327 196.591 179.541 200.4C167.385 208.402 153.801 218.164 140.794 227.988C140.837 227.963 125.121 240.22 125.761 239.858C132.292 236.173 183.434 204.599 195.645 212.052C209.133 220.284 349.865 336.16 354.847 343.243C359.671 350.103 310.071 400.673 287.092 415.475C287.972 415.887 288.777 416.222 289.486 416.457C305.782 421.871 355.091 362.219 359.828 350.326Z" fill="#6676DE"/>
<path d="M187.899 263.993C194.442 258.362 200.983 252.727 207.528 247.097C210.35 244.67 213.255 242.192 216.783 240.892C227.565 236.918 242.711 250.068 250.652 255.902C261.908 264.171 272.289 273.474 283.149 282.211C289.712 287.491 296.833 292.076 303.076 297.726C304.638 299.14 306.19 300.726 306.723 302.732C307.761 306.642 301.794 311.364 299.474 314.029C289.727 325.224 278.881 336.081 267.384 345.85C261.367 350.963 253.703 358.051 247.232 362.617C241.812 366.441 238.876 371.652 232.155 367.021C225.059 362.132 161.436 307.213 157.581 303.589C153.355 299.616 152.757 294.351 157.581 290.233C167.15 282.065 178.364 272.2 187.899 263.993Z" stroke="#444C73" stroke-width="0.7283" stroke-miterlimit="10" stroke-linecap="round"/>
<path opacity="0.64" d="M187.899 263.993C194.442 258.362 200.983 252.727 207.528 247.097C210.35 244.67 213.255 242.192 216.783 240.892C227.565 236.918 242.711 250.068 250.652 255.902C261.908 264.171 272.289 273.474 283.149 282.211C289.712 287.491 296.833 292.076 303.076 297.726C304.638 299.14 306.19 300.726 306.723 302.732C307.761 306.642 301.794 311.364 299.474 314.029C289.727 325.224 278.881 336.081 267.384 345.85C261.367 350.963 253.703 358.051 247.232 362.617C241.812 366.441 238.876 371.652 232.155 367.021C225.059 362.132 161.436 307.213 157.581 303.589C153.355 299.616 152.757 294.351 157.581 290.233C167.15 282.065 178.364 272.2 187.899 263.993Z" fill="#6775E1"/>
<path d="M262.284 387.295C261.132 387.152 259.973 386.488 259.101 385.352C257.419 383.158 257.443 380.029 259.156 378.364L302.073 336.632C303.786 334.967 306.537 335.397 308.22 337.59C309.902 339.784 309.878 342.912 308.165 344.577L265.248 386.31C264.423 387.112 263.356 387.428 262.284 387.295Z" fill="#6775E1" stroke="#444C73" stroke-width="0.4469" stroke-miterlimit="10" stroke-linecap="round"/>
<path d="M253.529 375.733C253.281 375.702 253.031 375.559 252.843 375.314C252.481 374.841 252.485 374.166 252.855 373.807L291.021 336.695C291.391 336.337 291.983 336.428 292.347 336.901C292.709 337.374 292.705 338.049 292.335 338.408L254.169 375.52C253.991 375.694 253.761 375.762 253.529 375.733Z" fill="#6775E1" stroke="#444C73" stroke-width="0.4469" stroke-miterlimit="10" stroke-linecap="round"/>
<path d="M315.313 313.449C312.466 314.129 312.648 317.474 312.901 319.044C312.961 319.416 312.664 319.734 312.325 319.66C310.896 319.348 307.844 319.074 307.159 322.174C305.148 331.273 317.949 328.608 320.076 328.107C320.258 328.064 320.402 327.911 320.445 327.712C320.951 325.397 323.671 311.452 315.313 313.449Z" fill="#6775E1" stroke="#444C73" stroke-width="0.481" stroke-miterlimit="10" stroke-linecap="round"/>
<path d="M145.864 288.778C144.34 288.584 142.794 287.791 141.615 286.46C139.341 283.889 139.295 280.284 141.515 278.406L197.135 231.359C199.355 229.482 202.997 230.046 205.272 232.615C207.546 235.186 207.592 238.791 205.372 240.669L149.752 287.716C148.683 288.62 147.282 288.958 145.864 288.778Z" fill="#6775E1" stroke="#444C73" stroke-width="0.5511" stroke-miterlimit="10" stroke-linecap="round"/>
<path d="M134.024 275.236C133.696 275.194 133.363 275.023 133.108 274.736C132.618 274.181 132.608 273.404 133.087 272.999L182.549 231.161C183.028 230.757 183.812 230.877 184.304 231.431C184.794 231.985 184.804 232.763 184.325 233.168L134.863 275.006C134.632 275.202 134.33 275.275 134.024 275.236Z" fill="#6775E1" stroke="#444C73" stroke-width="0.5511" stroke-miterlimit="10" stroke-linecap="round"/>
<path d="M257.56 317.873C257.356 320.227 260.351 321.266 262.21 322.725C265.651 325.427 264.935 331.763 260.979 333.629C256.429 335.775 251.253 332.185 246.223 332.223C242.681 332.249 239.415 334.086 235.93 334.722C231.758 335.484 227.285 334.421 223.902 331.864C217.488 327.017 214.81 317.232 207.03 315.205C204.295 314.493 201.331 314.924 198.659 314.005C193.769 312.323 191.347 306.031 193.253 301.224C195.159 296.417 200.596 293.513 205.754 293.874C205.754 293.874 226.724 310.168 236.703 311.632C246.68 313.095 257.56 317.873 257.56 317.873Z" fill="#6775E1" stroke="#444C73" stroke-width="0.4469" stroke-miterlimit="10" stroke-linecap="round"/>
<path d="M249.121 177.804C249.867 176.409 254.403 157.968 255.955 157.154C259.717 155.182 269.132 162.8 269.425 165.679C269.7 168.377 261.811 187.789 260.74 191.248L252.743 195.263L249.121 177.804Z" fill="white"/>
<path d="M206.86 308.284C206.86 308.284 202.238 304.112 202.38 301.594C202.008 303.09 212.789 281.758 215.851 269.296C218.151 259.935 217.699 255.328 216.337 248.642C214.974 241.956 213.927 236.346 214.33 230.207C214.733 224.068 210.397 211.882 210.397 211.882L208.733 203.525C208.733 203.525 206.647 191.841 211.259 190.072C215.871 188.303 218.043 192.401 218.043 192.401L221.74 196.803L225.326 207.651L229.93 214.779C229.93 214.779 248.54 184.924 249.837 182.571C249.876 182.5 254.59 191.707 254.59 191.707C254.59 191.707 264.287 186.54 268.498 194.332C270.982 198.929 269.853 200.491 269.853 200.491C269.853 200.491 276.34 203.342 282.411 209.369C283.259 210.539 284.453 213.193 284.661 215.058C284.661 215.058 300.407 220.275 304 224.203C303.973 224.174 304.837 228.27 304.961 231.419C305.307 240.158 302.527 247.675 302.527 247.675C302.369 250.463 295.379 262.837 295.379 262.837L292.681 268.497C291.392 271.201 289.92 273.815 288.274 276.318L285.138 281.09L279.246 288.76L266.155 303.867C266.155 303.867 256.835 317.667 255.624 323.335C254.413 329.004 253.53 329.402 251.803 328.989C250.076 328.576 225.032 321.09 218.687 316.323" fill="white"/>
<path d="M208.628 198.754C207.756 208.423 213.462 218.268 214.237 227.945C214.509 231.339 214.116 234.761 214.41 238.153C214.717 241.697 215.766 245.132 216.34 248.643C217.303 254.538 217.125 263.45 216.508 266.521C214.899 274.524 207.956 293.719 202.383 301.595C201.843 302.358 202.388 303.077 202.918 303.848C213.15 318.758 252.126 330.33 253.428 328.714C254.963 326.808 255.334 324.124 256.192 321.883C257.252 319.112 258.476 316.404 259.853 313.776C264.771 304.391 272.046 296.607 278.916 288.648C284.586 282.079 289.21 274.714 293.271 267.064C295.983 261.954 299.014 256.999 301.203 251.629C304.292 244.051 305.601 234.411 305.019 226.232C304.717 221.981 288.779 217.088 285.101 215.262C281.423 213.437 278.622 213.735 276.504 216.544C274.386 219.353 264.553 227.5 265.806 230.534C267.059 233.569 268.727 233.672 274.138 233.463C279.549 233.254 284.939 225.796 284.939 225.796" stroke="#444C73" stroke-width="0.6935" stroke-miterlimit="10" stroke-linecap="round"/>
<path d="M210.51 190.691C208.763 191.697 207.962 193.871 208.036 195.886C208.11 197.901 209.929 203.336 211.556 203.926C212.487 204.264 213.52 204.145 214.485 203.921C215.34 203.722 216.213 203.422 216.82 202.788C217.647 201.923 217.806 200.631 217.853 199.435C217.909 197.999 217.862 196.559 217.714 195.129C217.53 193.355 218.016 192.742 216.876 191.371C215.062 189.192 212.116 189.767 210.51 190.691Z" stroke="#444C73" stroke-width="0.6935" stroke-miterlimit="10" stroke-linecap="round"/>
<path d="M216.875 191.371C218.878 193.115 220.441 194.488 221.742 196.804C223.351 199.668 223.675 203.058 224.745 206.164C226.647 211.684 230.798 216.069 234.382 220.677C245.012 234.347 251.319 252.002 248.759 269.129" stroke="#444C73" stroke-width="0.6935" stroke-miterlimit="10" stroke-linecap="round"/>
<path opacity="0.15" d="M304.994 230.064C304.869 226.915 303.977 224.173 304.004 224.202C303.888 224.074 303.757 223.946 303.616 223.816C300.268 242.738 290.223 260.437 275.6 272.918C268.141 279.285 259.248 284.708 254.967 293.531C252.336 298.953 251.395 305.683 246.527 309.235C242.807 311.95 237.599 311.947 233.342 310.19C229.086 308.432 225.636 305.161 222.625 301.676C219.774 298.377 216.938 294.627 212.756 293.391C210.677 292.776 208.603 292.873 206.575 293.413C204.318 298.246 202.537 301.644 202.387 301.664C202.328 304.188 206.863 308.286 206.863 308.286L218.692 316.322C225.036 321.09 250.08 328.575 251.808 328.988C253.535 329.401 254.418 329.002 255.629 323.334C256.84 317.665 266.16 303.866 266.16 303.866L279.251 288.759L285.141 281.089L288.278 276.317C289.924 273.813 291.396 271.2 292.685 268.496L295.383 262.836C295.383 262.836 302.373 250.462 302.531 247.674C302.531 247.674 305.341 238.803 304.994 230.064Z" fill="#4C5FCE"/>
<path opacity="0.15" d="M202.387 301.663C202.388 301.641 202.382 301.616 202.383 301.594C202.371 301.647 202.374 301.665 202.387 301.663Z" fill="#4C5FCE"/>
<path opacity="0.15" d="M248.228 248.357C249.91 255.743 251.126 262.498 249.583 269.914C253.916 255.293 256.895 241.247 255.695 226.045C255.386 222.129 254.686 218.181 252.949 214.658C251.996 212.725 250.749 210.955 249.507 209.194C246.266 204.598 244.058 196.303 240.817 191.707C239.829 196.84 229.93 214.778 229.93 214.778C230.138 216.672 236.02 222.403 237.055 223.942C242.245 231.66 246.19 239.412 248.228 248.357Z" fill="#4C5FCE"/>
<path d="M208.363 166.283C208.363 166.283 213.567 186.019 225.078 201.602C235.3 215.441 233.367 214.901 233.367 214.901C233.367 214.901 255.912 246.828 264.598 250.534C264.365 250.833 266.414 253.053 268.315 252.509C270.216 251.965 277.258 243.566 277.258 243.566L283.525 237.131L278.891 231.688C278.891 231.688 274.169 233.881 271.386 233.585C268.602 233.289 267.692 233.545 266.419 231.718C265.146 229.891 266.637 227.532 267.774 225.894C268.911 224.256 273.343 219.594 273.343 219.594C273.343 219.594 269.421 213.509 269.206 213.531C268.991 213.553 266.481 215.318 263.743 216.176C261.005 217.035 255.561 217.905 252.819 216.468C250.077 215.032 250.448 213.242 250.535 211.639C250.622 210.036 253.271 205.562 253.271 205.562C253.271 205.562 250.985 204.625 249.417 203.298C247.849 201.971 247.613 197.859 249.604 195.735C251.595 193.612 254.591 191.706 254.591 191.706C254.591 191.706 247.556 178.641 246.104 167.622C245.988 166.487 223.255 172.008 215.372 164.822C215.251 164.733 213.257 165.784 210.809 166.034C208.363 166.283 208.363 166.283 208.363 166.283Z" fill="#6676DE"/>
<path d="M248.883 178.423C249.629 177.028 253.835 158.845 255.387 158.031C259.149 156.059 269.699 161.228 269.992 164.107C270.267 166.805 262.082 186.821 261.01 190.28" stroke="#444C73" stroke-width="0.6935" stroke-miterlimit="10" stroke-linecap="round"/>
<path d="M311.118 54.7922C311.118 54.7922 307.879 54.3302 306.522 60.9122C305.164 67.4942 301.309 104.203 302.917 120.935C303.771 129.822 304.645 163.288 309.516 174.477C310.522 176.787 311.769 177.095 313.143 177.206C322.544 177.966 322.2 136.314 322.2 136.314L321.027 92.8652C321.009 90.9192 320.907 88.9832 320.719 87.0462C320.25 82.2012 320.099 72.1652 319.838 70.3502C319.481 67.8772 318.39 54.8212 311.118 54.7922Z" fill="#5362B7"/>
<path d="M208.363 166.286C208.363 166.286 215.599 185.669 225.642 202.237C231.407 211.748 233.664 214.994 233.664 214.994C233.664 214.994 255.517 245.519 264.256 250.572C264.723 250.633 267.113 253.131 268.838 252.509C270.698 251.838 276.704 244.375 276.704 244.375L283.209 237.343L279.149 231.992C279.149 231.992 273.829 233.92 271.045 233.624C268.261 233.328 267.868 233.807 266.595 231.98C265.322 230.153 266.381 227.91 267.519 226.272C268.656 224.634 273.344 219.598 273.344 219.598C273.344 219.598 269.422 213.513 269.207 213.535C268.992 213.557 266.14 215.357 263.401 216.215C260.662 217.073 256.286 218.356 253.544 216.92C250.802 215.484 250.393 212.71 250.48 211.107C250.567 209.504 253.511 205.754 253.511 205.754C253.511 205.754 251.278 204.88 249.71 203.552C248.142 202.225 247.228 198.342 249.219 196.219C251.21 194.096 254.592 191.711 254.592 191.711C254.592 191.711 246.69 178.736 245.238 167.716C245.122 166.58 223.457 171.803 215.575 164.618C215.454 164.529 212.916 165.824 210.468 166.074C209.182 166.547 209.442 166.496 208.363 166.286Z" fill="#6676DE"/>
<path d="M249.535 108.232L252.109 137.571L256.389 165.438C256.389 165.438 267.598 164.839 279.24 169.344C290.882 173.849 302.525 179.708 313.139 177.204C313.268 177.139 309.349 177.976 307.647 167.095C305.945 156.215 302.166 133.281 302.888 119.15C303.61 105.018 303.049 87.8934 303.875 83.3434C304.7 78.7934 306.085 63.3744 306.353 61.7764C306.621 60.1774 307.597 55.5434 310.795 54.7994C313.994 54.0554 304.643 55.4194 300.976 61.1364C295.651 69.4384 287.937 83.6284 280.558 89.9324C273.179 96.2364 261.156 103.735 261.156 103.735L249.535 108.232Z" fill="#6676DE"/>
<path d="M242.026 109.07C242.026 109.07 206.692 111.906 207.906 134.89C209.285 160.998 215.365 165.227 218.195 166.385C221.025 167.543 229.211 169.076 236.344 168.586C243.477 168.095 249.147 166.345 249.147 166.345C249.147 166.345 243.469 132.018 243.19 129.146C242.912 126.274 242.026 109.07 242.026 109.07Z" fill="#E69784"/>
<path d="M245.348 105.347C245.348 105.347 240.753 105.241 242.181 118.428C243.617 131.691 249.145 166.345 249.145 166.345C249.145 166.345 249.552 169.053 253.005 168.712C258.17 168.203 254.938 155.968 254.938 155.968L249.538 108.233C249.538 108.233 248.862 104.21 245.348 105.347Z" fill="#4C5FCE"/>
<path opacity="0.2" d="M236.455 119.996C238.499 119.672 240.549 119.406 242.592 119.642C242.3 114.414 242.025 109.07 242.025 109.07C242.025 109.07 206.722 112.218 207.904 134.89C208.069 138.049 208.337 140.885 208.638 143.434C208.796 144.775 210.74 144.709 210.843 143.363C210.846 143.322 210.849 143.282 210.853 143.241C211.272 137.959 212.756 132.565 216.251 128.583C221.182 122.968 229.072 121.165 236.455 119.996Z" fill="#DFE4F2"/>
<path opacity="0.15" d="M311.115 54.7931C311.115 54.7931 311.102 54.7911 311.078 54.7891C312.507 59.3501 314.191 64.8931 315.038 68.3021C316.676 74.8981 317.519 157.126 312.696 162.631C310.41 165.24 307.838 161.374 305.703 156.592C306.599 163.94 307.811 170.569 309.513 174.477C310.519 176.787 311.766 177.094 313.14 177.206C322.541 177.966 322.197 136.314 322.197 136.314L321.024 92.8651C321.006 90.9191 320.904 88.9831 320.716 87.0461C320.247 82.2011 320.096 72.1651 319.834 70.3501C319.479 67.8781 318.388 54.8221 311.115 54.7931Z" fill="#4C5FCE"/>
<path d="M256.391 165.44C267.914 163.948 280.024 169.722 290.884 173.851C298.155 176.615 306.507 178.934 314.168 177.085" stroke="#444C73" stroke-width="0.6935" stroke-miterlimit="10" stroke-linecap="round"/>
<path d="M311.735 54.8242C307.571 55.4792 303.81 57.4222 301.251 60.7722C298.692 64.1222 296.926 67.9942 294.856 71.6662C285.327 88.5702 267.872 103.307 249.133 108.345" stroke="#444C73" stroke-width="0.6935" stroke-miterlimit="10" stroke-linecap="round"/>
<path d="M249.145 166.345C242.38 168.172 235.554 169.14 228.555 168.514C223.456 168.059 216.736 166.994 213.565 162.454C212.116 160.378 211.301 157.92 210.629 155.467C208.881 149.09 208.094 142.482 207.913 135.873C207.779 130.973 208.977 126.881 211.067 123.49C217.337 113.318 231.631 109.462 242.025 109.07" stroke="#444C73" stroke-width="0.6935" stroke-miterlimit="10" stroke-linecap="round"/>
<path d="M208.616 129.266C203.753 130.617 198.272 132.374 198.239 135.54C198.206 138.706 198.984 141.817 199.756 144.887C200.861 149.278 201.965 153.669 203.07 158.06C203.93 161.478 205.383 165.499 208.829 166.237C210.967 166.695 213.111 165.654 215.05 164.644" stroke="#444C73" stroke-width="0.6935" stroke-miterlimit="10" stroke-linecap="round"/>
<path d="M202.618 156.893C201.386 157.198 200.153 157.503 198.921 157.808C198.085 158.015 197.144 158.208 196.407 157.762C195.726 157.35 195.441 156.522 195.206 155.761C194.634 153.91 194.063 152.059 193.492 150.209C193.092 148.914 192.693 147.513 193.135 146.232C193.515 145.132 197.761 143.169 198.911 142.992" stroke="#444C73" stroke-width="0.6935" stroke-miterlimit="10" stroke-linecap="round"/>
<path d="M273.344 219.592L269.802 213.944C269.514 213.457 268.849 213.361 268.439 213.752C266.525 215.573 260.778 217.711 257.202 217.389C252.692 216.983 249.533 215.02 250.986 209.982C252.439 204.944 258.13 201.955 262.614 200.394C271.062 197.454 285.083 211.322 284.664 215.055" stroke="#444C73" stroke-width="0.6935" stroke-miterlimit="10" stroke-linecap="round"/>
<path d="M283.059 224.336C284.903 225.664 286.883 226.804 288.957 227.732" stroke="#444C73" stroke-width="0.6935" stroke-miterlimit="10" stroke-linecap="round"/>
<path d="M269.855 200.49C269.855 200.49 270.475 195.742 266.901 192.298C265.487 190.935 263.342 190.299 261.012 190.282C259.67 190.27 258.266 190.468 256.904 190.855C256.11 191.074 255.327 191.358 254.585 191.709C253.215 192.34 251.965 193.179 250.965 194.197C249.944 195.228 249.214 196.18 248.711 197.048C245.043 203.398 253.74 205.514 253.74 205.514" stroke="#444C73" stroke-width="0.6935" stroke-miterlimit="10" stroke-linecap="round"/>
<path d="M256.906 190.855C257.628 191.499 258.774 192.889 259.17 193.852C259.345 194.27 259.416 194.754 259.312 195.195C259.289 195.291 259.26 195.388 259.22 195.48C259.049 195.862 258.731 196.148 258.423 196.428C256.308 198.31 252.55 200.751 252.42 200.77C252.246 200.793 252.085 200.677 251.947 200.57C250.908 199.743 249.767 197.967 248.713 197.048C248.658 196.993 248.603 196.943 248.543 196.9" stroke="#444C73" stroke-width="0.6935" stroke-miterlimit="10" stroke-linecap="round"/>
<path d="M269.847 223.648C270.807 224.286 271.648 225.102 272.316 226.042C272.391 226.148 272.466 226.259 272.492 226.386C272.535 226.595 272.441 226.805 272.345 226.995C271.188 229.273 269.289 231.168 267.008 232.319" stroke="#444C73" stroke-width="0.6935" stroke-miterlimit="10" stroke-linecap="round"/>
<path d="M246 167.129C246 167.129 249.962 186.089 254.585 191.708" stroke="#444C73" stroke-width="0.6935" stroke-miterlimit="10" stroke-linecap="round"/>
<path d="M231.292 211.898C230.108 214.404 230.009 215.172 229.574 214.629" stroke="#444C73" stroke-width="0.6935" stroke-miterlimit="10" stroke-linecap="round"/>
<path d="M252.348 207.173L256.619 211.656L264.437 206.698C264.437 206.698 261.957 201.686 259.96 201.449" stroke="#444C73" stroke-width="0.6935" stroke-miterlimit="10" stroke-linecap="round"/>
<path d="M303.191 104.009C303.191 104.009 325.208 101.46 327.062 119.632C329.385 142.39 304.192 139.721 304.192 139.721L303.191 104.009Z" fill="#E69784"/>
<path opacity="0.15" d="M327.062 119.634C326.754 116.614 325.88 114.177 324.652 112.195C324.364 115.952 324.89 119.883 323.548 123.413C322.222 126.901 319.133 129.42 315.75 130.703C312.02 132.118 307.927 132.564 303.977 132.005L304.194 139.723C304.192 139.723 329.385 142.392 327.062 119.634Z" fill="#DD4E2A"/>
<path d="M302.863 104.154C309.731 102.653 319.483 105.344 323.871 110.836C328.26 116.328 328.119 126.691 324.202 132.528C319.881 138.968 312.48 139.258 304.779 140.175" stroke="#444C73" stroke-width="0.6935" stroke-miterlimit="10" stroke-linecap="round"/>
<path opacity="0.15" d="M254.277 151.679L256.39 165.438C256.39 165.438 267.599 164.839 279.241 169.344C290.884 173.849 302.526 179.708 313.14 177.205C313.269 177.14 309.35 177.977 307.648 167.096C307.384 165.408 307.07 163.428 306.731 161.238C303.762 161.866 300.667 161.888 297.67 161.391C288.674 159.901 280.994 154.02 272.194 151.629C266.429 150.063 260.104 150.085 254.277 151.679Z" fill="#4C5FCE"/>
<path d="M321.738 108.704C320.21 71.1983 319.661 54.8843 311.734 54.8243C310.101 54.8123 308.548 55.7043 307.705 57.1023C306.861 58.5003 306.593 60.1603 306.354 61.7763C301.031 97.6413 301.648 134.38 308.174 170.046C308.485 171.745 308.83 173.493 309.787 174.931C310.744 176.369 312.477 177.432 314.169 177.082C316.072 176.688 317.455 174.859 318.005 172.996C321.492 161.177 321.227 147.158 322.331 134.723" stroke="#444C73" stroke-width="0.6935" stroke-miterlimit="10" stroke-linecap="round"/>
<path opacity="0.2" d="M300.979 61.1369C295.654 69.4389 287.94 83.6289 280.561 89.9329C273.182 96.2369 261.159 103.736 261.159 103.736L249.539 108.233L251.281 128.091C256.693 129.582 262.942 128.074 266.689 123.891C272.366 117.552 271.549 107.146 277.442 101.008C282.93 95.2909 292.719 94.9609 297.411 88.5739C301.437 83.0939 300.065 75.4569 301.787 68.8779C302.666 65.5189 304.415 62.3999 306.784 59.8649C307.348 57.8809 308.496 55.3349 310.797 54.7989C313.996 54.0559 304.645 55.4199 300.979 61.1369Z" fill="#DFE4F2"/>
<path d="M249.428 167.285C250.299 169.694 256.812 169.639 255.862 163.65C253.769 150.455 250.838 127.522 249.484 111.229C249.293 108.927 249.277 105.319 246.968 105.254C244.877 105.195 243.394 105.828 242.585 107.415C241.776 109.002 241.785 110.866 241.836 112.646C242.337 130.16 248.835 165.645 249.428 167.285Z" stroke="#444C73" stroke-width="0.6935" stroke-miterlimit="10" stroke-linecap="round"/>
<path opacity="0.15" d="M231.771 160.385C224.935 160.787 218.664 158.457 213.42 154.154C212.716 153.576 211.346 152.393 210.008 151.848C212.46 163.08 216.142 165.546 218.194 166.385C221.024 167.543 229.21 169.076 236.343 168.586C243.476 168.095 249.146 166.345 249.146 166.345C249.146 166.345 248.261 160.997 247.174 154.351C245.58 155.35 244.034 156.446 242.389 157.358C239.141 159.16 235.475 160.167 231.771 160.385Z" fill="#DD4E2A"/>
<g opacity="0.15">
<path d="M241.31 173.393C241.31 173.393 243.997 183.482 249.221 196.215C249.34 196.047 249.467 195.885 249.607 195.735C251.598 193.611 254.594 191.706 254.594 191.706C254.594 191.706 247.56 178.641 246.107 167.622C245.991 166.487 223.257 172.008 215.376 164.822C215.271 164.744 213.742 165.532 211.732 165.901C211.572 166.095 211.473 166.216 211.473 166.216C211.473 166.216 217.904 175.343 228.267 174.722C238.629 174.101 241.31 173.393 241.31 173.393Z" fill="#4C5FCE"/>
<path d="M267.777 225.894C268.915 224.256 273.346 219.594 273.346 219.594C273.346 219.594 269.424 213.509 269.21 213.531C268.995 213.553 266.485 215.318 263.747 216.176C262.617 216.53 261.025 216.884 259.355 217.079C261.548 220.862 263.935 224.548 266.513 227.976C266.873 227.225 267.35 226.508 267.777 225.894Z" fill="#4C5FCE"/>
<path d="M283.528 237.131L278.894 231.688C278.894 231.688 274.172 233.881 271.388 233.585C271.286 233.574 271.203 233.568 271.105 233.558C272.701 235.317 274.359 236.963 276.078 238.461C277.666 239.744 279.272 240.105 280.746 239.984L283.528 237.131Z" fill="#4C5FCE"/>
</g>
<path opacity="0.2" d="M270.1 245.613C268.378 245.293 266.42 246.211 264.936 245.281C263.235 244.215 263.538 241.726 263.61 239.72C263.726 236.453 262.303 232.83 259.271 231.607C257.811 231.018 256.186 231.057 254.633 230.794C251.363 230.241 248.363 228.253 246.578 225.459C243.628 220.843 244.184 214.934 243.922 209.462C243.706 204.941 242.857 200.451 241.406 196.164C240.629 193.869 239.666 191.604 238.191 189.682C235.18 185.761 230.319 183.653 225.459 182.746C222.424 182.18 219.287 182.072 216.226 182.499C215.482 182.603 215.484 182.571 214.723 182.745C217.109 188.271 219.73 193.111 224.812 201.175C233.985 215.731 233.365 214.9 233.365 214.9C233.365 214.9 256.282 245.823 264.596 250.533C264.363 250.831 266.412 253.052 268.313 252.508C269.205 252.253 271.227 250.268 273.124 248.233C272.563 246.941 271.472 245.869 270.1 245.613Z" fill="#DFE4F2"/>
<path d="M208.832 166.234C213.238 191.418 253.433 243.941 264.834 250.783C267.95 246.726 276.741 237.348 280.764 234.188" stroke="#444C73" stroke-width="0.6935" stroke-miterlimit="10" stroke-linecap="round"/>
</svg>
