<svg width="467" height="521" viewBox="0 0 467 521" fill="none" xmlns="http://www.w3.org/2000/svg">
<rect y="99.1523" width="359.024" height="438.808" transform="rotate(-16 0 99.1523)" fill="#EBEBEB" fill-opacity="0.2"/>
<g clip-path="url(#clip0_54_3159)">
<path d="M404.412 296.708L106.845 382.034L106.887 382.183L404.454 296.857L404.412 296.708Z" fill="#EBEBEB"/>
<path d="M377.342 314.836L345.759 323.893L345.802 324.041L377.385 314.985L377.342 314.836Z" fill="#EBEBEB"/>
<path d="M306.178 333.225L271.265 343.236L271.307 343.385L306.221 333.373L306.178 333.225Z" fill="#EBEBEB"/>
<path d="M346.498 320.731L335.076 324.006L335.119 324.155L346.541 320.88L346.498 320.731Z" fill="#EBEBEB"/>
<path d="M193.793 362.569L168.087 369.94L168.13 370.089L193.836 362.718L193.793 362.569Z" fill="#EBEBEB"/>
<path d="M164.774 370.89L155.583 373.526L155.625 373.675L164.816 371.039L164.774 370.89Z" fill="#EBEBEB"/>
<path d="M219.512 357.916L187.258 367.164L187.301 367.313L219.554 358.064L219.512 357.916Z" fill="#EBEBEB"/>
<path d="M240.288 315.044L125.368 347.997C123.495 348.534 121.534 347.447 120.997 345.574L74.6767 184.035C74.1397 182.162 75.2268 180.201 77.0997 179.664L192.019 146.711C193.892 146.175 195.853 147.262 196.39 149.134L242.71 310.673C243.247 312.546 242.16 314.507 240.288 315.044ZM77.1425 179.813C75.3511 180.327 74.312 182.202 74.8257 183.993L121.146 345.532C121.66 347.323 123.534 348.362 125.326 347.848L240.246 314.896C242.036 314.382 243.075 312.508 242.562 310.716L196.241 149.177C195.728 147.386 193.853 146.347 192.062 146.86L77.1425 179.813Z" fill="#EBEBEB"/>
<path d="M369.013 278.134L254.094 311.087C252.221 311.624 250.261 310.536 249.724 308.663L203.403 147.125C202.866 145.252 203.953 143.291 205.826 142.754L320.745 109.802C322.618 109.264 324.579 110.352 325.116 112.225L371.436 273.763C371.974 275.636 370.887 277.597 369.013 278.134ZM205.868 142.903C204.078 143.417 203.039 145.292 203.552 147.083L249.873 308.621C250.386 310.413 252.261 311.452 254.052 310.938L368.971 277.986C370.762 277.472 371.801 275.598 371.288 273.806L324.967 112.267C324.454 110.476 322.579 109.437 320.787 109.95L205.868 142.903Z" fill="#EBEBEB"/>
<path d="M310.841 256.152C289.958 240.782 277.365 223.457 267.021 257.233C256.17 250.823 246.326 244.118 238.617 237.346C196.904 200.697 175.839 236.652 161.05 273.922C146.26 311.192 134.813 374.008 134.813 374.008L223.992 348.436L374.419 305.302L379.87 303.739C379.87 303.739 331.85 271.616 310.841 256.152Z" fill="#F5F5F5"/>
<path d="M263.135 286.991C251.002 274.454 243.217 260.973 239.8 285.523C236.55 308.872 222.512 348.861 222.512 348.861L302.801 325.839C302.801 325.839 275.267 299.528 263.135 286.991Z" fill="#F0F0F0"/>
<path d="M96.2343 196.4C97.0034 196.209 97.6148 196.234 98.0317 196.435C101.162 193.624 105.072 191.327 108.631 190.437C110.44 189.981 111.951 189.943 113.108 190.255C116.216 186.475 120.669 183.151 124.348 182.097C126.438 181.497 127.937 181.73 128.731 182.608C132.23 179.665 136.065 177.375 139.446 176.405C144.839 174.859 147.501 177.122 146.576 181.637C149.139 180.978 151.725 181.915 150.297 183.831L90.7437 200.908C90.791 200.801 90.8384 200.695 90.8943 200.582C91.7955 198.785 94.1833 196.913 96.2343 196.4Z" fill="#FAFAFA"/>
<path d="M162.705 196.093C163.158 195.981 163.514 196.025 163.757 196.192C165.593 194.271 167.879 192.76 169.957 192.259C171.017 192.001 171.9 192.038 172.571 192.314C172.574 192.315 172.574 192.313 172.574 192.313C174.393 189.691 177.002 187.454 179.154 186.836C180.379 186.485 181.254 186.716 181.712 187.389C183.761 185.388 186.005 183.879 187.984 183.311C190.437 182.608 191.921 183.514 192.201 185.483C193.204 184.6 194.258 183.946 195.203 183.675C196.513 183.299 197.329 183.739 197.541 184.734C197.656 184.701 197.772 184.673 197.887 184.65C199.939 184.238 201.116 185.264 200.624 186.965L159.67 198.708C160.257 197.511 161.57 196.367 162.705 196.093Z" fill="#FAFAFA"/>
<path d="M113.601 230.124C113.914 230.047 114.16 230.078 114.328 230.193C115.598 228.865 117.179 227.82 118.615 227.474C119.348 227.295 119.959 227.32 120.422 227.511C120.424 227.513 120.424 227.511 120.424 227.511C121.682 225.698 123.486 224.151 124.974 223.724C125.821 223.482 126.425 223.641 126.743 224.106C128.159 222.723 129.711 221.679 131.079 221.287C132.775 220.8 133.802 221.427 133.994 222.788C134.688 222.178 135.416 221.725 136.07 221.538C136.976 221.278 137.541 221.582 137.688 222.27C137.767 222.247 137.848 222.228 137.927 222.212C139.346 221.927 140.159 222.637 139.819 223.813L111.502 231.932C111.908 231.105 112.816 230.313 113.601 230.124Z" fill="#FAFAFA"/>
<path d="M302.831 169.751C314.298 166.462 320.929 154.501 317.64 143.033C314.352 131.566 302.39 124.935 290.923 128.223C279.455 131.512 272.825 143.473 276.113 154.941C279.401 166.408 291.363 173.039 302.831 169.751Z" fill="#F0F0F0"/>
<path d="M246.026 162.912C246.795 162.722 247.407 162.747 247.824 162.948C250.954 160.137 254.864 157.839 258.423 156.949C260.232 156.494 261.744 156.455 262.9 156.768C266.008 152.988 270.462 149.664 274.141 148.609C276.231 148.01 277.729 148.243 278.524 149.12C282.022 146.178 285.857 143.887 289.239 142.918C294.631 141.371 297.294 143.634 296.368 148.15C298.932 147.491 301.518 148.427 300.09 150.344L240.536 167.421C240.583 167.314 240.63 167.207 240.686 167.095C241.587 165.298 243.975 163.426 246.026 162.912Z" fill="#FAFAFA"/>
<path d="M295.262 184.845C295.715 184.734 296.071 184.778 296.314 184.944C298.15 183.024 300.436 181.513 302.514 181.012C303.574 180.754 304.457 180.79 305.128 181.066C305.131 181.068 305.131 181.066 305.131 181.066C306.95 178.444 309.559 176.207 311.711 175.59C312.936 175.239 313.811 175.47 314.269 176.142C316.318 174.141 318.562 172.632 320.541 172.065C322.994 171.362 324.479 172.268 324.758 174.236C325.761 173.354 326.815 172.699 327.76 172.428C329.07 172.053 329.886 172.492 330.098 173.487C330.214 173.454 330.329 173.426 330.445 173.404C332.496 172.991 333.674 174.018 333.181 175.718L292.227 187.462C292.814 186.265 294.126 185.12 295.262 184.845Z" fill="#FAFAFA"/>
<path d="M263.331 366.248C327.059 347.974 377.856 330.143 376.789 326.422C375.722 322.7 323.195 334.497 259.467 352.77C195.738 371.044 144.942 388.875 146.009 392.597C147.076 396.318 199.603 384.522 263.331 366.248Z" fill="#F5F5F5"/>
<path d="M323.163 257.026L322.645 257.364L325.387 261.577L325.906 261.24L323.163 257.026Z" fill="#407BFF"/>
<path d="M312.57 240.777L312.051 241.114L320.208 253.65L320.726 253.312L312.57 240.777Z" fill="#407BFF"/>
<path d="M276.258 188.919L255.08 194.992L252.207 351.508C252.111 356.751 257.112 360.592 262.152 359.147L357.248 331.879C362.288 330.434 364.494 324.525 361.634 320.131L276.258 188.919Z" fill="#407BFF"/>
<path opacity="0.2" d="M276.258 188.917L265.669 191.954L296.278 349.36L357.248 331.877C362.288 330.432 364.495 324.523 361.635 320.128L276.258 188.917Z" fill="#263238"/>
<path opacity="0.2" d="M276.258 188.918L271.289 190.343L330.466 339.557L357.249 331.878C362.289 330.432 364.496 324.524 361.636 320.129L276.258 188.918Z" fill="#263238"/>
<path opacity="0.2" d="M255.079 194.992L260.181 193.529L267.712 357.553L262.153 359.147C257.112 360.592 252.11 356.751 252.207 351.508L255.079 194.992Z" fill="white"/>
<path d="M263.863 186.287C270.216 184.465 277.002 187.134 280.412 192.797L294.532 216.244L295.018 224.8L286.176 220.197L283.925 237.213L274.913 228.418L270.477 241.069L262.714 226.227L258.507 237.165L253.925 227.244L253.28 200.691C253.119 194.041 257.468 188.121 263.863 186.287Z" fill="#407BFF"/>
<path opacity="0.7" d="M263.863 186.287C270.216 184.465 277.002 187.134 280.412 192.797L294.532 216.244L295.018 224.8L286.176 220.197L283.925 237.213L274.913 228.418L270.477 241.069L262.714 226.227L258.507 237.165L253.925 227.244L253.28 200.691C253.119 194.041 257.468 188.121 263.863 186.287Z" fill="white"/>
<path d="M296.454 349.959C296.229 350.023 295.977 349.957 295.814 349.768L279.46 330.795C279.286 330.593 279.261 330.302 279.398 330.074L308.11 282.026L270.083 241.478C269.992 241.381 269.935 241.257 269.92 241.125L263.893 187.893C263.854 187.553 264.098 187.245 264.438 187.207C264.778 187.169 265.084 187.413 265.123 187.753L271.127 240.781L309.332 281.519C309.522 281.72 309.554 282.023 309.412 282.26L280.689 330.325L296.752 348.96C296.975 349.218 296.946 349.61 296.687 349.833C296.618 349.893 296.538 349.935 296.454 349.959Z" fill="white"/>
<path d="M315.173 281.664C315.009 278.192 312.06 275.511 308.588 275.675C305.116 275.84 302.434 278.788 302.599 282.261C302.764 285.733 305.712 288.414 309.184 288.25C312.657 288.085 315.338 285.137 315.173 281.664Z" fill="#407BFF"/>
<path d="M310.785 288.59C307.121 289.641 303.285 287.515 302.234 283.85C301.183 280.186 303.309 276.349 306.974 275.298C310.638 274.248 314.475 276.374 315.526 280.039C316.576 283.703 314.45 287.539 310.785 288.59ZM307.315 276.489C304.308 277.352 302.562 280.501 303.424 283.509C304.287 286.518 307.436 288.263 310.444 287.4C313.453 286.538 315.198 283.389 314.335 280.381C313.473 277.372 310.324 275.627 307.315 276.489Z" fill="white"/>
<path d="M286.184 329.652C285.773 326.2 282.642 323.734 279.19 324.145C275.738 324.555 273.272 327.686 273.682 331.139C274.093 334.591 277.224 337.056 280.676 336.646C284.129 336.235 286.594 333.104 286.184 329.652Z" fill="#407BFF"/>
<path d="M281.83 337.041C278.166 338.092 274.33 335.966 273.279 332.301C272.228 328.637 274.354 324.8 278.019 323.75C281.683 322.699 285.52 324.825 286.57 328.49C287.621 332.155 285.495 335.99 281.83 337.041ZM278.36 324.94C275.352 325.803 273.607 328.952 274.469 331.96C275.332 334.969 278.481 336.714 281.489 335.852C284.497 334.989 286.243 331.84 285.38 328.832C284.518 325.823 281.369 324.078 278.36 324.94Z" fill="white"/>
<path d="M272.274 247.109C275.616 246.15 277.548 242.665 276.59 239.323C275.632 235.981 272.146 234.049 268.804 235.007C265.462 235.965 263.53 239.451 264.488 242.793C265.447 246.135 268.932 248.067 272.274 247.109Z" fill="#407BFF"/>
<path d="M272.443 247.703C268.779 248.754 264.942 246.628 263.892 242.963C262.841 239.299 264.967 235.462 268.632 234.411C272.296 233.361 276.132 235.487 277.183 239.151C278.234 242.816 276.107 246.652 272.443 247.703ZM268.973 235.601C265.965 236.464 264.219 239.613 265.082 242.621C265.944 245.63 269.093 247.375 272.102 246.513C275.11 245.65 276.856 242.501 275.993 239.493C275.13 236.485 271.981 234.739 268.973 235.601Z" fill="white"/>
<path d="M270.763 187.076C270.353 183.624 267.221 181.158 263.769 181.569C260.317 181.979 257.852 185.111 258.262 188.563C258.673 192.015 261.804 194.481 265.256 194.07C268.708 193.66 271.174 190.528 270.763 187.076Z" fill="#407BFF"/>
<path d="M266.413 194.469C262.749 195.52 258.913 193.394 257.862 189.729C256.811 186.064 258.937 182.228 262.602 181.177C266.267 180.126 270.103 182.253 271.153 185.918C272.204 189.582 270.077 193.418 266.413 194.469ZM262.943 182.368C259.936 183.231 258.19 186.38 259.052 189.388C259.915 192.396 263.064 194.142 266.072 193.279C269.081 192.417 270.826 189.268 269.963 186.259C269.101 183.251 265.951 181.506 262.943 182.368Z" fill="white"/>
<path d="M264.494 187.865C264.166 187.959 263.822 187.769 263.728 187.44L256.058 160.692C255.964 160.363 256.154 160.02 256.483 159.926C256.811 159.832 257.154 160.022 257.249 160.351L264.919 187.099C265.013 187.428 264.823 187.77 264.494 187.865Z" fill="#407BFF"/>
<path d="M235.841 178.527C241.696 178.816 245.987 173.65 251.843 173.939C250.973 170.908 250.104 167.877 249.235 164.846C243.38 164.557 239.09 169.724 233.234 169.434C234.103 172.465 234.972 175.496 235.841 178.527Z" fill="#407BFF"/>
<path opacity="0.2" d="M239.178 168.098L241.784 177.186C245.042 175.768 248.13 173.756 251.847 173.939L249.239 164.846C245.522 164.662 242.434 166.675 239.178 168.098Z" fill="black"/>
<path d="M243.264 174.199C249.119 174.487 253.41 169.322 259.265 169.61C258.396 166.579 257.527 163.549 256.658 160.518C250.803 160.228 246.513 165.395 240.657 165.106C241.526 168.136 242.395 171.168 243.264 174.199Z" fill="#407BFF"/>
<path d="M172.839 255.696L175.545 258.143L170.426 260.346C170.426 260.346 170.201 259.148 170.096 257.287C170.053 256.51 170.636 255.84 171.413 255.789L172.839 255.696Z" fill="#7F3E3B"/>
<path d="M176.475 263.038L171.975 262.954L170.426 260.346L175.546 258.144L176.475 263.038Z" fill="#7F3E3B"/>
<path d="M178.793 217.933C179.372 217.555 180.055 217.071 180.69 216.63C181.335 216.176 181.972 215.707 182.599 215.228C183.848 214.264 185.086 213.289 186.243 212.253C188.564 210.215 190.724 207.971 192.077 205.651C192.424 205.076 192.682 204.503 192.882 203.95L192.953 203.744C192.979 203.726 193.021 203.395 192.94 204.021C192.909 204.431 193.008 204.822 193.101 205.048C193.124 205.106 193.15 205.163 193.18 205.218L193.244 205.335C193.266 205.371 193.291 205.408 193.315 205.439L193.36 205.502C193.491 205.655 193.512 205.638 193.487 205.609C193.448 205.57 193.382 205.505 193.283 205.43C192.88 205.121 192.221 204.763 191.558 204.444C190.882 204.124 190.167 203.796 189.434 203.493C186.491 202.279 183.352 201.153 180.269 200.009L180.987 196.67C184.41 196.98 187.741 197.499 191.137 198.36C191.985 198.583 192.843 198.811 193.712 199.117C194.59 199.427 195.463 199.745 196.481 200.312C196.999 200.632 197.544 200.904 198.308 201.837L198.447 202.025L198.597 202.264C198.646 202.347 198.69 202.421 198.737 202.517C198.787 202.62 198.833 202.725 198.876 202.831C199.05 203.249 199.18 203.851 199.139 204.469C199.041 205.303 199.01 205.169 198.981 205.353L198.879 205.747C198.592 206.787 198.212 207.763 197.762 208.653C195.939 212.22 193.45 214.909 190.864 217.353C189.554 218.56 188.211 219.7 186.808 220.757C186.11 221.288 185.403 221.806 184.683 222.311C183.953 222.826 183.258 223.282 182.427 223.793L178.793 217.933Z" fill="#7F3E3B"/>
<path d="M175.422 197.064L172.845 200.043L177.678 199.779L177.925 196.247L175.422 197.064Z" fill="#7F3E3B"/>
<path d="M182.296 196.816L177.928 196.248L177.682 199.78C177.682 199.78 181.697 202.131 183.039 199.408L182.296 196.816Z" fill="#7F3E3B"/>
<path d="M166.116 227.72C165.41 230.79 164.717 233.957 164.083 237.074C163.455 240.195 162.85 243.332 162.477 246.39C162.372 247.158 162.302 247.909 162.241 248.655L162.218 248.902C162.217 248.879 162.206 248.854 162.203 248.837C162.186 248.799 162.175 248.786 162.167 248.794C162.157 248.815 162.177 248.931 162.268 249.098C162.444 249.434 162.835 249.895 163.308 250.33C163.784 250.768 164.332 251.222 164.927 251.646C167.316 253.35 170.179 254.89 172.968 256.305L171.915 259.554C168.545 258.858 165.351 257.888 162.135 256.256C161.336 255.836 160.528 255.38 159.731 254.803C158.936 254.22 158.125 253.554 157.354 252.561C156.971 252.066 156.603 251.455 156.334 250.703C156.202 250.324 156.094 249.914 156.042 249.469C156.011 249.251 156.002 249.022 155.998 248.795L156.001 248.432C156.01 247.55 156.033 246.674 156.088 245.82C156.291 242.385 156.772 239.086 157.324 235.798C157.91 232.514 158.583 229.305 159.427 226.046L166.116 227.72Z" fill="#7F3E3B"/>
<path d="M164.823 207.46C165.59 211.592 167.277 215.322 167.379 219.075C167.379 219.075 169.309 222.033 175.252 220.329C181.788 218.455 177.32 216.226 177.32 216.226C173.476 216.406 172.707 213.762 172.52 211.127L164.823 207.46Z" fill="#7F3E3B"/>
<path d="M166.882 220.421C166.079 219.54 165.181 218.525 166.128 217.855C167.17 217.118 173.46 214.867 175.923 214.984C178.385 215.101 178.435 217.341 178.435 217.341L166.882 220.421Z" fill="#263238"/>
<path d="M196.097 370.403C195.638 370.435 195.137 370.374 194.787 370.315C194.74 370.307 194.703 370.272 194.692 370.226C194.681 370.179 194.699 370.131 194.737 370.104C194.91 369.978 196.441 368.885 197.009 369.128C197.097 369.166 197.207 369.252 197.233 369.446C197.268 369.708 197.201 369.923 197.034 370.084C196.822 370.288 196.474 370.377 196.097 370.403ZM195.116 370.126C195.969 370.236 196.614 370.16 196.87 369.914C196.982 369.806 197.025 369.663 197 369.477C196.988 369.386 196.949 369.358 196.916 369.344C196.621 369.218 195.739 369.705 195.116 370.126Z" fill="#407BFF"/>
<path d="M194.815 370.316C194.793 370.317 194.77 370.313 194.75 370.301C194.712 370.281 194.688 370.24 194.689 370.198C194.689 370.136 194.708 368.698 195.252 368.187C195.393 368.055 195.558 367.992 195.742 368.002C196.025 368.017 196.11 368.185 196.137 368.283C196.28 368.829 195.364 369.984 194.87 370.298C194.853 370.309 194.835 370.315 194.815 370.316ZM195.676 368.237C195.58 368.244 195.493 368.284 195.414 368.359C195.065 368.686 194.965 369.531 194.936 369.953C195.419 369.53 195.994 368.666 195.909 368.343C195.901 368.314 195.883 368.245 195.73 368.236C195.711 368.236 195.694 368.236 195.676 368.237Z" fill="#407BFF"/>
<path d="M227.659 364.726C227.218 364.852 226.715 364.897 226.36 364.912C226.313 364.914 226.269 364.887 226.249 364.845C226.229 364.802 226.236 364.751 226.268 364.716C226.411 364.557 227.681 363.169 228.286 363.289C228.381 363.307 228.506 363.369 228.572 363.553C228.661 363.802 228.639 364.025 228.51 364.218C228.345 364.461 228.023 364.621 227.659 364.726ZM226.643 364.659C227.5 364.589 228.116 364.381 228.314 364.086C228.401 363.957 228.413 363.809 228.35 363.632C228.319 363.545 228.275 363.526 228.24 363.52C227.926 363.457 227.165 364.117 226.643 364.659Z" fill="#407BFF"/>
<path d="M226.388 364.905C226.366 364.911 226.343 364.912 226.321 364.905C226.28 364.892 226.249 364.858 226.24 364.816C226.228 364.756 225.947 363.345 226.371 362.732C226.482 362.573 226.631 362.477 226.812 362.448C227.091 362.404 227.211 362.55 227.257 362.641C227.511 363.145 226.855 364.465 226.437 364.876C226.424 364.89 226.406 364.9 226.388 364.905ZM226.797 362.693C226.704 362.719 226.628 362.777 226.565 362.867C226.293 363.259 226.371 364.106 226.43 364.525C226.815 364.011 227.197 363.046 227.047 362.749C227.033 362.722 227.001 362.658 226.848 362.682C226.831 362.684 226.814 362.688 226.797 362.693Z" fill="#407BFF"/>
<path d="M221.197 366.207L225.569 364.953L222.71 354.815L218.339 356.069L221.197 366.207Z" fill="#7F3E3B"/>
<path d="M189.416 370.967L193.824 370.58L194.451 359.655L190.044 360.043L189.416 370.967Z" fill="#7F3E3B"/>
<path d="M194.22 369.833L189.123 370.188C188.937 370.2 188.79 370.34 188.77 370.524L188.31 374.608C188.262 375.032 188.634 375.404 189.061 375.367C190.838 375.212 191.691 375.048 193.932 374.892C195.312 374.796 198.168 374.742 200.073 374.609C201.936 374.479 202.023 372.581 201.224 372.465C197.646 371.946 196.215 370.985 194.986 370.06C194.766 369.894 194.492 369.815 194.22 369.833Z" fill="#263238"/>
<path d="M225.374 364.462L220.599 365.832C220.42 365.883 220.306 366.05 220.324 366.234L220.725 370.325C220.767 370.749 221.197 371.039 221.607 370.913C223.319 370.391 225.775 369.577 227.94 368.956C230.471 368.231 230.635 368.333 233.603 367.482C235.398 366.967 235.306 365.03 234.501 365.083C230.837 365.324 230.086 365.452 226.538 364.498C226.152 364.394 225.751 364.354 225.374 364.462Z" fill="#263238"/>
<path d="M160.428 222.014C156.721 224.265 155.154 236.757 155.154 236.757L165.888 239.326C165.888 239.326 166.919 234.768 167.649 229.278C168.414 223.525 166.613 218.259 160.428 222.014Z" fill="#263238"/>
<path d="M192.193 234.165C193.561 239.054 195.006 245.209 196.44 252.952L173.051 259.659C171.794 256.345 168.646 240.089 160.724 225.022C159.971 223.589 160.56 221.818 162.036 221.151C163.391 220.538 165.106 219.816 166.823 219.232C169.765 218.234 174.06 216.899 176.762 216.382C178.272 216.094 179.781 215.919 181.017 215.814C183.025 215.643 184.969 216.595 186.024 218.312C187.081 220.033 188.464 222.809 190.023 227.233C190.717 229.204 191.445 231.494 192.193 234.165Z" fill="#263238"/>
<path d="M178.463 225.978C182.684 226.945 190.398 222.243 190.398 222.243L186.71 211.029C186.71 211.029 183.083 212.4 178.573 215.943C173.536 219.899 173.708 224.889 178.463 225.978Z" fill="#263238"/>
<path d="M180.312 214.361C180.312 214.361 178.79 215.442 178.218 215.804C176.681 218.912 176.819 224.666 176.819 224.666L180.753 227.617C178.07 222.34 180.312 214.361 180.312 214.361Z" fill="#407BFF"/>
<path opacity="0.2" d="M180.312 214.361C180.312 214.361 178.79 215.442 178.218 215.804C176.681 218.912 176.819 224.666 176.819 224.666L180.753 227.617C178.07 222.34 180.312 214.361 180.312 214.361Z" fill="black"/>
<path d="M194.096 240.788C192.36 243.147 186.777 240.418 186.777 240.418L187.491 242.409C192.532 244.64 194.454 242.265 194.454 242.265C194.454 242.265 194.413 241.591 194.096 240.788Z" fill="#407BFF"/>
<path opacity="0.2" d="M194.096 240.788C192.36 243.147 186.777 240.418 186.777 240.418L187.491 242.409C192.532 244.64 194.454 242.265 194.454 242.265C194.454 242.265 194.413 241.591 194.096 240.788Z" fill="black"/>
<path d="M165.479 219.46C164.224 219.953 163.59 220.349 163.59 220.349C163.59 220.349 162.983 224.374 165.237 228.585L167.473 226.696C167.473 226.696 165.539 223.041 165.479 219.46Z" fill="#407BFF"/>
<path opacity="0.2" d="M165.479 219.46C164.224 219.953 163.59 220.349 163.59 220.349C163.59 220.349 162.983 224.374 165.237 228.585L167.473 226.696C167.473 226.696 165.539 223.041 165.479 219.46Z" fill="black"/>
<path d="M164.713 228.156C165.48 225.573 176.29 222.739 179.123 223.863C181.956 224.988 190.362 243.72 187.554 246.886C184.747 250.053 169.202 255.638 167.824 251.256C166.445 246.874 167.85 238.162 166.69 235.748C165.531 233.333 163.667 231.677 164.713 228.156Z" fill="#407BFF"/>
<path opacity="0.4" d="M166.814 234.933C166.814 234.933 171.165 235.335 178.917 231.11C177.548 232.413 169.587 236.776 166.814 234.933Z" fill="#263238"/>
<path opacity="0.4" d="M171.376 233.007C171.532 233.357 171.414 233.711 171.113 233.798C170.812 233.884 170.441 233.67 170.285 233.32C170.129 232.969 170.246 232.615 170.548 232.529C170.849 232.442 171.22 232.656 171.376 233.007Z" fill="#263238"/>
<path opacity="0.4" d="M185.498 247.815C185.484 247.819 185.468 247.822 185.452 247.821C185.367 247.819 185.299 247.749 185.3 247.664C185.377 243.165 183.585 237.506 179.973 230.844C178.476 228.082 178.4 225.011 178.624 224.31C178.65 224.229 178.737 224.184 178.819 224.21C178.9 224.236 178.945 224.323 178.919 224.404C178.688 225.128 178.86 228.143 180.245 230.697C183.882 237.406 185.687 243.116 185.61 247.669C185.608 247.738 185.561 247.797 185.498 247.815Z" fill="#263238"/>
<g opacity="0.2">
<path d="M222.712 354.818L224.187 360.043L219.812 361.297L218.338 356.072L222.712 354.818Z" fill="black"/>
<path d="M190.044 360.048L194.453 359.661L194.127 365.292L189.718 365.679L190.044 360.048Z" fill="black"/>
</g>
<path d="M188.14 255.331C188.14 255.331 194.049 289.796 195.398 302.956C196.875 317.367 196.506 364.037 196.506 364.037L188.196 364.615C188.196 364.615 185.401 321.855 182.687 307.945C179.741 292.849 173.051 259.658 173.051 259.658L188.14 255.331Z" fill="#407BFF"/>
<path d="M197.503 360.891C197.538 360.888 196.99 364.133 196.99 364.133L187.64 364.783L187.503 361.931L197.503 360.891Z" fill="#263238"/>
<path opacity="0.2" d="M188.88 268.004C183.509 270.761 191.077 291.745 195.348 302.429C194.472 294.263 192.024 278.766 190.222 267.786C189.78 267.707 189.332 267.771 188.88 268.004Z" fill="black"/>
<path d="M196.437 252.95C196.437 252.95 207.675 285.105 211.537 298.426C215.555 312.282 225.484 358.577 225.484 358.577L218.077 360.7C218.077 360.7 203.296 316.675 198.535 303.3C193.345 288.72 181.066 257.359 181.066 257.359L196.437 252.951L196.437 252.95Z" fill="#407BFF"/>
<path d="M225.95 355.252C225.984 355.242 226.532 358.413 226.532 358.413L217.523 360.996L216.387 358.352L225.95 355.252Z" fill="#263238"/>
<path d="M173.552 200.447C173.702 200.782 174.004 200.981 174.226 200.892C174.449 200.803 174.508 200.459 174.358 200.123C174.209 199.788 173.907 199.589 173.684 199.678C173.462 199.767 173.403 200.111 173.552 200.447Z" fill="#263238"/>
<path d="M173.975 200.997C173.975 200.997 175.612 202.62 176.881 203.211C176.526 204.006 175.389 204.164 175.389 204.164L173.975 200.997Z" fill="#630F0F"/>
<path d="M173.04 198.126C173.094 198.085 173.13 198.02 173.128 197.947C173.126 197.829 173.028 197.734 172.909 197.736C172.866 197.737 171.86 197.766 171.245 198.764C171.182 198.866 171.214 198.999 171.315 199.061C171.417 199.124 171.549 199.092 171.612 198.99C172.104 198.189 172.908 198.167 172.917 198.167C172.963 198.166 173.005 198.15 173.04 198.126Z" fill="#263238"/>
<path d="M161.879 204.289C163.973 208.303 164.993 210.751 168.049 212.017C172.645 213.922 176.965 209.967 176.128 205.457C175.375 201.398 172.076 195.516 167.25 195.518C162.497 195.521 159.784 200.275 161.879 204.289Z" fill="#7F3E3B"/>
<path d="M171.257 202.286C171.178 204.744 168.366 210.202 167.032 210.942C165.697 211.683 160.806 209.417 159.942 207.749C158.466 207.995 156.08 205.593 157.944 203.849C156.108 203.492 155.313 199.119 158.66 198.49C156.12 197.145 157.581 193.22 160.537 193.302C160.713 191.463 164.079 189.352 166.919 191.293C168.302 189.895 171.724 190.935 172.314 193.794C172.717 195.749 171.413 197.814 170.209 198.459C171.141 199.109 171.257 202.286 171.257 202.286Z" fill="#263238"/>
<path d="M168.902 202.321C169.461 203.374 170.43 204.182 171.339 204.596C172.708 205.218 173.373 204.202 172.977 202.917C172.62 201.761 171.479 200.044 170.113 199.954C168.767 199.866 168.262 201.117 168.902 202.321Z" fill="#7F3E3B"/>
</g>
<defs>
<clipPath id="clip0_54_3159">
<rect width="309.559" height="309.559" fill="white" transform="translate(41.5879 154.456) rotate(-16)"/>
</clipPath>
</defs>
</svg>
