<svg width="99" height="99" viewBox="0 0 99 99" fill="none" xmlns="http://www.w3.org/2000/svg">
<path d="M43.2254 67.9351H56.9366M38.8667 76H60.1333C62.1868 76 63.2137 76 63.998 75.1591C64.6879 74.4197 65.2489 73.2394 65.6003 71.788C66 70.1379 66 67.9775 66 63.6571V34.3429C66 30.0225 66 27.8622 65.6003 26.2121C65.2489 24.7605 64.6879 23.5804 63.998 22.8408C63.2137 22 62.1868 22 60.1333 22H38.8667C36.8131 22 35.7864 22 35.002 22.8408C34.3121 23.5804 33.7512 24.7605 33.3996 26.2121C33 27.8622 33 30.0224 33 34.3429V63.6571C33 67.9775 33 70.1379 33.3996 71.788C33.7512 73.2394 34.3121 74.4197 35.002 75.1591C35.7864 76 36.8131 76 38.8667 76Z" stroke="black" stroke-width="3.19355" stroke-linecap="round" stroke-linejoin="round"/>
</svg>
