<svg width="99" height="99" viewBox="0 0 99 99" fill="none" xmlns="http://www.w3.org/2000/svg">
<path d="M28.875 86.625H70.125M25.575 70.125H73.425C78.0454 70.125 80.3558 70.125 82.1205 69.2257C83.6727 68.435 84.935 67.1727 85.7257 65.6205C86.625 63.8558 86.625 61.5454 86.625 56.925V25.575C86.625 20.9546 86.625 18.6443 85.7257 16.8796C84.935 15.3272 83.6727 14.0651 82.1205 13.2742C80.3558 12.375 78.0454 12.375 73.425 12.375H25.575C20.9546 12.375 18.6443 12.375 16.8796 13.2742C15.3272 14.0651 14.0651 15.3272 13.2742 16.8796C12.375 18.6443 12.375 20.9545 12.375 25.575V56.925C12.375 61.5454 12.375 63.8558 13.2742 65.6205C14.0651 67.1727 15.3272 68.435 16.8796 69.2257C18.6443 70.125 20.9545 70.125 25.575 70.125Z" stroke="black" stroke-width="3.19355" stroke-linecap="round" stroke-linejoin="round"/>
</svg>
