<svg width="56" height="56" viewBox="0 0 56 56" fill="none" xmlns="http://www.w3.org/2000/svg">
<g clip-path="url(#clip0_1671_22941)">
<path d="M41.7948 22.7695L29.1601 15.0803C28.942 14.9466 28.7146 14.8411 28.4801 14.7543V14.6723L27.2654 13.9336V33.7838H35.8879L35.8058 41.684L27.9009 41.5996L21.6351 41.534L21.3232 41.5293L21.3584 38.0915L21.4592 28.1371L11.6431 23.0087L10.398 22.3567L10.3628 25.8156V25.8766C10.3604 25.9117 10.3581 25.9446 10.3581 25.9797L10.2033 41.0814C10.1893 42.5447 10.9326 43.9071 12.159 44.6528L24.7938 52.342C26.0202 53.0877 27.5397 53.1041 28.7779 52.3842L41.5674 44.9694C42.8079 44.2518 43.5817 42.9058 43.5958 41.4425L43.7506 26.3409C43.7646 24.8753 43.0213 23.5152 41.7948 22.7695Z" fill="#6966CF"/>
<path d="M21.4831 25.6996L21.5699 17.1287L21.5722 17.1264L21.6379 10.6613L10.5813 4.01562L10.4219 19.9216L13.7517 21.6616L21.4831 25.6996Z" fill="#38E9B1"/>
</g>
<defs>
<clipPath id="clip0_1671_22941">
<rect width="56" height="56" fill="white"/>
</clipPath>
</defs>
</svg>
