<svg width="263" height="56" viewBox="0 0 263 56" fill="none" xmlns="http://www.w3.org/2000/svg">
<g clip-path="url(#clip0_1662_22948)">
<path d="M41.7948 22.7695L29.1601 15.0803C28.942 14.9466 28.7146 14.8411 28.4801 14.7543V14.6723L27.2654 13.9336V33.7838H35.8879L35.8058 41.684L27.9009 41.5996L21.6351 41.534L21.3232 41.5293L21.3584 38.0915L21.4592 28.1371L11.6431 23.0087L10.398 22.3567L10.3628 25.8156V25.8766C10.3604 25.9117 10.3581 25.9446 10.3581 25.9797L10.2033 41.0814C10.1893 42.5447 10.9326 43.9071 12.159 44.6528L24.7938 52.342C26.0202 53.0877 27.5397 53.1041 28.7779 52.3842L41.5674 44.9694C42.8079 44.2518 43.5817 42.9058 43.5958 41.4425L43.7506 26.3409C43.7646 24.8753 43.0213 23.5152 41.7948 22.7695Z" fill="#6966CF"/>
<path d="M21.4831 25.6996L21.5699 17.1287L21.5722 17.1264L21.6379 10.6613L10.5813 4.01562L10.4219 19.9216L13.7517 21.6616L21.4831 25.6996Z" fill="#38E9B1"/>
</g>
<path d="M77.5273 42.0352H83.8164C85.2747 42.0352 86.4336 41.7617 87.293 41.2148C88.4388 40.4727 89.0117 39.2812 89.0117 37.6406C89.0117 36 88.4388 34.8151 87.293 34.0859C86.4336 33.526 85.2747 33.2461 83.8164 33.2461H77.5273V42.0352ZM77.5273 21.8008V29.2812H83.6406C86.6094 29.2812 88.0938 28.0378 88.0938 25.5508C88.0938 23.0508 86.6094 21.8008 83.6406 21.8008H77.5273ZM92.0391 25.5508C92.0391 27.8294 91.3099 29.6654 89.8516 31.0586C91.9349 32.582 92.9766 34.776 92.9766 37.6406C92.9766 40.1797 92.1432 42.2109 90.4766 43.7344C88.8099 45.2448 86.5898 46 83.8164 46H73.5625V17.8555H83.6406C86.1927 17.8555 88.2305 18.5521 89.7539 19.9453C91.2773 21.3385 92.0391 23.207 92.0391 25.5508ZM97.3125 17.8555H115.379V21.8008H101.277V29.9453H110.828V33.9102H101.277V42.0352H115.379V46H97.3125V17.8555ZM125.438 29.4766C125.971 29.5677 126.551 29.6133 127.176 29.6133C130.236 29.6133 132.658 30.349 134.441 31.8203C136.225 33.2786 137.117 35.2773 137.117 37.8164C137.117 40.3424 136.225 42.3346 134.441 43.793C132.658 45.2643 130.236 46 127.176 46C124.168 46 121.779 45.2969 120.008 43.8906C118.237 42.4844 117.312 40.5573 117.234 38.1094L121.062 37.8164H121.18C121.18 39.444 121.902 40.6094 123.348 41.3125C123.895 41.5859 124.546 41.7812 125.301 41.8984C125.874 41.9896 126.499 42.0352 127.176 42.0352C127.84 42.0352 128.465 41.9896 129.051 41.8984C129.793 41.7812 130.444 41.5859 131.004 41.3125C132.436 40.6094 133.152 39.444 133.152 37.8164C133.152 36.1888 132.436 35.0169 131.004 34.3008C130.444 34.0273 129.793 33.832 129.051 33.7148C128.465 33.6237 127.84 33.5781 127.176 33.5781C124.285 33.5781 121.974 32.862 120.242 31.4297C118.523 29.9974 117.664 28.0898 117.664 25.707C117.664 23.3242 118.523 21.4167 120.242 19.9844C121.974 18.5651 124.285 17.8555 127.176 17.8555C129.949 17.8555 132.195 18.5195 133.914 19.8477C135.62 21.1628 136.538 22.9401 136.668 25.1797L132.723 25.5117C132.658 24.0924 131.967 23.0703 130.652 22.4453C130.145 22.2109 129.552 22.0417 128.875 21.9375C128.341 21.8464 127.775 21.8008 127.176 21.8008C126.551 21.8008 125.971 21.8464 125.438 21.9375C124.734 22.0547 124.129 22.237 123.621 22.4844C122.28 23.1354 121.609 24.2096 121.609 25.707C121.609 27.2044 122.28 28.2786 123.621 28.9297C124.129 29.1771 124.734 29.3594 125.438 29.4766ZM137.938 17.8555H157.996V21.8203H149.949V46H145.984V21.8203H137.938V17.8555ZM171.062 17.8555H175.027V42.0352H187.293V46H171.062V17.8555ZM204.324 17.8359V17.8555L214.012 46H209.832L207.137 38.207H197.312L194.617 46H190.438L200.125 17.8555V17.8359V17.8555H204.305L204.324 17.8359ZM198.66 34.2617H205.789L202.215 23.9297L198.66 34.2617ZM221.121 42.0352H227.41C228.868 42.0352 230.027 41.7617 230.887 41.2148C232.033 40.4727 232.605 39.2812 232.605 37.6406C232.605 36 232.033 34.8151 230.887 34.0859C230.027 33.526 228.868 33.2461 227.41 33.2461H221.121V42.0352ZM221.121 21.8008V29.2812H227.234C230.203 29.2812 231.688 28.0378 231.688 25.5508C231.688 23.0508 230.203 21.8008 227.234 21.8008H221.121ZM235.633 25.5508C235.633 27.8294 234.904 29.6654 233.445 31.0586C235.529 32.582 236.57 34.776 236.57 37.6406C236.57 40.1797 235.737 42.2109 234.07 43.7344C232.404 45.2448 230.184 46 227.41 46H217.156V17.8555H227.234C229.786 17.8555 231.824 18.5521 233.348 19.9453C234.871 21.3385 235.633 23.207 235.633 25.5508ZM239.793 17.8555H259.793V21.6445L244.734 42.0352H260.77V46H239.695V42.2109L254.754 21.8008H239.793V17.8555Z" fill="black"/>
<defs>
<clipPath id="clip0_1662_22948">
<rect width="56" height="56" fill="white"/>
</clipPath>
</defs>
</svg>
