<svg width="31" height="31" viewBox="0 0 31 31" fill="none" xmlns="http://www.w3.org/2000/svg">
<path d="M26.6043 16.1748L18.0716 24.7074C17.8044 24.9746 17.4421 25.1247 17.0643 25.1247C16.6864 25.1247 16.3241 24.9746 16.0569 24.7074C15.7898 24.4403 15.6397 24.0779 15.6397 23.7001C15.6397 23.3223 15.7898 22.9599 16.0569 22.6928L22.1613 16.5907H4.74047C4.3633 16.5907 4.00158 16.4409 3.73489 16.1742C3.46819 15.9075 3.31836 15.5458 3.31836 15.1686C3.31836 14.7914 3.46819 14.4297 3.73489 14.163C4.00158 13.8963 4.3633 13.7465 4.74047 13.7465H22.1613L16.0593 7.64089C15.7921 7.37373 15.642 7.01138 15.642 6.63356C15.642 6.25574 15.7921 5.89339 16.0593 5.62623C16.3265 5.35907 16.6888 5.20898 17.0666 5.20898C17.4444 5.20898 17.8068 5.35907 18.074 5.62623L26.6066 14.1589C26.7392 14.2912 26.8444 14.4484 26.9161 14.6214C26.9878 14.7945 27.0245 14.98 27.0243 15.1673C27.0241 15.3546 26.9869 15.5401 26.9148 15.7129C26.8427 15.8858 26.7372 16.0428 26.6043 16.1748Z" fill="#1C1C1C"/>
</svg>
