<svg width="467" height="521" viewBox="0 0 467 521" fill="none" xmlns="http://www.w3.org/2000/svg">
<rect x="121.883" y="0.0195312" width="359.024" height="438.808" transform="rotate(16 121.883 0.0195312)" fill="#EBEBEB" fill-opacity="0.2"/>
<g clip-path="url(#clip0_54_3277)">
<path d="M360.152 381.865L62.585 296.539L62.5423 296.687L360.109 382.013L360.152 381.865Z" fill="#EBEBEB"/>
<path d="M327.592 382.893L296.009 373.837L295.967 373.986L327.549 383.042L327.592 382.893Z" fill="#EBEBEB"/>
<path d="M257.497 360.774L222.583 350.763L222.54 350.912L257.454 360.923L257.497 360.774Z" fill="#EBEBEB"/>
<path d="M298.308 371.55L286.886 368.274L286.843 368.423L298.265 371.698L298.308 371.55Z" fill="#EBEBEB"/>
<path d="M146.64 326.105L120.934 318.734L120.891 318.883L146.597 326.254L146.64 326.105Z" fill="#EBEBEB"/>
<path d="M117.62 317.784L108.429 315.149L108.386 315.298L117.577 317.933L117.62 317.784Z" fill="#EBEBEB"/>
<path d="M170.913 335.789L138.66 326.541L138.617 326.69L170.87 335.938L170.913 335.789Z" fill="#EBEBEB"/>
<path d="M211.253 310.443L96.3331 277.49C94.4602 276.953 93.3731 274.992 93.9101 273.119L140.231 111.581C140.768 109.708 142.729 108.621 144.602 109.158L259.521 142.11C261.394 142.647 262.481 144.608 261.944 146.481L215.623 308.02C215.086 309.893 213.125 310.98 211.253 310.443ZM144.559 109.307C142.767 108.793 140.893 109.833 140.379 111.624L94.0587 273.162C93.5451 274.954 94.5842 276.828 96.3756 277.342L211.295 310.295C213.086 310.808 214.961 309.769 215.474 307.978L261.795 146.439C262.308 144.648 261.27 142.773 259.479 142.259L144.559 109.307Z" fill="#EBEBEB"/>
<path d="M339.978 347.353L225.059 314.4C223.186 313.863 222.099 311.902 222.636 310.029L268.957 148.491C269.494 146.618 271.455 145.531 273.327 146.068L388.246 179.02C390.12 179.557 391.206 181.518 390.669 183.391L344.349 344.93C343.812 346.803 341.851 347.89 339.978 347.353ZM273.284 146.217C271.494 145.704 269.619 146.743 269.105 148.534L222.785 310.072C222.271 311.864 223.31 313.738 225.101 314.252L340.02 347.204C341.812 347.718 343.686 346.679 344.2 344.888L390.52 183.349C391.034 181.558 389.995 179.683 388.204 179.169L273.284 146.217Z" fill="#EBEBEB"/>
<path d="M302.295 297.887C292.731 273.785 291.232 252.42 264.561 275.582C258.755 264.396 253.96 253.493 251.012 243.665C235.058 190.481 198.141 209.809 165.848 233.579C133.556 257.349 90.5609 304.553 90.5609 304.553L179.74 330.125L330.167 373.259L335.618 374.822C335.618 374.822 311.917 322.134 302.295 297.887Z" fill="#F5F5F5"/>
<path d="M245.491 298.76C241.846 281.699 242.386 266.141 226.479 285.15C211.35 303.229 178.255 329.702 178.255 329.702L258.543 352.725C258.543 352.725 249.136 315.821 245.491 298.76Z" fill="#F0F0F0"/>
<path d="M151.958 133.489C152.711 133.735 153.216 134.08 153.463 134.471C157.608 133.746 162.141 133.87 165.631 135.001C167.406 135.574 168.708 136.342 169.524 137.22C174.162 135.661 179.7 135.202 183.379 136.257C185.469 136.857 186.617 137.848 186.825 139.013C191.352 138.372 195.818 138.462 199.199 139.431C204.592 140.978 205.65 144.308 202.473 147.647C204.996 148.446 206.693 150.611 204.466 151.479L144.913 134.403C145.009 134.337 145.106 134.272 145.213 134.206C146.929 133.16 149.946 132.838 151.958 133.489Z" fill="#FAFAFA"/>
<path d="M208.494 168.455C208.936 168.601 209.215 168.827 209.333 169.096C211.908 168.441 214.647 168.371 216.675 169.047C217.711 169.39 218.44 169.889 218.863 170.478C218.864 170.481 218.866 170.479 218.866 170.479C221.798 169.22 225.196 168.705 227.348 169.322C228.573 169.673 229.192 170.333 229.225 171.146C232.022 170.535 234.726 170.444 236.704 171.012C239.157 171.715 239.936 173.27 239.129 175.088C240.448 174.871 241.688 174.874 242.633 175.145C243.943 175.521 244.403 176.326 244.055 177.282C244.171 177.315 244.284 177.353 244.393 177.395C246.352 178.133 246.806 179.627 245.488 180.808L204.533 169.065C205.666 168.361 207.386 168.086 208.494 168.455Z" fill="#FAFAFA"/>
<path d="M148.816 171.291C149.122 171.392 149.314 171.548 149.396 171.735C151.176 171.281 153.071 171.233 154.472 171.7C155.189 171.937 155.693 172.282 155.985 172.69C155.986 172.692 155.987 172.691 155.987 172.691C158.015 171.82 160.364 171.464 161.852 171.891C162.699 172.134 163.127 172.589 163.15 173.152C165.084 172.729 166.953 172.666 168.321 173.059C170.017 173.545 170.556 174.62 169.998 175.877C170.909 175.726 171.767 175.729 172.421 175.916C173.327 176.176 173.645 176.733 173.405 177.394C173.484 177.417 173.563 177.444 173.638 177.472C174.992 177.982 175.306 179.015 174.395 179.832L146.077 171.712C146.86 171.226 148.05 171.035 148.816 171.291Z" fill="#FAFAFA"/>
<path d="M341.285 220.369C352.753 223.658 364.714 217.027 368.003 205.56C371.291 194.092 364.66 182.13 353.193 178.842C341.725 175.554 329.764 182.184 326.475 193.652C323.187 205.119 329.818 217.081 341.285 220.369Z" fill="#F0F0F0"/>
<path d="M296.737 184.467C297.49 184.713 297.995 185.058 298.242 185.449C302.387 184.724 306.92 184.848 310.41 185.98C312.185 186.552 313.487 187.32 314.303 188.198C318.941 186.639 324.48 186.181 328.158 187.235C330.249 187.835 331.396 188.826 331.605 189.992C336.131 189.35 340.597 189.44 343.979 190.41C349.371 191.956 350.43 195.286 347.252 198.625C349.775 199.424 351.472 201.589 349.246 202.458L289.691 185.381C289.788 185.315 289.885 185.25 289.992 185.184C291.707 184.138 294.725 183.816 296.737 184.467Z" fill="#FAFAFA"/>
<path d="M326.869 229.158C327.312 229.304 327.591 229.53 327.709 229.799C330.283 229.144 333.023 229.074 335.051 229.75C336.086 230.093 336.816 230.592 337.238 231.181C337.24 231.184 337.241 231.182 337.241 231.182C340.174 229.923 343.572 229.409 345.724 230.026C346.948 230.377 347.568 231.036 347.6 231.85C350.398 231.239 353.101 231.148 355.08 231.715C357.532 232.419 358.311 233.974 357.505 235.792C358.823 235.574 360.064 235.578 361.009 235.849C362.319 236.225 362.778 237.03 362.431 237.986C362.546 238.019 362.659 238.057 362.769 238.099C364.727 238.836 365.182 240.331 363.863 241.512L322.909 229.768C324.04 229.064 325.761 228.789 326.869 229.158Z" fill="#FAFAFA"/>
<path d="M203.665 366.077C267.393 384.35 319.92 396.147 320.987 392.425C322.054 388.704 271.258 370.873 207.53 352.599C143.801 334.326 91.2745 322.529 90.2074 326.25C89.1402 329.972 139.937 347.803 203.665 366.077Z" fill="#F5F5F5"/>
<path d="M312.283 305.162L311.664 305.173L311.757 310.2L312.376 310.188L312.283 305.162Z" fill="#407BFF"/>
<path d="M311.91 285.77L311.291 285.781L311.565 300.734L312.184 300.723L311.91 285.77Z" fill="#407BFF"/>
<path d="M308.594 222.55L287.416 216.477L202.039 347.688C199.179 352.083 201.385 357.991 206.425 359.436L301.521 386.704C306.561 388.15 311.563 384.308 311.466 379.066L308.594 222.55Z" fill="#407BFF"/>
<path opacity="0.2" d="M308.594 222.552L298.005 219.515L240.551 369.224L301.521 386.707C306.561 388.152 311.563 384.311 311.467 379.068L308.594 222.552Z" fill="#263238"/>
<path opacity="0.2" d="M308.595 222.551L303.625 221.126L274.739 379.026L301.522 386.706C306.562 388.151 311.564 384.31 311.468 379.067L308.595 222.551Z" fill="#263238"/>
<path opacity="0.2" d="M287.416 216.477L292.518 217.94L211.985 361.03L206.425 359.436C201.385 357.991 199.179 352.083 202.039 347.688L287.416 216.477Z" fill="white"/>
<path d="M299.477 213.746C305.831 215.568 310.171 221.427 310.062 228.037L309.611 255.404L305.49 262.917L300.43 254.328L289.504 267.565L286.522 255.331L276.056 263.709L277.337 247.009L267.974 254.056L269.345 243.214L282.869 220.354C286.256 214.629 293.082 211.913 299.477 213.746Z" fill="#407BFF"/>
<path opacity="0.7" d="M299.477 213.746C305.831 215.568 310.171 221.427 310.062 228.037L309.611 255.404L305.49 262.917L300.43 254.328L289.504 267.565L286.522 255.331L276.056 263.709L277.337 247.009L267.974 254.056L269.345 243.214L282.869 220.354C286.256 214.629 293.082 211.913 299.477 213.746Z" fill="white"/>
<path d="M240.385 369.816C240.16 369.751 239.982 369.562 239.944 369.315L236.129 344.559C236.088 344.295 236.221 344.035 236.458 343.914L286.269 318.382L275.507 263.844C275.482 263.713 275.499 263.578 275.556 263.458L298.653 215.121C298.801 214.812 299.171 214.68 299.479 214.829C299.787 214.976 299.918 215.346 299.771 215.654L276.762 263.806L287.574 318.599C287.628 318.871 287.495 319.144 287.249 319.27L237.42 344.811L241.167 369.126C241.219 369.464 240.987 369.78 240.65 369.832C240.559 369.847 240.469 369.84 240.385 369.816Z" fill="white"/>
<path d="M292.453 321.818C294.153 318.787 293.074 314.95 290.042 313.25C287.01 311.549 283.173 312.629 281.473 315.661C279.773 318.693 280.852 322.529 283.884 324.229C286.916 325.93 290.752 324.85 292.453 321.818Z" fill="#407BFF"/>
<path d="M285.063 325.367C281.398 324.317 279.271 320.481 280.322 316.816C281.373 313.152 285.209 311.025 288.874 312.076C292.538 313.126 294.665 316.962 293.614 320.627C292.563 324.292 288.727 326.418 285.063 325.367ZM288.532 313.266C285.525 312.404 282.375 314.149 281.512 317.158C280.65 320.166 282.395 323.315 285.404 324.178C288.412 325.04 291.561 323.295 292.424 320.286C293.286 317.278 291.541 314.129 288.532 313.266Z" fill="white"/>
<path d="M242.438 347.148C243.919 344.003 242.57 340.252 239.425 338.771C236.28 337.29 232.53 338.639 231.049 341.784C229.567 344.929 230.916 348.679 234.061 350.16C237.207 351.642 240.957 350.293 242.438 347.148Z" fill="#407BFF"/>
<path d="M234.832 351.108C231.167 350.057 229.041 346.221 230.091 342.556C231.142 338.892 234.978 336.765 238.643 337.816C242.307 338.867 244.434 342.703 243.383 346.367C242.332 350.032 238.496 352.158 234.832 351.108ZM238.301 339.007C235.293 338.144 232.144 339.89 231.281 342.898C230.419 345.906 232.164 349.055 235.173 349.918C238.181 350.78 241.33 349.035 242.193 346.027C243.055 343.018 241.31 339.869 238.301 339.007Z" fill="white"/>
<path d="M274.38 269.777C277.721 270.735 281.207 268.803 282.165 265.461C283.123 262.119 281.191 258.634 277.85 257.675C274.508 256.717 271.022 258.649 270.064 261.991C269.106 265.333 271.038 268.819 274.38 269.777Z" fill="#407BFF"/>
<path d="M274.208 270.37C270.544 269.32 268.417 265.484 269.468 261.819C270.519 258.154 274.355 256.028 278.019 257.079C281.684 258.129 283.81 261.965 282.76 265.63C281.709 269.294 277.872 271.421 274.208 270.37ZM277.678 258.269C274.67 257.406 271.521 259.152 270.658 262.16C269.795 265.168 271.541 268.317 274.549 269.18C277.558 270.043 280.707 268.297 281.569 265.289C282.432 262.281 280.686 259.131 277.678 258.269Z" fill="white"/>
<path d="M304.91 218.069C306.391 214.924 305.043 211.173 301.898 209.692C298.752 208.211 295.002 209.56 293.521 212.705C292.04 215.85 293.388 219.6 296.534 221.081C299.679 222.563 303.429 221.214 304.91 218.069Z" fill="#407BFF"/>
<path d="M297.304 222.032C293.64 220.981 291.513 217.145 292.564 213.48C293.614 209.815 297.45 207.689 301.115 208.74C304.78 209.791 306.906 213.627 305.855 217.292C304.804 220.957 300.968 223.083 297.304 222.032ZM300.774 209.931C297.766 209.069 294.616 210.814 293.754 213.822C292.891 216.83 294.636 219.98 297.645 220.842C300.653 221.705 303.802 219.959 304.665 216.951C305.527 213.943 303.781 210.793 300.774 209.931Z" fill="white"/>
<path d="M299.181 215.415C298.853 215.321 298.662 214.978 298.757 214.65L306.427 187.901C306.521 187.573 306.864 187.383 307.192 187.477C307.521 187.571 307.711 187.914 307.617 188.243L299.947 214.991C299.852 215.32 299.51 215.51 299.181 215.415Z" fill="#407BFF"/>
<path d="M279.832 192.315C284.644 195.663 291.02 193.555 295.833 196.903C296.702 193.872 297.571 190.841 298.44 187.81C293.628 184.463 287.252 186.57 282.439 183.222C281.57 186.253 280.701 189.284 279.832 192.315Z" fill="#407BFF"/>
<path opacity="0.2" d="M288.188 185.239L285.582 194.327C289.096 194.851 292.781 194.781 295.837 196.906L298.444 187.813C295.389 185.687 291.704 185.758 288.188 185.239Z" fill="black"/>
<path d="M288.416 192.577C293.228 195.925 299.605 193.818 304.417 197.166C305.287 194.135 306.156 191.104 307.025 188.073C302.213 184.725 295.836 186.833 291.023 183.485C290.154 186.515 289.285 189.546 288.416 192.577Z" fill="#407BFF"/>
<path d="M185.511 224.361L186.509 227.871L181 227.025C181 227.025 181.444 225.891 182.342 224.257C182.716 223.575 183.567 223.316 184.252 223.684L185.511 224.361Z" fill="#7F3E3B"/>
<path d="M184.703 232.514L180.931 230.058L181 227.026L186.508 227.871L184.703 232.514Z" fill="#7F3E3B"/>
<path d="M210.569 195.484C211.26 195.47 212.096 195.422 212.868 195.384C213.655 195.341 214.444 195.281 215.23 195.207C216.8 195.051 218.366 194.88 219.896 194.615C222.945 194.117 225.966 193.358 228.343 192.108C228.942 191.805 229.464 191.455 229.927 191.092L230.096 190.954C230.127 190.954 230.338 190.695 229.938 191.183C229.695 191.514 229.571 191.898 229.53 192.14C229.519 192.201 229.511 192.263 229.508 192.325L229.499 192.458C229.499 192.5 229.501 192.545 229.505 192.584L229.51 192.661C229.539 192.86 229.566 192.857 229.561 192.819C229.548 192.766 229.527 192.676 229.482 192.559C229.305 192.084 228.936 191.431 228.542 190.809C228.138 190.18 227.706 189.522 227.245 188.878C225.392 186.289 223.327 183.669 221.319 181.065L223.697 178.615C226.435 180.692 228.985 182.897 231.409 185.426C232.01 186.065 232.617 186.713 233.192 187.433C233.772 188.161 234.344 188.893 234.907 189.913C235.176 190.46 235.494 190.979 235.648 192.175L235.667 192.409L235.667 192.69C235.664 192.787 235.662 192.872 235.652 192.98C235.639 193.093 235.623 193.206 235.603 193.319C235.528 193.766 235.32 194.345 234.958 194.848C234.433 195.503 234.477 195.373 234.356 195.513L234.06 195.794C233.266 196.523 232.426 197.15 231.573 197.666C228.137 199.725 224.601 200.686 221.113 201.389C219.363 201.718 217.619 201.974 215.87 202.126C214.996 202.207 214.122 202.271 213.244 202.318C212.352 202.369 211.52 202.386 210.545 202.38L210.569 195.484Z" fill="#7F3E3B"/>
<path d="M218.771 176.006L215.006 177.167L219.245 179.505L221.326 176.64L218.771 176.006Z" fill="#7F3E3B"/>
<path d="M224.732 179.435L221.329 176.639L219.248 179.503C219.248 179.503 221.408 183.626 223.989 182.027L224.732 179.435Z" fill="#7F3E3B"/>
<path d="M194.635 197.069C192.409 199.299 190.143 201.617 187.954 203.924C185.768 206.238 183.592 208.578 181.655 210.974C181.159 211.57 180.702 212.169 180.255 212.769L180.104 212.967C180.116 212.946 180.119 212.919 180.126 212.903C180.132 212.862 180.13 212.845 180.118 212.848C180.099 212.861 180.054 212.969 180.043 213.159C180.014 213.537 180.101 214.135 180.272 214.755C180.444 215.38 180.668 216.054 180.947 216.73C182.071 219.44 183.683 222.263 185.297 224.941L182.684 227.139C180.194 224.763 178 222.247 176.137 219.159C175.682 218.38 175.239 217.565 174.868 216.653C174.503 215.737 174.168 214.743 174.041 213.492C173.978 212.869 173.99 212.156 174.16 211.376C174.249 210.985 174.375 210.579 174.566 210.175C174.655 209.973 174.769 209.775 174.886 209.58L175.082 209.274C175.556 208.53 176.039 207.8 176.539 207.104C178.532 204.299 180.688 201.757 182.898 199.261C185.135 196.786 187.407 194.422 189.85 192.105L194.635 197.069Z" fill="#7F3E3B"/>
<path d="M204.272 179.2C202.733 183.11 202.187 187.167 200.284 190.405C200.284 190.405 200.354 193.936 206.297 195.641C212.832 197.514 210.225 193.256 210.225 193.256C206.87 191.372 207.618 188.723 208.856 186.389L204.272 179.2Z" fill="#7F3E3B"/>
<path d="M199.152 191.286C198.938 190.113 198.714 188.776 199.872 188.71C201.146 188.637 207.673 190.062 209.7 191.466C211.726 192.87 210.581 194.796 210.581 194.796L199.152 191.286Z" fill="#263238"/>
<path d="M144.45 333.958C144.045 333.742 143.652 333.425 143.386 333.19C143.351 333.158 143.337 333.109 143.353 333.063C143.368 333.018 143.409 332.987 143.456 332.984C143.669 332.969 145.547 332.853 145.899 333.361C145.954 333.44 146.002 333.571 145.921 333.75C145.812 333.989 145.642 334.136 145.414 334.185C145.127 334.245 144.784 334.136 144.45 333.958ZM143.766 333.204C144.431 333.749 145.018 334.027 145.365 333.954C145.518 333.921 145.63 333.823 145.707 333.652C145.745 333.568 145.726 333.524 145.706 333.495C145.523 333.231 144.517 333.177 143.766 333.204Z" fill="#407BFF"/>
<path d="M143.41 333.206C143.39 333.195 143.373 333.179 143.362 333.158C143.341 333.121 143.342 333.074 143.365 333.038C143.398 332.987 144.177 331.777 144.908 331.632C145.099 331.594 145.272 331.628 145.422 331.734C145.654 331.896 145.638 332.084 145.608 332.182C145.44 332.721 144.051 333.214 143.466 333.219C143.446 333.22 143.427 333.215 143.41 333.206ZM145.242 331.899C145.156 331.853 145.062 331.842 144.954 331.863C144.485 331.956 143.953 332.619 143.705 332.962C144.338 332.859 145.284 332.43 145.383 332.112C145.392 332.083 145.413 332.015 145.287 331.926C145.272 331.916 145.257 331.907 145.242 331.899Z" fill="#407BFF"/>
<path d="M174.225 345.869C173.783 345.743 173.333 345.514 173.025 345.339C172.984 345.316 172.96 345.27 172.966 345.223C172.972 345.176 173.005 345.137 173.05 345.124C173.255 345.065 175.068 344.56 175.518 344.983C175.588 345.049 175.662 345.167 175.62 345.359C175.564 345.616 175.427 345.795 175.215 345.89C174.946 346.009 174.589 345.974 174.225 345.869ZM173.398 345.274C174.163 345.669 174.795 345.819 175.119 345.674C175.261 345.611 175.35 345.491 175.39 345.308C175.41 345.218 175.383 345.179 175.357 345.154C175.123 344.935 174.128 345.091 173.398 345.274Z" fill="#407BFF"/>
<path d="M173.05 345.348C173.029 345.342 173.009 345.329 172.994 345.311C172.966 345.279 172.957 345.233 172.972 345.193C172.994 345.136 173.503 343.791 174.188 343.496C174.366 343.42 174.543 343.417 174.712 343.489C174.972 343.6 174.996 343.787 174.987 343.888C174.935 344.45 173.679 345.222 173.108 345.349C173.089 345.354 173.069 345.353 173.05 345.348ZM174.57 343.688C174.477 343.662 174.382 343.67 174.281 343.713C173.842 343.901 173.459 344.661 173.288 345.048C173.886 344.816 174.722 344.199 174.752 343.868C174.755 343.838 174.761 343.767 174.619 343.706C174.603 343.699 174.587 343.693 174.57 343.688Z" fill="#407BFF"/>
<path d="M167.957 343.701L172.329 344.954L175.277 334.842L170.905 333.588L167.957 343.701Z" fill="#7F3E3B"/>
<path d="M138.481 330.898L142.425 332.905L148.746 323.973L144.803 321.966L138.481 330.898Z" fill="#7F3E3B"/>
<path d="M143.156 332.48L138.645 330.08C138.481 329.992 138.283 330.033 138.168 330.178L135.613 333.398C135.348 333.732 135.467 334.244 135.849 334.439C137.437 335.25 138.248 335.563 140.231 336.618C141.451 337.268 143.903 338.735 145.589 339.632C147.237 340.509 148.317 338.945 147.701 338.424C144.941 336.087 144.237 334.514 143.686 333.078C143.586 332.821 143.396 332.608 143.156 332.48Z" fill="#263238"/>
<path d="M172.426 344.435L167.651 343.066C167.473 343.015 167.287 343.096 167.205 343.261L165.377 346.943C165.188 347.325 165.399 347.799 165.813 347.91C167.542 348.374 170.056 348.985 172.221 349.606C174.752 350.332 174.836 350.506 177.805 351.357C179.6 351.871 180.548 350.18 179.838 349.798C176.603 348.061 175.898 347.772 173.395 345.082C173.122 344.789 172.803 344.543 172.426 344.435Z" fill="#263238"/>
<path d="M192.835 189.213C188.498 189.157 180.55 198.921 180.55 198.921L188.291 206.788C188.291 206.788 191.581 203.469 195.11 199.199C198.806 194.726 200.07 189.306 192.835 189.213Z" fill="#263238"/>
<path d="M213.336 216.354C211.905 221.226 209.869 227.211 206.982 234.537L183.593 227.83C184.283 224.355 190.227 208.9 191.494 191.925C191.614 190.31 193.053 189.121 194.657 189.337C196.132 189.536 197.968 189.832 199.734 190.247C202.757 190.959 207.108 192.103 209.673 193.097C211.106 193.653 212.478 194.304 213.583 194.87C215.377 195.788 216.52 197.626 216.505 199.641C216.489 201.661 216.191 204.748 215.169 209.326C214.713 211.365 214.117 213.693 213.336 216.354Z" fill="#263238"/>
<path d="M206.03 202.135C209.097 205.192 218.131 205.292 218.131 205.292L220.945 193.828C220.945 193.828 217.143 193.069 211.441 193.683C205.073 194.369 202.575 198.691 206.03 202.135Z" fill="#263238"/>
<path d="M213.753 193.266C213.753 193.266 211.889 193.375 211.212 193.379C208.261 195.2 205.33 200.153 205.33 200.153L207.102 204.74C207.624 198.843 213.753 193.266 213.753 193.266Z" fill="#407BFF"/>
<path opacity="0.2" d="M213.753 193.266C213.753 193.266 211.889 193.375 211.212 193.379C208.261 195.2 205.33 200.153 205.33 200.153L207.102 204.74C207.624 198.843 213.753 193.266 213.753 193.266Z" fill="black"/>
<path d="M211.44 222.982C208.718 224.062 205.429 218.79 205.429 218.79L204.979 220.857C208.072 225.42 210.961 224.424 210.961 224.424C210.961 224.424 211.283 223.831 211.44 222.982Z" fill="#407BFF"/>
<path opacity="0.2" d="M211.44 222.982C208.718 224.062 205.429 218.79 205.429 218.79L204.979 220.857C208.072 225.42 210.961 224.424 210.961 224.424C210.961 224.424 211.283 223.831 211.44 222.982Z" fill="black"/>
<path d="M198.473 189.726C197.148 189.479 196.399 189.479 196.399 189.479C196.399 189.479 193.752 192.571 193.432 197.336L196.329 196.919C196.329 196.919 196.627 192.795 198.473 189.726Z" fill="#407BFF"/>
<path opacity="0.2" d="M198.473 189.726C197.148 189.479 196.399 189.479 196.399 189.479C196.399 189.479 193.752 192.571 193.432 197.336L196.329 196.919C196.329 196.919 196.627 192.795 198.473 189.726Z" fill="black"/>
<path d="M193.213 196.696C195.232 194.912 205.901 198.237 207.708 200.692C209.515 203.147 206.717 223.486 202.658 224.684C198.599 225.882 182.457 222.381 183.61 217.934C184.763 213.488 190.571 206.844 190.867 204.182C191.163 201.52 190.461 199.127 193.213 196.696Z" fill="#407BFF"/>
<path opacity="0.4" d="M191.405 203.556C191.405 203.556 194.882 206.203 203.695 206.728C201.844 207.107 192.78 206.589 191.405 203.556Z" fill="#263238"/>
<path opacity="0.4" d="M196.293 204.341C196.24 204.722 195.953 204.959 195.652 204.873C195.35 204.787 195.149 204.409 195.203 204.029C195.256 203.649 195.543 203.411 195.844 203.497C196.146 203.584 196.347 203.961 196.293 204.341Z" fill="#263238"/>
<path opacity="0.4" d="M200.423 224.382C200.409 224.378 200.395 224.372 200.382 224.363C200.31 224.316 200.29 224.221 200.336 224.149C202.785 220.374 204.264 214.626 204.732 207.062C204.925 203.927 206.488 201.282 207.05 200.806C207.115 200.75 207.213 200.759 207.268 200.824C207.323 200.89 207.315 200.987 207.25 201.042C206.67 201.534 205.219 204.182 205.04 207.082C204.569 214.699 203.074 220.498 200.596 224.317C200.558 224.375 200.487 224.4 200.423 224.382Z" fill="#263238"/>
<g opacity="0.2">
<path d="M175.275 334.845L173.757 340.057L169.382 338.803L170.901 333.591L175.275 334.845Z" fill="black"/>
<path d="M144.802 321.97L148.747 323.978L145.486 328.581L141.542 326.573L144.802 321.97Z" fill="black"/>
</g>
<path d="M198.683 232.156C198.683 232.156 185.43 264.515 179.601 276.39C173.216 289.394 148.172 328.777 148.172 328.777L140.818 324.864C140.818 324.864 161.107 287.12 166.176 273.886C171.678 259.523 183.594 227.829 183.594 227.829L198.683 232.156Z" fill="#407BFF"/>
<path d="M150.682 326.636C150.713 326.653 148.529 329.113 148.529 329.113L140.254 324.71L141.65 322.219L150.682 326.636Z" fill="#263238"/>
<path opacity="0.2" d="M192.593 243.293C186.577 242.785 181.875 264.591 179.835 275.915C183.419 268.525 189.556 254.086 193.846 243.82C193.513 243.518 193.099 243.335 192.593 243.293Z" fill="black"/>
<path d="M206.976 234.533C206.976 234.533 199.467 267.757 195.683 281.101C191.747 294.98 175.636 339.502 175.636 339.502L168.229 337.378C168.229 337.378 179.024 292.209 182.074 278.344C185.399 263.229 191.604 230.126 191.604 230.126L206.976 234.534L206.976 234.533Z" fill="#407BFF"/>
<path d="M177.797 336.929C177.831 336.939 176.616 339.918 176.616 339.918L167.607 337.335L168.045 334.491L177.797 336.929Z" fill="#263238"/>
<path d="M215.393 177.88C215.342 178.244 215.493 178.573 215.729 178.615C215.964 178.658 216.197 178.397 216.248 178.033C216.299 177.67 216.148 177.341 215.912 177.298C215.676 177.256 215.444 177.517 215.393 177.88Z" fill="#263238"/>
<path d="M215.46 178.57C215.46 178.57 215.988 180.815 216.751 181.988C216.028 182.474 214.981 182.006 214.981 182.006L215.46 178.57Z" fill="#630F0F"/>
<path d="M216.189 175.642C216.257 175.637 216.321 175.6 216.358 175.538C216.419 175.436 216.387 175.303 216.285 175.242C216.248 175.221 215.379 174.711 214.328 175.232C214.222 175.286 214.178 175.415 214.231 175.521C214.284 175.628 214.413 175.671 214.52 175.618C215.362 175.2 216.056 175.607 216.063 175.611C216.103 175.635 216.147 175.644 216.189 175.642Z" fill="#263238"/>
<path d="M203.459 174.954C203.108 179.469 202.676 182.084 204.596 184.778C207.484 188.829 213.244 187.764 214.924 183.496C216.436 179.655 216.756 172.918 212.662 170.363C208.629 167.846 203.809 170.44 203.459 174.954Z" fill="#7F3E3B"/>
<path d="M212.471 178.227C211.102 180.269 205.825 183.408 204.301 183.328C202.777 183.249 199.829 178.736 199.981 176.863C198.599 176.29 197.848 172.988 200.353 172.497C198.985 171.222 200.628 167.092 203.8 168.332C202.358 165.845 205.677 163.291 208.141 164.927C209.265 163.46 213.237 163.454 214.618 166.605C216.532 166.152 218.882 168.848 217.868 171.585C217.174 173.457 214.973 174.517 213.611 174.426C214.056 175.47 212.471 178.227 212.471 178.227Z" fill="#263238"/>
<path d="M210.457 177.007C210.374 178.197 210.767 179.395 211.319 180.228C212.15 181.481 213.253 180.972 213.597 179.672C213.908 178.503 213.849 176.442 212.739 175.641C211.644 174.854 210.553 175.647 210.457 177.007Z" fill="#7F3E3B"/>
</g>
<defs>
<clipPath id="clip0_54_3277">
<rect width="309.559" height="309.559" fill="white" transform="translate(127.843 68.9585) rotate(16)"/>
</clipPath>
</defs>
</svg>
