<svg width="99" height="99" viewBox="0 0 99 99" fill="none" xmlns="http://www.w3.org/2000/svg">
<path d="M36 67.9351H65.5M26.6222 76H72.3778C76.7959 76 79.0052 76 80.6927 75.1591C82.177 74.4197 83.384 73.2394 84.1401 71.788C85 70.1379 85 67.9775 85 63.6571V34.3429C85 30.0225 85 27.8622 84.1401 26.2121C83.384 24.7605 82.177 23.5804 80.6927 22.8408C79.0052 22 76.7959 22 72.3778 22H26.6222C22.204 22 19.9949 22 18.3074 22.8408C16.823 23.5804 15.6162 24.7605 14.8598 26.2121C14 27.8622 14 30.0224 14 34.3429V63.6571C14 67.9775 14 70.1379 14.8598 71.788C15.6162 73.2394 16.823 74.4197 18.3074 75.1591C19.9949 76 22.204 76 26.6222 76Z" stroke="black" stroke-width="3.19355" stroke-linecap="round" stroke-linejoin="round"/>
</svg>
