<svg width="99" height="99" viewBox="0 0 99 99" fill="none" xmlns="http://www.w3.org/2000/svg">
<path d="M38.8667 63H60.1333C62.1868 63 63.2137 63 63.998 62.5329C64.6879 62.1221 65.2489 61.4664 65.6003 60.66C66 59.7433 66 58.5431 66 56.1429V39.8571C66 37.4569 66 36.2568 65.6003 35.34C65.2489 34.5336 64.6879 33.878 63.998 33.4671C63.2137 33 62.1868 33 60.1333 33H38.8667C36.8131 33 35.7864 33 35.002 33.4671C34.3121 33.878 33.7512 34.5336 33.3996 35.34C33 36.2568 33 37.4569 33 39.8571V56.1429C33 58.5431 33 59.7433 33.3996 60.66C33.7512 61.4664 34.3121 62.1221 35.002 62.5329C35.7864 63 36.8131 63 38.8667 63Z" stroke="black" stroke-width="3.19355" stroke-linecap="round" stroke-linejoin="round"/>
<path d="M51.4285 42L45 48.5H54L47.5715 55" stroke="black" stroke-width="3" stroke-linecap="round" stroke-linejoin="round"/>
<line x1="43.5" y1="26.5" x2="56.5" y2="26.5" stroke="black" stroke-width="3" stroke-linecap="round" stroke-linejoin="round"/>
<line x1="43.5" y1="69.5" x2="56.5" y2="69.5" stroke="black" stroke-width="3" stroke-linecap="round" stroke-linejoin="round"/>
</svg>
