<svg width="250" height="250" viewBox="0 0 250 250" fill="none" xmlns="http://www.w3.org/2000/svg">
<g clip-path="url(#clip0_1643_35069)">
<path d="M191.425 127.076C218.784 127.076 240.963 104.897 240.963 77.5381C240.963 50.179 218.784 28 191.425 28C164.066 28 141.887 50.179 141.887 77.5381C141.887 104.897 164.066 127.076 191.425 127.076Z" fill="#E5F1FF"/>
<path d="M84.26 202.442C95.5671 191.135 95.5671 172.803 84.26 161.495C72.9529 150.188 54.6204 150.188 43.3132 161.495C32.0061 172.803 32.0061 191.135 43.3132 202.442C54.6204 213.749 72.9529 213.749 84.26 202.442Z" fill="#E5F1FF"/>
<path d="M63.3993 44.5117C48.7803 44.5117 36.9297 56.3629 36.9297 70.9819C36.9297 85.6009 48.7809 97.4521 63.3993 97.4521C78.0183 97.4521 89.8695 85.6009 89.8695 70.9819C89.8689 56.3629 78.0177 44.5117 63.3993 44.5117ZM63.3993 87.9052C54.0527 87.9052 46.476 80.3285 46.476 70.9819C46.476 61.6353 54.0527 54.0586 63.3993 54.0586C72.7458 54.0586 80.3226 61.6353 80.3226 70.9819C80.3226 80.3285 72.7453 87.9052 63.3993 87.9052Z" fill="#A9CCEA"/>
<path d="M163.404 213.746C163.404 215.423 162.044 216.783 160.367 216.783H83.5608C81.8834 216.783 80.5234 215.423 80.5234 213.746C80.5234 212.069 81.8834 210.709 83.5608 210.709H110.826L114.587 203.766H121.096H122.832H129.341L133.101 210.709H160.367C162.044 210.709 163.404 212.069 163.404 213.746Z" fill="#0F3157"/>
<path d="M127.623 197.473H115.039V201.161H127.623V197.473Z" fill="#78FF88"/>
<path d="M127.623 191.398H115.039V195.087H127.623V191.398Z" fill="#78FF88"/>
<path d="M221.522 178.917C219.333 179.757 216.956 180.217 214.472 180.217C203.604 180.217 194.793 171.407 194.793 160.538C194.793 149.67 203.603 140.859 214.472 140.859C225.34 140.859 234.15 149.67 234.15 160.538C234.15 163.451 233.518 166.215 232.383 168.702" stroke="#78FF88" stroke-width="0.650888" stroke-miterlimit="10" stroke-linecap="round" stroke-linejoin="round"/>
<path d="M165.954 68.1504H162.812C162.16 65.3589 161.062 62.74 159.592 60.374L161.813 58.1528C162.77 57.1951 162.77 55.6424 161.813 54.6847L156.877 49.7494C155.92 48.7918 154.367 48.7918 153.409 49.7494L151.188 51.97C148.823 50.4998 146.204 49.4019 143.412 48.7502V45.6083C143.412 44.2541 142.314 43.1562 140.96 43.1562H133.981C132.627 43.1562 131.529 44.2541 131.529 45.6083V48.7502C128.737 49.4019 126.118 50.5004 123.752 51.97L121.531 49.7494C120.573 48.7918 119.021 48.7918 118.063 49.7494L113.128 54.6847C112.171 55.6424 112.171 57.1951 113.128 58.1528L115.35 60.374C113.879 62.7395 112.781 65.3584 112.129 68.1504H108.987C107.633 68.1504 106.535 69.2483 106.535 70.6025V77.5818C106.535 78.936 107.633 80.0339 108.987 80.0339H112.129C112.781 82.8254 113.879 85.4443 115.349 87.8104L113.128 90.0316C112.171 90.9892 112.171 92.542 113.128 93.4996L118.063 98.435C119.021 99.3926 120.573 99.3926 121.531 98.435L123.752 96.2144C126.118 97.6846 128.737 98.7825 131.529 99.4347V102.577C131.529 103.931 132.627 105.029 133.981 105.029H140.96C142.314 105.029 143.412 103.931 143.412 102.577V99.4347C146.204 98.7825 148.823 97.6846 151.189 96.2144L153.41 98.435C154.368 99.3926 155.92 99.3926 156.878 98.435L161.813 93.4996C162.771 92.542 162.771 90.9892 161.813 90.0316L159.592 87.8104C161.062 85.4449 162.16 82.826 162.812 80.0339H165.954C167.309 80.0339 168.406 78.936 168.406 77.5818V70.6025C168.406 69.2478 167.308 68.1504 165.954 68.1504ZM137.471 86.5417C130.595 86.5417 125.022 80.9679 125.022 74.0919C125.022 67.2165 130.595 61.6427 137.471 61.6427C144.346 61.6427 149.921 67.2165 149.921 74.0919C149.921 80.9679 144.347 86.5417 137.471 86.5417Z" fill="url(#paint0_linear_1643_35069)"/>
<g filter="url(#filter0_i_1643_35069)">
<path d="M35.5098 189.738C31.8541 189.738 28.8906 186.774 28.8906 183.118V79.526C28.8906 75.8698 31.8541 72.9062 35.5103 72.9062H208.419C212.075 72.9062 215.039 75.8698 215.039 79.5254V183.117C215.039 186.773 212.076 189.737 208.419 189.737H35.5098V189.738Z" fill="#2E2C6D"/>
</g>
<path d="M61.6665 87.3633H42.4648V91.5944H61.6665V87.3633Z" fill="url(#paint1_linear_1643_35069)"/>
<path d="M84.772 87.3633H65.5703V91.5944H84.772V87.3633Z" fill="url(#paint2_linear_1643_35069)"/>
<path d="M143.354 87.3633H124.152V91.5944H143.354V87.3633Z" fill="url(#paint3_linear_1643_35069)"/>
<path d="M201.932 87.3633H182.73V91.5944H201.932V87.3633Z" fill="url(#paint4_linear_1643_35069)"/>
<path d="M121.706 87.3633H87.3711V91.5944H121.706V87.3633Z" fill="#78FF88"/>
<path d="M179.96 87.3633H145.625V91.5944H179.96V87.3633Z" fill="#2889DB"/>
<path d="M45.9333 84H42.5703V86.0613H45.9333V84Z" fill="#2889DB"/>
<path d="M77.6604 95.0664H42.5664V97.1277H77.6604V95.0664Z" fill="white"/>
<path d="M52.9808 98.6992H42.5664V100.761H52.9808V98.6992Z" fill="white"/>
<path d="M79.7274 174.908H47.1824C44.7557 174.908 42.7891 172.941 42.7891 170.515V111.608C42.7891 109.181 44.7563 107.215 47.1824 107.215H79.7274C82.154 107.215 84.1207 109.182 84.1207 111.608V170.515C84.1207 172.941 82.154 174.908 79.7274 174.908Z" fill="url(#paint5_linear_1643_35069)"/>
<path d="M61.8278 117.137H47.9961V119.252H61.8278V117.137Z" fill="white"/>
<path d="M61.8278 121.855H47.9961V123.971H61.8278V121.855Z" fill="white"/>
<path d="M61.8278 126.574H47.9961V128.69H61.8278V126.574Z" fill="white"/>
<path d="M56.4538 146.27H47.9922V148.385H56.4538V146.27Z" fill="white"/>
<path d="M56.4538 150.984H47.9922V153.1H56.4538V150.984Z" fill="white"/>
<path d="M70.9929 150.984H62.5312V153.1H70.9929V150.984Z" fill="white"/>
<path d="M53.3079 140.898H47.9922V143.014H53.3079V140.898Z" fill="white"/>
<path d="M73.5938 140.898H70.7734V143.014H73.5938V140.898Z" fill="white"/>
<path d="M69.6894 140.898H55.1523V143.014H69.6894V140.898Z" fill="#78FF88"/>
<path d="M50.0264 132.926H47.9922V135.041H50.0264V132.926Z" fill="#2889DB"/>
<path d="M50.0264 136.668H47.9922V138.784H50.0264V136.668Z" fill="#78FF88"/>
<path d="M59.2792 153.537H58.5195L60.3367 150.824H61.0963L59.2792 153.537Z" fill="white"/>
<path d="M79.3983 157.172H47.9922V158.962H79.3983V157.172Z" fill="#282E5C"/>
<path d="M79.3983 161.242H47.9922V163.032H79.3983V161.242Z" fill="#282E5C"/>
<path d="M230.466 135.204H144.113C141.955 135.204 140.207 133.456 140.207 131.299V107.866C140.207 105.709 141.955 103.961 144.113 103.961H230.466C232.623 103.961 234.371 105.709 234.371 107.866V131.299C234.37 133.456 232.622 135.204 230.466 135.204Z" fill="url(#paint6_linear_1643_35069)"/>
<path d="M168.191 124.139C168.191 124.139 172.965 112.423 186.633 115.243C200.302 118.063 207.245 133.468 224.82 120.884" stroke="white" stroke-width="0.650888" stroke-miterlimit="10"/>
<path d="M212.453 124.789H210.5V126.742H212.453V124.789Z" fill="#38E9B1" stroke="white" stroke-width="0.650888" stroke-miterlimit="10"/>
<path d="M170.582 114.703H195.316" stroke="white" stroke-width="0.325444" stroke-miterlimit="10"/>
<path d="M199.109 126.309H223.844" stroke="white" stroke-width="0.325444" stroke-miterlimit="10"/>
<path d="M182.949 113.727H180.996V115.679H182.949V113.727Z" fill="#38E9B1" stroke="white" stroke-width="0.650888" stroke-miterlimit="10"/>
<path d="M156.694 143.227H138.035C136.477 143.227 135.215 141.964 135.215 140.407V112.418C135.215 110.86 136.478 109.598 138.035 109.598H156.694C158.252 109.598 159.515 110.861 159.515 112.418V140.407C159.515 141.964 158.252 143.227 156.694 143.227Z" fill="url(#paint7_linear_1643_35069)"/>
<path d="M152.839 114.371H139.008V116.278H152.839V114.371Z" fill="white"/>
<path d="M152.839 118.625H139.008V120.532H152.839V118.625Z" fill="white"/>
<path d="M144.215 122.875H139.008V124.782H144.215V122.875Z" fill="white"/>
<path d="M148.012 127.281H139.008V129.188H148.012V127.281Z" fill="#38E9B1"/>
<path d="M145.083 131.535H139.008V133.442H145.083V131.535Z" fill="#38E9B1"/>
<path d="M145.083 135.789H139.008V137.696H145.083V135.789Z" fill="white"/>
<path d="M219.18 99.7305H228.944" stroke="url(#paint8_linear_1643_35069)" stroke-width="1.30178" stroke-miterlimit="10" stroke-linecap="round" stroke-linejoin="round"/>
<path d="M197.235 154.824L193.865 157.462L189.03 158.341C189.03 158.341 184.488 158.048 184.049 158.048C183.609 158.048 180.533 155.557 180.533 155.557L174.819 153.506L170.863 154.971L166.175 153.945L159.142 153.505L152.403 156.143L146.836 157.022L141.854 158.634L136.287 159.073L130.28 154.385L124.712 153.359L118.998 156.583L114.457 158.048L109.3 157.901L102.802 161.857H98.9269L92.3828 164.152" stroke="#38E9B1" stroke-width="0.586007" stroke-miterlimit="10"/>
<path d="M92.4766 164.25H197.377" stroke="#F7F7F7" stroke-width="0.146502" stroke-miterlimit="10"/>
<path d="M92.5235 162.934H91.4492V165.571H92.5235V162.934Z" fill="#F7F7F7"/>
<path d="M197.813 162.934H196.738V165.571H197.813V162.934Z" fill="#F7F7F7"/>
<path d="M197.285 164.246V155.406" stroke="#F7F7F7" stroke-width="0.146502" stroke-miterlimit="10"/>
<path d="M197.871 154.967C197.871 155.425 197.499 155.797 197.041 155.797C196.583 155.797 196.211 155.425 196.211 154.967C196.211 154.508 196.583 154.137 197.041 154.137C197.499 154.137 197.871 154.508 197.871 154.967Z" fill="#F7F7F7"/>
<path d="M93.0418 170.746V167.336H93.4347V168.595H93.468C93.4969 168.551 93.5368 168.494 93.5879 168.425C93.64 168.355 93.7144 168.293 93.811 168.239C93.9086 168.183 94.0407 168.156 94.2072 168.156C94.4225 168.156 94.6123 168.209 94.7766 168.317C94.9409 168.425 95.0691 168.577 95.1612 168.775C95.2533 168.972 95.2994 169.206 95.2994 169.474C95.2994 169.745 95.2533 169.98 95.1612 170.178C95.0691 170.376 94.9414 170.529 94.7783 170.638C94.6151 170.746 94.427 170.799 94.2139 170.799C94.0496 170.799 93.9181 170.772 93.8193 170.718C93.7205 170.662 93.6445 170.6 93.5912 170.53C93.5379 170.459 93.4969 170.4 93.468 170.353H93.4214V170.746H93.0418ZM93.428 169.467C93.428 169.661 93.4563 169.831 93.513 169.979C93.5696 170.125 93.6522 170.24 93.761 170.323C93.8698 170.405 94.003 170.446 94.1606 170.446C94.3249 170.446 94.4619 170.403 94.5718 170.317C94.6828 170.229 94.7661 170.111 94.8215 169.964C94.8782 169.815 94.9065 169.649 94.9065 169.467C94.9065 169.288 94.8787 169.126 94.8232 168.981C94.7688 168.836 94.6861 168.721 94.5751 168.637C94.4653 168.551 94.3271 168.509 94.1606 168.509C94.0008 168.509 93.8665 168.549 93.7577 168.63C93.6489 168.71 93.5668 168.822 93.5113 168.966C93.4558 169.11 93.428 169.277 93.428 169.467ZM96.9726 170.799C96.7262 170.799 96.5136 170.745 96.3349 170.636C96.1573 170.526 96.0203 170.373 95.9237 170.177C95.8282 169.979 95.7805 169.749 95.7805 169.487C95.7805 169.226 95.8282 168.995 95.9237 168.795C96.0203 168.594 96.1546 168.437 96.3266 168.325C96.4997 168.212 96.7017 168.156 96.9326 168.156C97.0658 168.156 97.1973 168.178 97.3272 168.222C97.457 168.267 97.5752 168.339 97.6818 168.439C97.7884 168.537 97.8733 168.668 97.9365 168.831C97.9998 168.995 98.0314 169.196 98.0314 169.434V169.601H96.0602V169.261H97.6319C97.6319 169.117 97.603 168.988 97.5453 168.875C97.4887 168.762 97.4077 168.672 97.3022 168.607C97.1979 168.541 97.0747 168.509 96.9326 168.509C96.7761 168.509 96.6407 168.547 96.5264 168.625C96.4132 168.702 96.326 168.802 96.265 168.925C96.2039 169.048 96.1734 169.18 96.1734 169.321V169.547C96.1734 169.741 96.2067 169.904 96.2733 170.039C96.341 170.172 96.4348 170.273 96.5547 170.343C96.6746 170.412 96.8138 170.446 96.9726 170.446C97.0758 170.446 97.169 170.432 97.2523 170.403C97.3366 170.373 97.4093 170.329 97.4704 170.27C97.5314 170.21 97.5786 170.136 97.6119 170.047L97.9915 170.153C97.9515 170.282 97.8844 170.395 97.79 170.493C97.6957 170.59 97.5791 170.665 97.4404 170.719C97.3017 170.773 97.1457 170.799 96.9726 170.799ZM99.7413 168.189V168.522H98.416V168.189H99.7413ZM98.8023 167.576H99.1952V170.014C99.1952 170.125 99.2113 170.208 99.2435 170.263C99.2768 170.318 99.3189 170.354 99.37 170.373C99.4221 170.391 99.4771 170.4 99.5348 170.4C99.5781 170.4 99.6136 170.398 99.6414 170.393C99.6691 170.388 99.6913 170.383 99.708 170.38L99.7879 170.733C99.7612 170.743 99.724 170.753 99.6763 170.763C99.6286 170.774 99.5681 170.779 99.4948 170.779C99.3839 170.779 99.2751 170.756 99.1685 170.708C99.0631 170.66 98.9754 170.587 98.9055 170.49C98.8367 170.392 98.8023 170.269 98.8023 170.12V167.576ZM101.085 170.806C100.923 170.806 100.776 170.776 100.644 170.714C100.512 170.652 100.407 170.563 100.329 170.446C100.251 170.329 100.212 170.187 100.212 170.02C100.212 169.874 100.241 169.755 100.299 169.664C100.357 169.572 100.434 169.5 100.53 169.447C100.627 169.395 100.734 169.356 100.85 169.331C100.968 169.304 101.086 169.283 101.205 169.268C101.36 169.248 101.486 169.233 101.583 169.223C101.68 169.212 101.751 169.193 101.796 169.168C101.841 169.142 101.864 169.098 101.864 169.035V169.021C101.864 168.857 101.819 168.729 101.729 168.638C101.64 168.547 101.505 168.502 101.325 168.502C101.137 168.502 100.99 168.543 100.883 168.625C100.777 168.707 100.702 168.795 100.659 168.888L100.286 168.755C100.352 168.6 100.441 168.479 100.552 168.392C100.664 168.304 100.786 168.243 100.918 168.209C101.052 168.173 101.182 168.156 101.311 168.156C101.393 168.156 101.488 168.166 101.594 168.186C101.702 168.204 101.806 168.244 101.906 168.304C102.007 168.364 102.09 168.454 102.157 168.575C102.224 168.696 102.257 168.858 102.257 169.061V170.746H101.864V170.4H101.844C101.817 170.455 101.773 170.515 101.711 170.578C101.649 170.641 101.566 170.695 101.463 170.739C101.36 170.784 101.234 170.806 101.085 170.806ZM101.145 170.453C101.3 170.453 101.431 170.423 101.538 170.362C101.645 170.3 101.726 170.222 101.781 170.125C101.836 170.029 101.864 169.927 101.864 169.82V169.461C101.847 169.481 101.811 169.499 101.754 169.516C101.699 169.531 101.634 169.545 101.561 169.557C101.489 169.568 101.418 169.578 101.35 169.587C101.282 169.595 101.227 169.602 101.185 169.607C101.083 169.621 100.987 169.642 100.898 169.672C100.811 169.701 100.74 169.745 100.685 169.804C100.632 169.861 100.605 169.94 100.605 170.04C100.605 170.177 100.656 170.28 100.757 170.35C100.859 170.419 100.988 170.453 101.145 170.453ZM105.405 168.189V168.522H104.079V168.189H105.405ZM104.466 167.576H104.859V170.014C104.859 170.125 104.875 170.208 104.907 170.263C104.94 170.318 104.982 170.354 105.033 170.373C105.086 170.391 105.141 170.4 105.198 170.4C105.242 170.4 105.277 170.398 105.305 170.393C105.333 170.388 105.355 170.383 105.371 170.38L105.451 170.733C105.425 170.743 105.388 170.753 105.34 170.763C105.292 170.774 105.232 170.779 105.158 170.779C105.047 170.779 104.939 170.756 104.832 170.708C104.727 170.66 104.639 170.587 104.569 170.49C104.5 170.392 104.466 170.269 104.466 170.12V167.576ZM107.04 170.799C106.794 170.799 106.582 170.745 106.403 170.636C106.225 170.526 106.088 170.373 105.992 170.177C105.896 169.979 105.848 169.749 105.848 169.487C105.848 169.226 105.896 168.995 105.992 168.795C106.088 168.594 106.222 168.437 106.395 168.325C106.568 168.212 106.77 168.156 107.001 168.156C107.134 168.156 107.265 168.178 107.395 168.222C107.525 168.267 107.643 168.339 107.75 168.439C107.856 168.537 107.941 168.668 108.004 168.831C108.068 168.995 108.099 169.196 108.099 169.434V169.601H106.128V169.261H107.7C107.7 169.117 107.671 168.988 107.613 168.875C107.557 168.762 107.476 168.672 107.37 168.607C107.266 168.541 107.143 168.509 107.001 168.509C106.844 168.509 106.709 168.547 106.594 168.625C106.481 168.702 106.394 168.802 106.333 168.925C106.272 169.048 106.241 169.18 106.241 169.321V169.547C106.241 169.741 106.275 169.904 106.341 170.039C106.409 170.172 106.503 170.273 106.623 170.343C106.742 170.412 106.882 170.446 107.04 170.446C107.144 170.446 107.237 170.432 107.32 170.403C107.405 170.373 107.477 170.329 107.538 170.27C107.599 170.21 107.646 170.136 107.68 170.047L108.059 170.153C108.019 170.282 107.952 170.395 107.858 170.493C107.764 170.59 107.647 170.665 107.508 170.719C107.37 170.773 107.214 170.799 107.04 170.799ZM110.508 168.762L110.155 168.861C110.133 168.803 110.101 168.745 110.057 168.69C110.015 168.633 109.957 168.587 109.884 168.55C109.811 168.513 109.717 168.495 109.603 168.495C109.446 168.495 109.316 168.531 109.211 168.603C109.108 168.674 109.057 168.765 109.057 168.875C109.057 168.972 109.092 169.05 109.163 169.106C109.234 169.163 109.345 169.21 109.496 169.248L109.876 169.341C110.104 169.396 110.275 169.481 110.387 169.596C110.499 169.709 110.555 169.855 110.555 170.034C110.555 170.18 110.513 170.311 110.428 170.426C110.345 170.542 110.229 170.633 110.079 170.699C109.929 170.766 109.755 170.799 109.556 170.799C109.295 170.799 109.079 170.743 108.908 170.63C108.738 170.516 108.629 170.351 108.584 170.133L108.957 170.04C108.992 170.178 109.059 170.281 109.158 170.35C109.258 170.419 109.389 170.453 109.549 170.453C109.733 170.453 109.878 170.414 109.986 170.337C110.094 170.258 110.149 170.163 110.149 170.054C110.149 169.965 110.118 169.89 110.056 169.83C109.993 169.769 109.898 169.724 109.769 169.694L109.343 169.594C109.109 169.539 108.937 169.452 108.827 169.336C108.718 169.218 108.664 169.071 108.664 168.895C108.664 168.75 108.704 168.623 108.785 168.512C108.867 168.401 108.979 168.314 109.12 168.25C109.262 168.187 109.423 168.156 109.603 168.156C109.856 168.156 110.054 168.211 110.199 168.322C110.344 168.433 110.447 168.58 110.508 168.762ZM112.259 168.189V168.522H110.933V168.189H112.259ZM111.32 167.576H111.713V170.014C111.713 170.125 111.729 170.208 111.761 170.263C111.794 170.318 111.836 170.354 111.887 170.373C111.94 170.391 111.994 170.4 112.052 170.4C112.095 170.4 112.131 170.398 112.159 170.393C112.186 170.388 112.209 170.383 112.225 170.38L112.305 170.733C112.279 170.743 112.241 170.753 112.194 170.763C112.146 170.774 112.085 170.779 112.012 170.779C111.901 170.779 111.792 170.756 111.686 170.708C111.58 170.66 111.493 170.587 111.423 170.49C111.354 170.392 111.32 170.269 111.32 170.12V167.576Z" fill="#F7F7F7"/>
<path d="M181.952 168.059H116.707V169.23H181.952V168.059Z" fill="#28385E"/>
<path d="M156.753 168.059H116.707V169.23H156.753V168.059Z" fill="#78FF88"/>
<path d="M148.793 170.305H116.707V171.476H148.793V170.305Z" fill="#28385E"/>
<path d="M96.3675 173.79H100.323L100.836 172.691H92.8516V174.523H95.635L96.3675 173.79Z" fill="#78FF88"/>
<path d="M104.565 172.68H104.125V173.119H104.565V172.68Z" fill="#F7F7F7"/>
<path d="M107.299 172.68H106.859V173.119H107.299V172.68Z" fill="#F7F7F7"/>
<path d="M110.022 172.68H109.582V173.119H110.022V172.68Z" fill="#F7F7F7"/>
<path d="M193.571 152.398C193.375 152.398 193.2 152.359 193.043 152.282C192.887 152.204 192.761 152.097 192.667 151.962C192.572 151.827 192.521 151.672 192.512 151.499H192.912C192.927 151.653 192.997 151.781 193.121 151.882C193.247 151.982 193.397 152.032 193.571 152.032C193.711 152.032 193.835 151.999 193.944 151.934C194.054 151.868 194.14 151.778 194.202 151.664C194.265 151.549 194.297 151.418 194.297 151.273C194.297 151.124 194.264 150.991 194.198 150.875C194.134 150.757 194.045 150.664 193.932 150.597C193.819 150.529 193.69 150.495 193.544 150.494C193.44 150.492 193.333 150.509 193.223 150.542C193.113 150.574 193.023 150.616 192.951 150.667L192.565 150.62L192.772 148.942H194.543V149.308H193.118L192.998 150.314H193.018C193.088 150.258 193.176 150.212 193.281 150.176C193.387 150.139 193.496 150.121 193.611 150.121C193.819 150.121 194.005 150.171 194.169 150.27C194.333 150.369 194.462 150.505 194.555 150.677C194.649 150.849 194.696 151.045 194.696 151.266C194.696 151.484 194.647 151.678 194.55 151.849C194.453 152.019 194.32 152.153 194.15 152.252C193.98 152.349 193.787 152.398 193.571 152.398ZM196.47 152.398C196.219 152.398 196.005 152.33 195.829 152.193C195.652 152.056 195.517 151.857 195.424 151.596C195.331 151.334 195.284 151.017 195.284 150.647C195.284 150.278 195.331 149.964 195.424 149.703C195.519 149.441 195.654 149.241 195.83 149.103C196.008 148.965 196.221 148.895 196.47 148.895C196.718 148.895 196.931 148.965 197.107 149.103C197.285 149.241 197.42 149.441 197.514 149.703C197.608 149.964 197.655 150.278 197.655 150.647C197.655 151.017 197.609 151.334 197.515 151.596C197.422 151.857 197.287 152.056 197.111 152.193C196.934 152.33 196.721 152.398 196.47 152.398ZM196.47 152.032C196.718 152.032 196.912 151.912 197.049 151.672C197.187 151.433 197.256 151.091 197.256 150.647C197.256 150.351 197.224 150.1 197.161 149.893C197.099 149.685 197.009 149.527 196.891 149.418C196.774 149.309 196.634 149.255 196.47 149.255C196.223 149.255 196.031 149.376 195.892 149.62C195.753 149.861 195.684 150.204 195.684 150.647C195.684 150.942 195.715 151.193 195.777 151.399C195.839 151.606 195.929 151.763 196.045 151.87C196.163 151.978 196.304 152.032 196.47 152.032ZM199.4 152.398C199.149 152.398 198.935 152.33 198.759 152.193C198.583 152.056 198.448 151.857 198.354 151.596C198.261 151.334 198.215 151.017 198.215 150.647C198.215 150.278 198.261 149.964 198.354 149.703C198.449 149.441 198.584 149.241 198.761 149.103C198.938 148.965 199.151 148.895 199.4 148.895C199.649 148.895 199.861 148.965 200.038 149.103C200.215 149.241 200.351 149.441 200.444 149.703C200.538 149.964 200.585 150.278 200.585 150.647C200.585 151.017 200.539 151.334 200.446 151.596C200.352 151.857 200.217 152.056 200.041 152.193C199.864 152.33 199.651 152.398 199.4 152.398ZM199.4 152.032C199.649 152.032 199.842 151.912 199.979 151.672C200.117 151.433 200.186 151.091 200.186 150.647C200.186 150.351 200.154 150.1 200.091 149.893C200.029 149.685 199.939 149.527 199.821 149.418C199.705 149.309 199.564 149.255 199.4 149.255C199.154 149.255 198.961 149.376 198.822 149.62C198.684 149.861 198.614 150.204 198.614 150.647C198.614 150.942 198.645 151.193 198.707 151.399C198.77 151.606 198.859 151.763 198.975 151.87C199.093 151.978 199.235 152.032 199.4 152.032Z" fill="#F7F7F7"/>
<path d="M186.637 171.571H185.66L184.098 168.055H185.074L186.637 171.571Z" fill="#28385E"/>
<path d="M189.176 171.571H188.199L186.637 168.055H187.613L189.176 171.571Z" fill="#28385E"/>
<path d="M191.715 171.571H190.738L189.176 168.055H190.152L191.715 171.571Z" fill="#28385E"/>
<path d="M194.259 171.571H193.282L191.719 168.055H192.695L194.259 171.571Z" fill="#28385E"/>
<path d="M196.747 171.571H195.77L194.207 168.055H195.184L196.747 171.571Z" fill="#28385E"/>
<path d="M192.518 50.5156H176.637V53.3602H192.518V50.5156Z" fill="#A9CCEA"/>
<path d="M200.583 55.6055H176.637V58.4495H200.583V55.6055Z" fill="#A9CCEA"/>
<path d="M206.166 60.6953H176.637V63.5399H206.166V60.6953Z" fill="#A9CCEA"/>
<path d="M187.927 65.7852H176.637V68.6298H187.927V65.7852Z" fill="#A9CCEA"/>
<path d="M25.8814 84.7969H10V87.6415H25.8814V84.7969Z" fill="#2889DB"/>
<path d="M33.9459 89.8828H10V92.7268H33.9459V89.8828Z" fill="#A9CCEA"/>
<path d="M39.5295 94.9805H10V97.8251H39.5295V94.9805Z" fill="#A9CCEA"/>
<path d="M21.2907 100.066H10V102.911H21.2907V100.066Z" fill="#A9CCEA"/>
<path d="M117.318 184.672H49.625V193.459H117.318V184.672Z" stroke="#38E9B1" stroke-width="0.650888" stroke-miterlimit="10"/>
<path d="M85.5279 115.461H82.2734V135.422H85.5279V115.461Z" stroke="#38E9B1" stroke-width="0.650888" stroke-miterlimit="10"/>
<path d="M216.246 171.612C222.362 170.626 226.52 164.868 225.534 158.752C224.548 152.636 218.79 148.478 212.675 149.464C206.559 150.451 202.401 156.208 203.387 162.324C204.374 168.44 210.131 172.598 216.246 171.612Z" fill="#21702A"/>
<path d="M213.662 159.483L209.206 161.115L213.662 162.734V164.407L207.293 161.985V160.246L213.662 157.824V159.483Z" fill="#F9FBFC"/>
<path d="M215.117 157.824L221.486 160.246V161.985L215.117 164.407V162.734L219.572 161.115L215.117 159.483V157.824Z" fill="#F9FBFC"/>
<path d="M233.175 169.703C233.175 170.511 232.519 171.167 231.711 171.167C230.902 171.167 230.246 170.511 230.246 169.703C230.246 168.894 230.902 168.238 231.711 168.238C232.519 168.238 233.175 168.894 233.175 169.703Z" stroke="#78FF88" stroke-width="0.650888" stroke-miterlimit="10"/>
<path d="M99.0913 63.6094H46.043V69.1421H99.0913V63.6094Z" stroke="#38E9B1" stroke-width="0.650888" stroke-miterlimit="10"/>
<path d="M81.1869 65.3945H48.3164V67.0218H81.1869V65.3945Z" fill="#38E9B1"/>
<path d="M130.009 106.785H91.1719V108.738H130.009V106.785Z" fill="url(#paint9_linear_1643_35069)"/>
<path d="M108.773 106.785H91.1719V108.738H108.773V106.785Z" fill="#2889DB"/>
<path d="M130.009 111.824H91.1719V113.777H130.009V111.824Z" fill="url(#paint10_linear_1643_35069)"/>
<path d="M118.211 111.824H91.1719V113.777H118.211V111.824Z" fill="#78FF88"/>
<path d="M130.009 116.867H91.1719V118.82H130.009V116.867Z" fill="url(#paint11_linear_1643_35069)"/>
<path d="M99.0909 116.867H91.1719V118.82H99.0909V116.867Z" fill="#1AE5FF"/>
<path d="M92.0956 103.367H91.3359V104.127H92.0956V103.367Z" fill="url(#paint12_linear_1643_35069)"/>
<path d="M94.6971 103.367H93.9375V104.127H94.6971V103.367Z" fill="url(#paint13_linear_1643_35069)"/>
<path d="M97.3026 103.367H96.543V104.127H97.3026V103.367Z" fill="url(#paint14_linear_1643_35069)"/>
<path d="M164.867 129.965H163.602V131.231H164.867V129.965Z" fill="white"/>
<path d="M169.207 129.965H167.941V131.231H169.207V129.965Z" fill="white"/>
<path d="M173.543 129.965H172.277V131.231H173.543V129.965Z" fill="white"/>
<path d="M184.244 79.668H181.871V82.041H184.244V79.668Z" fill="white"/>
<path d="M192.381 79.668H190.008V82.041H192.381V79.668Z" fill="white"/>
<path d="M200.518 79.668H198.145V82.041H200.518V79.668Z" fill="white"/>
<path d="M150.611 177.734H148.238V180.107H150.611V177.734Z" fill="white"/>
<path d="M158.748 177.734H156.375V180.107H158.748V177.734Z" fill="white"/>
<path d="M166.885 177.734H164.512V180.107H166.885V177.734Z" fill="white"/>
<path d="M49.9489 112.023H48.6836V113.289H49.9489V112.023Z" fill="white"/>
<path d="M54.2893 112.023H53.0234V113.289H54.2893V112.023Z" fill="white"/>
<path d="M58.6292 112.023H57.3633V113.289H58.6292V112.023Z" fill="white"/>
<path d="M226.124 110.469H205.078V112.53H226.124V110.469Z" fill="white"/>
<path d="M211.324 114.102H205.078V116.163H211.324V114.102Z" fill="#287DD1"/>
<path d="M35.3003 114.705H30.7443V110.148H26.5131V114.705H21.957V118.936H26.5131V123.492H30.7443V118.936H35.3003V114.705Z" fill="#1AE5FF"/>
<path d="M23.1093 127.391H20.3311V124.613H17.7515V127.391H14.9727V129.971H17.7515V132.749H20.3311V129.971H23.1093V127.391Z" fill="#2889DB"/>
<path d="M99.1566 124.965C95.2216 124.965 92.0312 128.155 92.0312 132.09C92.0312 136.026 95.2216 139.216 99.1566 139.216C103.092 139.216 106.282 136.025 106.282 132.09C106.282 128.155 103.092 124.965 99.1566 124.965ZM99.1566 135.804C97.1057 135.804 95.4439 134.141 95.4439 132.09C95.4439 130.039 97.1063 128.377 99.1566 128.377C101.208 128.377 102.87 130.039 102.87 132.09C102.87 134.141 101.207 135.804 99.1566 135.804Z" fill="url(#paint15_linear_1643_35069)"/>
<path d="M94.3067 131.388C94.9688 131.388 95.5489 130.994 95.8502 130.404C96.4638 129.201 97.7141 128.377 99.1572 128.377C100.601 128.377 101.851 129.201 102.465 130.404C102.765 130.994 103.346 131.388 104.008 131.388C105.255 131.388 106.108 130.081 105.56 128.961C104.401 126.594 101.97 124.965 99.1578 124.965C96.3455 124.965 93.9142 126.594 92.7557 128.962C92.2067 130.081 93.0593 131.388 94.3067 131.388Z" fill="#38E9B1"/>
<path d="M111.117 132.09C111.117 136.025 114.308 139.216 118.243 139.216C122.178 139.216 125.368 136.025 125.368 132.09C125.368 128.155 122.178 124.965 118.243 124.965C114.308 124.965 111.117 128.155 111.117 132.09ZM121.956 132.09C121.956 134.141 120.293 135.803 118.243 135.803C116.192 135.803 114.529 134.141 114.529 132.09C114.529 130.039 116.192 128.377 118.243 128.377C120.293 128.377 121.956 130.039 121.956 132.09Z" fill="url(#paint16_linear_1643_35069)"/>
<path d="M117.541 136.938C117.541 136.276 117.147 135.696 116.557 135.395C115.354 134.781 114.53 133.531 114.53 132.088C114.53 130.644 115.354 129.394 116.557 128.78C117.147 128.479 117.541 127.899 117.541 127.237C117.541 125.99 116.234 125.137 115.114 125.685C112.747 126.844 111.117 129.275 111.117 132.088C111.117 134.9 112.747 137.331 115.114 138.49C116.234 139.038 117.541 138.186 117.541 136.938Z" fill="#78FF88"/>
<path d="M78.8068 103.961H65.7891V135.204H78.8068V103.961Z" stroke="#38E9B1" stroke-width="0.650888" stroke-miterlimit="10"/>
<path d="M71.4299 109.984H67.6328V111.107H71.4299V109.984Z" fill="#1AE5FF"/>
<path d="M71.4299 112.488H67.6328V113.61H71.4299V112.488Z" fill="#1AE5FF"/>
<path d="M71.4299 114.988H67.6328V116.11H71.4299V114.988Z" fill="#1AE5FF"/>
<path d="M71.4299 128.008H67.6328V129.13H71.4299V128.008Z" fill="#1AE5FF"/>
<path d="M73.1656 118.66H67.6328V119.782H73.1656V118.66Z" fill="#1AE5FF"/>
<path d="M73.1656 121.164H67.6328V122.286H73.1656V121.164Z" fill="white"/>
<path d="M73.1656 123.664H67.6328V124.786H73.1656V123.664Z" fill="white"/>
<path d="M35.6299 143.012H19.1406V159.501H35.6299V143.012Z" fill="#38E9B1"/>
<path d="M26.9463 146.918H10.457V163.407H26.9463V146.918Z" stroke="#38E9B1" stroke-width="0.650888" stroke-miterlimit="10"/>
<path d="M222.216 190.746H215.273V197.689H222.216V190.746Z" stroke="#38E9B1" stroke-width="0.650888" stroke-miterlimit="10"/>
<path d="M131.961 179.793H137.819L141.074 183.047H174.92L180.128 177.84H198.353" stroke="white" stroke-width="0.650888" stroke-miterlimit="10"/>
<path d="M130.252 181.581C131.195 181.581 131.96 180.816 131.96 179.873C131.96 178.929 131.195 178.164 130.252 178.164C129.308 178.164 128.543 178.929 128.543 179.873C128.543 180.816 129.308 181.581 130.252 181.581Z" stroke="white" stroke-width="0.650888" stroke-miterlimit="10"/>
<path d="M200.115 179.468C201.058 179.468 201.823 178.703 201.823 177.759C201.823 176.816 201.058 176.051 200.115 176.051C199.171 176.051 198.406 176.816 198.406 177.759C198.406 178.703 199.171 179.468 200.115 179.468Z" stroke="white" stroke-width="0.650888" stroke-miterlimit="10"/>
<path d="M223.086 87.9042C223.086 89.1025 222.114 90.074 220.916 90.074C219.718 90.074 218.746 89.1025 218.746 87.9042C218.746 86.7059 219.718 85.7344 220.916 85.7344C222.114 85.7344 223.086 86.7059 223.086 87.9042Z" fill="#38E9B1"/>
<path d="M22.6092 172.521C22.6092 173.72 21.6377 174.691 20.4393 174.691C19.241 174.691 18.2695 173.72 18.2695 172.521C18.2695 171.323 19.241 170.352 20.4393 170.352C21.6383 170.352 22.6092 171.323 22.6092 172.521Z" fill="#78FF88"/>
<path d="M32.5863 180.551C32.5863 182.648 30.8863 184.348 28.7892 184.348C26.6921 184.348 24.9922 182.648 24.9922 180.551C24.9922 178.454 26.6921 176.754 28.7892 176.754C30.8863 176.754 32.5863 178.454 32.5863 180.551Z" fill="#78FF88"/>
<path d="M161.902 193.348H146.715V196.819H161.902V193.348Z" stroke="#38E9B1" stroke-width="0.650888" stroke-miterlimit="10"/>
<path d="M180.019 199.859H146.715V203.331H180.019V199.859Z" stroke="#38E9B1" stroke-width="0.650888" stroke-miterlimit="10"/>
<path d="M53.6732 196.68L49.9922 200.361" stroke="#38E9B1" stroke-width="0.650888" stroke-miterlimit="10" stroke-linecap="round" stroke-linejoin="round"/>
<path d="M57.2123 196.68L53.5312 200.361" stroke="#38E9B1" stroke-width="0.650888" stroke-miterlimit="10" stroke-linecap="round" stroke-linejoin="round"/>
<path d="M60.7474 196.68L57.0664 200.361" stroke="#38E9B1" stroke-width="0.650888" stroke-miterlimit="10" stroke-linecap="round" stroke-linejoin="round"/>
<path d="M64.2943 196.68L60.6133 200.361" stroke="#38E9B1" stroke-width="0.650888" stroke-miterlimit="10" stroke-linecap="round" stroke-linejoin="round"/>
<path d="M67.8295 196.68L64.1484 200.361" stroke="#38E9B1" stroke-width="0.650888" stroke-miterlimit="10" stroke-linecap="round" stroke-linejoin="round"/>
</g>
<defs>
<filter id="filter0_i_1643_35069" x="28.8906" y="72.9062" width="190.148" height="120.832" filterUnits="userSpaceOnUse" color-interpolation-filters="sRGB">
<feFlood flood-opacity="0" result="BackgroundImageFix"/>
<feBlend mode="normal" in="SourceGraphic" in2="BackgroundImageFix" result="shape"/>
<feColorMatrix in="SourceAlpha" type="matrix" values="0 0 0 0 0 0 0 0 0 0 0 0 0 0 0 0 0 0 127 0" result="hardAlpha"/>
<feOffset dx="4" dy="4"/>
<feGaussianBlur stdDeviation="2"/>
<feComposite in2="hardAlpha" operator="arithmetic" k2="-1" k3="1"/>
<feColorMatrix type="matrix" values="0 0 0 0 0.783594 0 0 0 0 0.783594 0 0 0 0 0.783594 0 0 0 0.25 0"/>
<feBlend mode="normal" in2="shape" result="effect1_innerShadow_1643_35069"/>
</filter>
<linearGradient id="paint0_linear_1643_35069" x1="137.471" y1="43.1562" x2="137.471" y2="105.029" gradientUnits="userSpaceOnUse">
<stop stop-color="#38E9B1"/>
<stop offset="0.758654" stop-color="#289DF2"/>
</linearGradient>
<linearGradient id="paint1_linear_1643_35069" x1="52.0657" y1="87.3633" x2="52.0657" y2="91.5944" gradientUnits="userSpaceOnUse">
<stop stop-color="#24BFD3"/>
<stop offset="1" stop-color="#9895E8"/>
</linearGradient>
<linearGradient id="paint2_linear_1643_35069" x1="75.1711" y1="87.3633" x2="75.1711" y2="91.5944" gradientUnits="userSpaceOnUse">
<stop stop-color="#24BFD3"/>
<stop offset="1" stop-color="#9895E8"/>
</linearGradient>
<linearGradient id="paint3_linear_1643_35069" x1="133.753" y1="87.3633" x2="133.753" y2="91.5944" gradientUnits="userSpaceOnUse">
<stop stop-color="#24BFD3"/>
<stop offset="1" stop-color="#9895E8"/>
</linearGradient>
<linearGradient id="paint4_linear_1643_35069" x1="192.331" y1="87.3633" x2="192.331" y2="91.5944" gradientUnits="userSpaceOnUse">
<stop stop-color="#24BFD3"/>
<stop offset="1" stop-color="#9895E8"/>
</linearGradient>
<linearGradient id="paint5_linear_1643_35069" x1="63.4549" y1="107.215" x2="63.4549" y2="174.908" gradientUnits="userSpaceOnUse">
<stop stop-color="#24BFD3"/>
<stop offset="1" stop-color="#9895E8"/>
</linearGradient>
<linearGradient id="paint6_linear_1643_35069" x1="187.289" y1="103.961" x2="187.289" y2="135.204" gradientUnits="userSpaceOnUse">
<stop stop-color="#38E9B1"/>
<stop offset="0.758654" stop-color="#289DF2"/>
</linearGradient>
<linearGradient id="paint7_linear_1643_35069" x1="147.365" y1="109.598" x2="147.365" y2="143.227" gradientUnits="userSpaceOnUse">
<stop stop-color="#24BFD3"/>
<stop offset="1" stop-color="#9895E8"/>
</linearGradient>
<linearGradient id="paint8_linear_1643_35069" x1="224.062" y1="99.7305" x2="224.062" y2="100.73" gradientUnits="userSpaceOnUse">
<stop stop-color="#24BFD3"/>
<stop offset="1" stop-color="#9895E8"/>
</linearGradient>
<linearGradient id="paint9_linear_1643_35069" x1="110.59" y1="106.785" x2="110.59" y2="108.738" gradientUnits="userSpaceOnUse">
<stop stop-color="#24BFD3"/>
<stop offset="1" stop-color="#9895E8"/>
</linearGradient>
<linearGradient id="paint10_linear_1643_35069" x1="110.59" y1="111.824" x2="110.59" y2="113.777" gradientUnits="userSpaceOnUse">
<stop stop-color="#24BFD3"/>
<stop offset="1" stop-color="#9895E8"/>
</linearGradient>
<linearGradient id="paint11_linear_1643_35069" x1="110.59" y1="116.867" x2="110.59" y2="118.82" gradientUnits="userSpaceOnUse">
<stop stop-color="#24BFD3"/>
<stop offset="1" stop-color="#9895E8"/>
</linearGradient>
<linearGradient id="paint12_linear_1643_35069" x1="91.7158" y1="103.367" x2="91.7158" y2="104.127" gradientUnits="userSpaceOnUse">
<stop stop-color="#24BFD3"/>
<stop offset="1" stop-color="#9895E8"/>
</linearGradient>
<linearGradient id="paint13_linear_1643_35069" x1="94.3173" y1="103.367" x2="94.3173" y2="104.127" gradientUnits="userSpaceOnUse">
<stop stop-color="#24BFD3"/>
<stop offset="1" stop-color="#9895E8"/>
</linearGradient>
<linearGradient id="paint14_linear_1643_35069" x1="96.9228" y1="103.367" x2="96.9228" y2="104.127" gradientUnits="userSpaceOnUse">
<stop stop-color="#24BFD3"/>
<stop offset="1" stop-color="#9895E8"/>
</linearGradient>
<linearGradient id="paint15_linear_1643_35069" x1="99.1566" y1="124.965" x2="99.1566" y2="139.216" gradientUnits="userSpaceOnUse">
<stop stop-color="#24BFD3"/>
<stop offset="1" stop-color="#9895E8"/>
</linearGradient>
<linearGradient id="paint16_linear_1643_35069" x1="118.243" y1="124.965" x2="118.243" y2="139.216" gradientUnits="userSpaceOnUse">
<stop stop-color="#24BFD3"/>
<stop offset="1" stop-color="#9895E8"/>
</linearGradient>
<clipPath id="clip0_1643_35069">
<rect width="250" height="250" fill="white"/>
</clipPath>
</defs>
</svg>
